#N canvas 430 59 467 416 10;
#X obj 165 191 inlet;
#X obj 9 363 outlet;
#N canvas 0 23 251 391 get.power 0;
#X obj 10 5 inlet;
#X obj 42 72 array size \$0-outputs;
#X obj 42 94 t f b, f 7;
#X obj 42 116 until;
#X obj 88 116 f 0;
#X obj 42 138 f, f 7;
#X obj 101 138 + 1;
#X obj 42 182 t f f;
#X obj 42 204 *, f 5;
#X obj 42 226 +, f 11;
#X obj 139 226 f;
#X obj 10 248 f, f 5;
#X obj 10 28 t b b;
#X obj 42 50 t b b, f 11;
#X obj 116 204 f 0;
#X obj 10 333 outlet;
#X obj 10 312 /;
#X obj 42 160 array get \$0-outputs 0 1;
#X obj 10 270 sqrt;
#X msg 10 290 1 \$1;
#X connect 0 0 12 0;
#X connect 1 0 2 0;
#X connect 2 0 3 0;
#X connect 2 1 4 0;
#X connect 3 0 5 0;
#X connect 4 0 5 1;
#X connect 5 0 6 0;
#X connect 5 0 17 0;
#X connect 6 0 5 1;
#X connect 7 0 8 0;
#X connect 7 1 8 1;
#X connect 8 0 9 0;
#X connect 9 0 10 0;
#X connect 9 0 11 1;
#X connect 10 0 9 1;
#X connect 11 0 18 0;
#X connect 12 0 11 0;
#X connect 12 1 13 0;
#X connect 13 0 1 0;
#X connect 13 1 14 0;
#X connect 14 0 9 1;
#X connect 16 0 15 0;
#X connect 17 0 7 0;
#X connect 18 0 19 0;
#X connect 19 0 16 0;
#X restore 9 296 pd get.power;
#N canvas 0 23 450 300 do.normalize 0;
#X obj 63 66 array size \$0-outputs;
#X obj 63 88 t f b, f 7;
#X obj 63 110 until;
#X obj 109 110 f 0;
#X obj 63 132 f, f 7;
#X obj 122 132 + 1;
#X obj 63 44 t b f, f 13;
#X obj 63 196 *, f 13;
#X obj 63 174 array get \$0-outputs 0 1;
#X obj 63 218 array set \$0-outputs;
#X obj 63 154 t f f, f 10;
#X obj 17 24 t b f, f 7;
#X obj 17 2 inlet;
#X obj 17 242 outlet;
#X connect 0 0 1 0;
#X connect 1 0 2 0;
#X connect 1 1 3 0;
#X connect 2 0 4 0;
#X connect 3 0 4 1;
#X connect 4 0 5 0;
#X connect 4 0 10 0;
#X connect 5 0 4 1;
#X connect 6 0 0 0;
#X connect 6 1 7 1;
#X connect 7 0 9 0;
#X connect 8 0 7 0;
#X connect 10 0 8 0;
#X connect 10 1 9 1;
#X connect 11 0 13 0;
#X connect 11 1 6 0;
#X connect 12 0 11 0;
#X restore 9 319 pd do.normalize;
#N canvas 334 405 233 233 do.add 0;
#X obj 17 12 inlet;
#X obj 91 83 f 0;
#X obj 17 105 f, f 11;
#X obj 106 105 + 1;
#X obj 17 35 t l b, f 11;
#X obj 17 146 array get \$0-outputs 0 1;
#X obj 17 192 array set \$0-outputs;
#X obj 17 126 t f f, f 10;
#X obj 17 168 +, f 5;
#N canvas 0 23 450 300 do.iter 0;
#X obj 17 49 list split 1, f 14;
#X obj 17 97 list, f 7;
#X obj 17 71 t b f;
#X obj 17 24 inlet;
#X obj 49 119 outlet;
#X connect 0 0 2 0;
#X connect 0 1 1 1;
#X connect 1 0 0 0;
#X connect 2 0 1 0;
#X connect 2 1 4 0;
#X connect 3 0 0 0;
#X restore 17 58 pd do.iter;
#X obj 17 80 t b f;
#X connect 0 0 4 0;
#X connect 1 0 2 1;
#X connect 2 0 3 0;
#X connect 2 0 7 0;
#X connect 3 0 2 1;
#X connect 4 0 9 0;
#X connect 4 1 1 0;
#X connect 5 0 8 0;
#X connect 7 0 5 0;
#X connect 7 1 6 1;
#X connect 8 0 6 0;
#X connect 9 0 10 0;
#X connect 10 0 2 0;
#X connect 10 1 8 1;
#X restore 42 245 pd do.add;
#X obj 9 341 array get \$0-outputs;
#N canvas 277 338 271 441 do.wide 0;
#X obj 53 56 array size \$0-outputs;
#X obj 53 78 t f b, f 7;
#X obj 53 100 until;
#X obj 99 100 f 0;
#X obj 53 122 f, f 7;
#X obj 112 122 + 1;
#X obj 53 164 array get \$0-outputs 0 1;
#X obj 53 382 array set \$0-outputs;
#X obj 53 144 t f f, f 10;
#X obj 7 12 inlet;
#X obj 7 406 outlet;
#X obj 7 34 t b b, f 7;
#X obj 53 360 +, f 15;
#X obj 155 208 t f f, f 6;
#X obj 194 230 > 70;
#X obj 155 230 - 70;
#X obj 155 252 / 30;
#X obj 155 274 t f f;
#X obj 155 296 *, f 5;
#X obj 155 318 * 10;
#X obj 155 340 *, f 6;
#X obj 155 186 inlet spread;
#X connect 0 0 1 0;
#X connect 1 0 2 0;
#X connect 1 1 3 0;
#X connect 2 0 4 0;
#X connect 3 0 4 1;
#X connect 4 0 5 0;
#X connect 4 0 8 0;
#X connect 5 0 4 1;
#X connect 6 0 12 0;
#X connect 8 0 6 0;
#X connect 8 1 7 1;
#X connect 9 0 11 0;
#X connect 11 0 10 0;
#X connect 11 1 0 0;
#X connect 12 0 7 0;
#X connect 13 0 15 0;
#X connect 13 1 14 0;
#X connect 14 0 20 1;
#X connect 15 0 16 0;
#X connect 16 0 17 0;
#X connect 17 0 18 0;
#X connect 17 1 18 1;
#X connect 18 0 19 0;
#X connect 19 0 20 0;
#X connect 20 0 12 1;
#X connect 21 0 13 0;
#X restore 9 274 pd do.wide, f 17;
#X obj 267 26 array define \$0-outputs;
#X obj 42 191 \$1/spread, f 10;
#X obj 9 21 inlet angle;
#X obj 123 21 inlet spread;
#X obj 123 43 route float set;
#X msg 76 144 const 0;
#X obj 76 166 s \$0-outputs;
#X obj 9 121 t b f b, f 10;
#X obj 123 65 t b f;
#X obj 9 95 f;
#X obj 42 218 p.vbap \$1 \$2 \$3 \$4;
#X obj 9 43 route float set;
#X connect 0 0 17 1;
#X connect 2 0 3 0;
#X connect 3 0 5 0;
#X connect 5 0 1 0;
#X connect 6 0 2 0;
#X connect 8 0 17 0;
#X connect 9 0 18 0;
#X connect 10 0 11 0;
#X connect 11 0 15 0;
#X connect 11 1 6 1;
#X connect 11 1 8 1;
#X connect 12 0 13 0;
#X connect 14 0 6 0;
#X connect 14 1 8 0;
#X connect 14 2 12 0;
#X connect 15 0 16 0;
#X connect 15 1 8 1;
#X connect 15 1 6 1;
#X connect 16 0 14 0;
#X connect 17 0 4 0;
#X connect 18 0 16 0;
#X connect 18 1 16 1;
