#N canvas 195 85 318 272 10;
#X obj 18 44 inlet;
#X obj 18 106 outlet;
#X obj 81 10 inlet;
#N canvas 0 22 223 221 get.args 0;
#X obj 14 8 loadbang;
#N canvas 0 22 450 300 has.sym.arg 0;
#X obj 21 17 inlet;
#X msg 21 61 \$1;
#X obj 21 126 outlet;
#X msg 21 104 1;
#X msg 66 104 0;
#X obj 21 39 symbol \$2;
#X obj 21 82 route \$2;
#X connect 0 0 5 0;
#X connect 1 0 6 0;
#X connect 3 0 2 0;
#X connect 4 0 2 0;
#X connect 5 0 1 0;
#X connect 6 0 3 0;
#X connect 6 1 4 0;
#X restore 95 50 pd has.sym.arg;
#X obj 14 112 pack s s s;
#X obj 14 29 t b b b b, f 14;
#X obj 14 154 spigot 0, f 14;
#X obj 14 176 outlet;
#X obj 14 134 list trim;
#X obj 14 50 symbol \$2;
#X obj 41 71 symbol \$3;
#X obj 68 92 symbol \$4;
#X connect 0 0 3 0;
#X connect 1 0 4 1;
#X connect 2 0 6 0;
#X connect 3 0 7 0;
#X connect 3 1 8 0;
#X connect 3 2 9 0;
#X connect 3 3 1 0;
#X connect 4 0 5 0;
#X connect 6 0 4 0;
#X connect 7 0 2 0;
#X connect 8 0 2 1;
#X connect 9 0 2 2;
#X restore 117 10 pd get.args;
#N canvas 309 23 450 300 to.list 0;
#X obj 8 8 inlet;
#X obj 101 181 outlet;
#X obj 101 157 list, f 5;
#X obj 101 107 route list bang;
#N canvas 0 22 117 140 get.array 0;
#X obj 16 11 inlet;
#X obj 16 54 t b s, f 10;
#X obj 16 33 symbol;
#X obj 16 75 array get, f 10;
#X obj 16 97 outlet;
#X connect 0 0 2 0;
#X connect 1 0 3 0;
#X connect 1 1 3 2;
#X connect 2 0 1 0;
#X connect 3 0 4 0;
#X restore 174 80 pd get.array;
#N canvas 455 285 190 220 get.text 0;
#X obj 8 145 list split 1, f 13;
#X obj 8 31 unpack s s;
#X obj 8 11 inlet;
#X obj 45 167 outlet;
#X obj 8 101 text search, f 15;
#X obj 8 123 text get, f 12;
#X obj 8 79 symbol, f 10;
#X obj 8 53 t b s;
#X connect 0 1 3 0;
#X connect 1 0 7 0;
#X connect 1 1 6 1;
#X connect 2 0 1 0;
#X connect 4 0 5 0;
#X connect 5 0 0 0;
#X connect 6 0 4 0;
#X connect 7 0 6 0;
#X connect 7 1 4 1;
#X connect 7 1 5 3;
#X restore 101 80 pd get.text;
#X obj 101 130 t b a;
#X obj 101 56 route text array, f 25;
#X obj 163 182 outlet;
#X obj 8 30 route dump print;
#X msg 163 159 print;
#X connect 0 0 9 0;
#X connect 2 0 1 0;
#X connect 3 0 6 0;
#X connect 3 1 2 0;
#X connect 4 0 3 0;
#X connect 5 0 3 0;
#X connect 6 0 2 0;
#X connect 6 1 2 1;
#X connect 7 0 5 0;
#X connect 7 1 4 0;
#X connect 7 2 3 0;
#X connect 9 0 8 0;
#X connect 9 1 10 0;
#X connect 9 2 7 0;
#X connect 10 0 8 0;
#X restore 81 32 pd to.list;
#X obj 81 54 \$1/prepare, f 13;
#X obj 18 77 \$1/perform, f 11;
#X connect 0 0 6 0;
#X connect 2 0 4 0;
#X connect 3 0 4 0;
#X connect 4 0 5 0;
#X connect 4 1 6 1;
#X connect 5 0 6 1;
#X connect 6 0 1 0;
