#N canvas 46 101 574 469 10;
#X obj 12 296 list prepend set;
#X obj 12 318 list trim;
#X msg 12 340 0.707107 0.707107;
#X obj 12 274 vbap.coeff 2d 45 -45;
#X obj 227 306 list prepend set;
#X obj 227 328 list trim;
#X msg 227 350 6.31925e-08 0 0 0.707107 0.707107 0 0 0;
#X text 10 34 An external that computes the gains of a set of loudspeakers
for the spatialization of a virtual source using V. Pulkki's Vector
Base Amplitude Panning technique., f 90;
#X msg 104 242 set \$1;
#X obj 12 188 bng 15 250 50 0 empty empty empty 17 7 0 10 -262144 -1
-1;
#X obj 38 221 nbx 5 14 -45 45 0 0 empty empty empty 0 -8 0 10 -262144
-1 -1 0 256;
#X obj 104 221 nbx 5 14 -45 45 0 0 empty empty empty 0 -8 0 10 -262144
-1 -1 0 256;
#N canvas 0 22 450 300 header 0;
#X obj 11 11 cnv 15 65 18 empty empty vbap.coeff 2 8 0 14 -262144 -66577
0;
#X text 100 12 by Pierre Guillot | CICM - Université Paris 8 | 2016
- 2017;
#X coords 0 -1 1 1 452 20 2 10 10;
#X restore 9 7 pd header;
#X text 10 61 The arguments are the dimension (2d or 3d) followed by
a set of angles that defines the directions of the loudspeakers. The
angles must be azimuths in 2d and pairs of azimuth and elevation in
3d. The angles are defined in degrees. The message "configure" followed
by the same arguments can be used to change the configuration after
the initialization., f 90;
#X obj 227 198 nbx 5 14 -1e+37 1e+37 0 0 empty empty empty 0 -8 0 10
-262144 -1 -1 0 256;
#X obj 227 247 pack f f;
#X obj 287 198 nbx 5 14 -1e+37 1e+37 0 0 empty empty empty 0 -8 0 10
-262144 -1 -1 0 256;
#X obj 287 217 t b f;
#X obj 227 274 vbap.coeff 3d 45 35.3 135 35.3 225 35.3 315 35.3 45
-35.3 135 -35.3 225 -35.3 315 -35.3, f 45;
#X text 10 159 Outputs the results, f 12;
#X text 10 115 An float value in 2d or a list of two float values in
3d define the azimuth (and the elevation) of the virtual source and
output the gains of the loudspeakers. You can use the "set" message
to compute the compute the gains without output., f 90;
#X text 36 189 Sets the azimuth and outputs the results, f 21;
#X text 162 219 Without output, f 8;
#X text 226 179 Azimuth, f 8;
#X text 286 179 Elevation;
#N canvas 662 219 567 561 some.cofigurations 0;
#X text 13 8 Some typical loudspeakers' configurations:;
#X msg 15 45 2d 45 -45;
#X msg 45 88 2d 0 90 180 270;
#X text 43 68 Quadriphonic;
#X text 73 111 Octophonics;
#X msg 75 131 2d 0 45 90 135 180 225 270 315;
#X msg 65 181 2d 0 30 110 250 330;
#X text 63 161 5.1;
#X obj 22 319 list trim;
#X obj 22 297 list prepend configure;
#X obj 22 275 r \$0-config;
#X obj 15 211 s \$0-config;
#X obj 264 391 s \$0-config;
#X msg 284 102 3d 45 35.3 135 35.3 225 35.3 315 35.3 45 -35.3 135 -35.3
225 -35.3 315 -35.3, f 39;
#X text 283 81 Cube;
#X msg 264 54 3d 45 0 0 35.3 -45 0, f 21;
#X text 263 33 Frontal triplet;
#X text 15 27 Frontal pair;
#X msg 309 165 3d 180 90 0 26.6 324 -26.6 72 26.6 36 -26.6 144 26.6
108 -26.6 216 26.6 180 -26.6 288 26.6 252 -26.6 180 -90, f 36;
#X text 307 145 Dodecahedron;
#X msg 324 235 3d 180 69.1 159.1 0 90 20.9 135 35.3 135 -35.3 180 -69.1
20.9 0 90 -20.9 45 35.3 45 -35.3 0 69.1 200.9 0 270 20.9 225 35.3 225
-35.3 0 -69.1 339.1 0 270 -20.9 315 35.3 315 -35.3, f 36;
#X text 324 215 Icosahedron;
#X msg 324 331 3d 0 0 72 0 144 0 216 0 288 0 60 45 180 45 240 45,
f 25;
#X text 324 310 Pullki's configuration;
#X obj 22 434 vbap.coeff, f 11;
#X obj 35 355 nbx 5 14 -1e+37 1e+37 0 0 empty empty empty 0 -8 0 10
-262144 -1 -1 84 256;
#X obj 35 404 pack f f;
#X obj 95 355 nbx 5 14 -1e+37 1e+37 0 0 empty empty empty 0 -8 0 10
-262144 -1 -1 101 256;
#X obj 95 374 t b f;
#X text 34 336 Azimuth, f 8;
#X text 94 336 Elevation;
#X obj 22 457 list prepend set;
#X obj 22 479 list trim;
#X msg 22 501 0.61464 0 0.77768 0.132028 0 0 0 0;
#X connect 1 0 11 0;
#X connect 2 0 11 0;
#X connect 5 0 11 0;
#X connect 6 0 11 0;
#X connect 8 0 24 0;
#X connect 9 0 8 0;
#X connect 10 0 9 0;
#X connect 13 0 12 0;
#X connect 15 0 12 0;
#X connect 18 0 12 0;
#X connect 20 0 12 0;
#X connect 22 0 12 0;
#X connect 24 0 31 0;
#X connect 25 0 26 0;
#X connect 26 0 24 0;
#X connect 27 0 28 0;
#X connect 28 0 26 0;
#X connect 28 1 26 1;
#X connect 31 0 32 0;
#X connect 32 0 33 0;
#X restore 20 431 pd some.cofigurations;
#X text 19 393 Here are examples of typical loudspeakers' configuration
, f 30;
#X connect 0 0 1 0;
#X connect 1 0 2 0;
#X connect 3 0 0 0;
#X connect 4 0 5 0;
#X connect 5 0 6 0;
#X connect 8 0 3 0;
#X connect 9 0 3 0;
#X connect 10 0 3 0;
#X connect 11 0 8 0;
#X connect 14 0 15 0;
#X connect 15 0 18 0;
#X connect 16 0 17 0;
#X connect 17 0 15 0;
#X connect 17 1 15 1;
#X connect 18 0 4 0;
