#N canvas 327 410 661 303 10;
#X obj 70 233 outlet;
#X obj 480 8 array define \$0-outputs;
#X obj 263 11 inlet;
#X obj 263 58 array size \$0-outputs;
#X obj 263 34 route nls;
#X obj 21 7 inlet gains;
#X obj 127 7 inlet spread;
#X obj 127 29 t f b;
#X msg 154 52 const 0;
#X obj 154 74 s \$0-outputs;
#N canvas 0 22 208 371 get.power 0;
#X obj 10 5 inlet;
#X obj 37 72 array size \$0-outputs;
#X obj 37 94 t f b, f 7;
#X obj 37 116 until;
#X obj 76 116 f 0;
#X obj 37 138 f, f 7;
#X obj 86 138 + 1;
#X obj 37 182 t f f;
#X obj 37 204 *, f 5;
#X obj 37 226 +, f 7;
#X obj 87 226 f;
#X obj 10 248 f, f 5;
#X obj 10 28 t b b;
#X obj 37 50 t b b, f 7;
#X obj 76 204 f 0;
#X obj 10 313 outlet;
#X msg 10 270 \$1 1;
#X obj 10 292 /;
#X obj 37 160 array get \$0-outputs 0 1;
#X connect 0 0 12 0;
#X connect 1 0 2 0;
#X connect 2 0 3 0;
#X connect 2 1 4 0;
#X connect 3 0 5 0;
#X connect 4 0 5 1;
#X connect 5 0 6 0;
#X connect 5 0 18 0;
#X connect 6 0 5 1;
#X connect 7 0 8 0;
#X connect 7 1 8 1;
#X connect 8 0 9 0;
#X connect 9 0 10 0;
#X connect 9 0 11 1;
#X connect 10 0 9 1;
#X connect 11 0 16 0;
#X connect 12 0 11 0;
#X connect 12 1 13 0;
#X connect 13 0 1 0;
#X connect 13 1 14 0;
#X connect 14 0 9 1;
#X connect 16 0 17 0;
#X connect 17 0 15 0;
#X connect 18 0 7 0;
#X restore 70 166 pd get.power;
#N canvas 0 22 450 300 do.normalize 0;
#X obj 56 66 array size \$0-outputs;
#X obj 56 88 t f b, f 7;
#X obj 56 110 until;
#X obj 95 110 f 0;
#X obj 56 132 f, f 7;
#X obj 105 132 + 1;
#X obj 56 44 t b f, f 7;
#X obj 56 196 *, f 7;
#X obj 56 174 array get \$0-outputs 0 1;
#X obj 56 218 array set \$0-outputs;
#X obj 56 154 t f f, f 10;
#X obj 17 24 t b f, f 7;
#X obj 17 2 inlet;
#X obj 17 242 outlet;
#X connect 0 0 1 0;
#X connect 1 0 2 0;
#X connect 1 1 3 0;
#X connect 2 0 4 0;
#X connect 3 0 4 1;
#X connect 4 0 5 0;
#X connect 4 0 10 0;
#X connect 5 0 4 1;
#X connect 6 0 0 0;
#X connect 6 1 7 1;
#X connect 7 0 9 0;
#X connect 8 0 7 0;
#X connect 10 0 8 0;
#X connect 10 1 9 1;
#X connect 11 0 13 0;
#X connect 11 1 6 0;
#X connect 12 0 11 0;
#X restore 70 189 pd do.normalize;
#N canvas 0 22 450 300 do.add 0;
#X obj 17 2 inlet;
#X obj 17 48 list split 1;
#X obj 97 48 list;
#X obj 56 93 f 0;
#X obj 17 115 f, f 7;
#X obj 66 115 + 1;
#X obj 17 25 t l b, f 7;
#X obj 17 156 array get \$0-outputs 0 1;
#X obj 17 202 array set \$0-outputs;
#X obj 17 136 t f f, f 10;
#X obj 17 178 +, f 5;
#X obj 17 70 t b f;
#X obj 17 93 t b b;
#X connect 0 0 6 0;
#X connect 1 0 11 0;
#X connect 1 1 2 1;
#X connect 2 0 1 0;
#X connect 3 0 4 1;
#X connect 4 0 5 0;
#X connect 4 0 9 0;
#X connect 5 0 4 1;
#X connect 6 0 1 0;
#X connect 6 1 3 0;
#X connect 7 0 10 0;
#X connect 9 0 7 0;
#X connect 9 1 8 1;
#X connect 10 0 8 0;
#X connect 11 0 12 0;
#X connect 11 1 10 1;
#X connect 12 0 2 0;
#X connect 12 1 10 1;
#X connect 12 1 4 0;
#X restore 48 52 pd do.add;
#X obj 70 211 array get \$0-outputs;
#N canvas 277 338 314 441 do.wide 0;
#X obj 56 196 array size \$0-outputs;
#X obj 56 218 t f b, f 7;
#X obj 56 240 until;
#X obj 95 240 f 0;
#X obj 56 262 f, f 7;
#X obj 105 262 + 1;
#X obj 56 304 array get \$0-outputs 0 1;
#X obj 56 348 array set \$0-outputs;
#X obj 56 284 t f f, f 10;
#X obj 17 2 inlet;
#X obj 17 372 outlet;
#X obj 17 174 t b b, f 7;
#X obj 56 326 +, f 7;
#X obj 95 24 t f f, f 6;
#X obj 95 2 inlet;
#X obj 128 46 > 70;
#X obj 95 46 - 70;
#X obj 95 68 / 30;
#X obj 95 90 t f f;
#X obj 95 112 *, f 5;
#X obj 95 134 * 10;
#X obj 95 156 *, f 6;
#X connect 0 0 1 0;
#X connect 1 0 2 0;
#X connect 1 1 3 0;
#X connect 2 0 4 0;
#X connect 3 0 4 1;
#X connect 4 0 5 0;
#X connect 4 0 8 0;
#X connect 5 0 4 1;
#X connect 6 0 12 0;
#X connect 8 0 6 0;
#X connect 8 1 7 1;
#X connect 9 0 11 0;
#X connect 11 0 10 0;
#X connect 11 1 0 0;
#X connect 12 0 7 0;
#X connect 13 0 16 0;
#X connect 13 1 15 0;
#X connect 14 0 13 0;
#X connect 15 0 21 1;
#X connect 16 0 17 0;
#X connect 17 0 18 0;
#X connect 18 0 19 0;
#X connect 18 1 19 1;
#X connect 19 0 20 0;
#X connect 20 0 21 0;
#X connect 21 0 12 1;
#X restore 70 144 pd do.wide;
#X obj 21 77 until;
#X obj 60 77 f 0;
#X obj 21 99 f, f 7;
#X obj 70 99 + 1;
#X obj 70 121 sel;
#X obj 21 29 t b l;
#X connect 2 0 4 0;
#X connect 4 0 3 0;
#X connect 4 0 19 1;
#X connect 5 0 20 0;
#X connect 6 0 7 0;
#X connect 7 0 14 1;
#X connect 7 1 8 0;
#X connect 7 1 16 0;
#X connect 8 0 9 0;
#X connect 10 0 11 0;
#X connect 11 0 13 0;
#X connect 13 0 0 0;
#X connect 14 0 10 0;
#X connect 15 0 17 0;
#X connect 16 0 17 1;
#X connect 17 0 18 0;
#X connect 18 0 17 1;
#X connect 18 0 19 0;
#X connect 19 0 14 0;
#X connect 20 0 15 0;
#X connect 20 1 12 0;
