#N canvas 429 144 363 580 10;
#X obj 20 22 inlet;
#X obj 98 65 list length;
#X obj 98 87 t f f;
#X obj 157 23 array define \$0-angles;
#X obj 98 129 s \$0-nangles;
#N canvas 0 22 178 379 get.all.duos 0;
#X obj 13 91 until;
#X obj 65 113 + 1;
#X obj 13 113 f, f 7;
#X obj 13 69 t f b, f 7;
#X obj 52 91 f 0;
#X obj 13 48 f;
#X obj 13 266 until;
#X obj 65 288 + 1;
#X obj 13 288 f, f 7;
#X obj 28 26 r \$0-nangles;
#X obj 13 177 t f f, f 7;
#X obj 64 177 r \$0-nangles;
#X obj 13 199 pack f f, f 9;
#X obj 13 155 + 1;
#X msg 13 221 \$2 \$1;
#X obj 13 243 -;
#X obj 13 310 pack f f;
#X obj 13 135 t f f, f 8;
#X obj 13 4 inlet;
#X obj 13 351 outlet;
#X msg 13 332 \$2 \$1;
#X connect 0 0 2 0;
#X connect 1 0 2 1;
#X connect 2 0 1 0;
#X connect 2 0 17 0;
#X connect 3 0 0 0;
#X connect 3 1 4 0;
#X connect 4 0 2 1;
#X connect 5 0 3 0;
#X connect 6 0 8 0;
#X connect 7 0 8 1;
#X connect 8 0 7 0;
#X connect 8 0 16 0;
#X connect 9 0 5 1;
#X connect 10 0 12 0;
#X connect 10 1 8 1;
#X connect 11 0 12 1;
#X connect 12 0 14 0;
#X connect 13 0 10 0;
#X connect 14 0 15 0;
#X connect 15 0 6 0;
#X connect 16 0 20 0;
#X connect 17 0 13 0;
#X connect 17 1 16 1;
#X connect 18 0 5 0;
#X connect 20 0 19 0;
#X restore 46 176 pd get.all.duos;
#X obj 157 43 array define \$0-positions;
#N canvas 0 22 195 122 resize.arrays 0;
#X obj 8 35 array size \$0-angles;
#X obj 8 56 * 2;
#X obj 8 75 array size \$0-positions;
#X obj 8 11 inlet;
#X connect 1 0 2 0;
#X connect 3 0 0 0;
#X connect 3 0 1 0;
#X restore 125 108 pd resize.arrays;
#N canvas 0 22 450 405 fill.arrays 0;
#X obj 12 10 inlet;
#X obj 39 53 array set \$0-angles;
#X obj 12 32 t b l;
#X obj 12 150 until;
#X obj 64 172 + 1;
#X obj 12 172 f, f 7;
#X obj 12 128 t f b, f 7;
#X obj 51 150 f 0;
#X obj 12 107 f;
#X obj 27 85 r \$0-nangles;
#X obj 12 283 array set \$0-positions;
#X obj 12 214 array get \$0-angles;
#X obj 109 139 loadbang;
#X msg 109 161 1;
#X obj 12 194 t f f;
#X obj 76 262 * 2;
#N canvas 0 22 450 300 pol.to.car 0;
#X obj 34 95 t f f, f 8;
#X obj 34 28 inlet;
#X obj 34 169 pack f f;
#X obj 34 191 outlet;
#X obj 34 51 * 3.14159;
#X obj 34 73 / 180;
#X obj 34 117 sin;
#X obj 79 117 cos;
#X obj 34 139 * -1;
#X connect 0 0 6 0;
#X connect 0 1 7 0;
#X connect 1 0 4 0;
#X connect 2 0 3 0;
#X connect 4 0 5 0;
#X connect 5 0 0 0;
#X connect 6 0 8 0;
#X connect 7 0 2 1;
#X connect 8 0 2 0;
#X restore 12 238 pd pol.to.car;
#X connect 0 0 2 0;
#X connect 2 0 8 0;
#X connect 2 1 1 0;
#X connect 3 0 5 0;
#X connect 4 0 5 1;
#X connect 5 0 4 0;
#X connect 5 0 14 0;
#X connect 6 0 3 0;
#X connect 6 1 7 0;
#X connect 7 0 5 1;
#X connect 8 0 6 0;
#X connect 9 0 8 1;
#X connect 11 0 16 0;
#X connect 12 0 13 0;
#X connect 13 0 11 1;
#X connect 14 0 11 0;
#X connect 14 1 15 0;
#X connect 15 0 10 1;
#X connect 16 0 10 0;
#X restore 72 151 pd fill.arrays;
#N canvas 830 63 571 561 is.duo.valid 0;
#X obj 57 17 inlet;
#N canvas 0 22 259 357 get.other.indices 0;
#X obj 6 98 until;
#X obj 58 120 + 1;
#X obj 6 120 f, f 7;
#X obj 45 98 f 0;
#N canvas 0 22 182 163 filter 0;
#X obj 27 63 sel;
#X obj 42 85 sel;
#X obj 27 15 inlet;
#X obj 64 15 inlet;
#X obj 64 37 unpack f f;
#X obj 57 108 outlet;
#X connect 0 1 1 0;
#X connect 1 1 5 0;
#X connect 2 0 0 0;
#X connect 3 0 4 0;
#X connect 4 0 0 1;
#X connect 4 1 1 1;
#X restore 21 200 pd filter;
#X obj 6 10 inlet;
#X obj 6 33 t b l, f 9;
#X obj 21 222 outlet;
#X obj 33 54 inlet;
#X obj 6 172 sel;
#X obj 21 148 r \$0-nangles;
#X obj 6 242 outlet;
#X obj 6 76 t b b, f 10;
#X connect 0 0 2 0;
#X connect 1 0 2 1;
#X connect 2 0 1 0;
#X connect 2 0 9 0;
#X connect 3 0 2 1;
#X connect 4 0 7 0;
#X connect 5 0 6 0;
#X connect 6 0 12 0;
#X connect 6 1 4 1;
#X connect 8 0 0 1;
#X connect 9 0 0 1;
#X connect 9 0 11 0;
#X connect 9 1 4 0;
#X connect 10 0 9 1;
#X connect 12 0 0 0;
#X connect 12 1 3 0;
#X restore 57 60 pd get.other.indices;
#X obj 204 58 unpack f f, f 24;
#X obj 124 286 >, f 4;
#X obj 57 38 t l l, f 25;
#X obj 124 375 outlet;
#X obj 124 308 sel 0;
#X obj 124 330 t b b;
#X obj 124 352 f 0;
#X obj 57 312 f 1;
#X obj 128 82 loadbang;
#X obj 268 82 loadbang;
#X msg 268 104 2;
#X obj 409 82 loadbang;
#X msg 409 104 2;
#X obj 64 125 array get \$0-positions;
#X obj 204 125 array get \$0-positions;
#X obj 345 125 array get \$0-positions;
#X msg 128 104 2;
#X obj 204 80 * 2;
#X obj 345 81 * 2;
#X obj 64 83 * 2;
#N canvas 0 22 218 276 distance 0;
#X obj 37 37 inlet;
#X obj 37 59 unpack f f;
#X obj 37 101 -;
#X obj 107 37 inlet;
#X obj 107 59 unpack f f;
#X obj 94 101 -;
#X obj 37 123 t f f;
#X obj 37 145 *, f 5;
#X obj 94 123 t f f;
#X obj 94 145 *, f 5;
#X obj 37 167 +, f 10;
#X obj 37 189 sqrt;
#X obj 37 211 outlet;
#X connect 0 0 1 0;
#X connect 1 0 2 0;
#X connect 1 1 5 0;
#X connect 2 0 6 0;
#X connect 3 0 4 0;
#X connect 4 0 2 1;
#X connect 4 1 5 1;
#X connect 5 0 8 0;
#X connect 6 0 7 0;
#X connect 6 1 7 1;
#X connect 7 0 10 0;
#X connect 8 0 9 0;
#X connect 8 1 9 1;
#X connect 9 0 10 1;
#X connect 10 0 11 0;
#X connect 11 0 12 0;
#X restore 85 240 pd distance;
#N canvas 0 22 218 276 distance 0;
#X obj 37 37 inlet;
#X obj 37 59 unpack f f;
#X obj 37 101 -;
#X obj 107 37 inlet;
#X obj 107 59 unpack f f;
#X obj 94 101 -;
#X obj 37 123 t f f;
#X obj 37 145 *, f 5;
#X obj 94 123 t f f;
#X obj 94 145 *, f 5;
#X obj 37 167 +, f 10;
#X obj 37 189 sqrt;
#X obj 37 211 outlet;
#X connect 0 0 1 0;
#X connect 1 0 2 0;
#X connect 1 1 5 0;
#X connect 2 0 6 0;
#X connect 3 0 4 0;
#X connect 4 0 2 1;
#X connect 4 1 5 1;
#X connect 5 0 8 0;
#X connect 6 0 7 0;
#X connect 6 1 7 1;
#X connect 7 0 10 0;
#X connect 8 0 9 0;
#X connect 8 1 9 1;
#X connect 9 0 10 1;
#X connect 10 0 11 0;
#X connect 11 0 12 0;
#X restore 204 240 pd distance;
#X msg 149 14 1 3;
#N canvas 0 22 450 300 middle 0;
#X obj 37 37 inlet;
#X obj 37 59 unpack f f;
#X obj 107 37 inlet;
#X obj 107 59 unpack f f;
#X obj 37 211 outlet;
#X obj 37 101 +;
#X obj 94 101 +;
#X obj 37 123 / 2;
#X obj 94 123 / 2;
#X obj 37 145 pack f f, f 10;
#X connect 0 0 1 0;
#X connect 1 0 5 0;
#X connect 1 1 6 0;
#X connect 2 0 3 0;
#X connect 3 0 5 1;
#X connect 3 1 6 1;
#X connect 5 0 7 0;
#X connect 6 0 8 0;
#X connect 7 0 9 0;
#X connect 8 0 9 1;
#X connect 9 0 4 0;
#X restore 204 171 pd middle;
#X obj 345 147 t l l;
#X connect 0 0 4 0;
#X connect 1 0 9 0;
#X connect 1 1 21 0;
#X connect 2 0 19 0;
#X connect 2 1 20 0;
#X connect 3 0 6 0;
#X connect 4 0 1 0;
#X connect 4 1 2 0;
#X connect 6 0 7 0;
#X connect 7 0 8 0;
#X connect 7 1 1 1;
#X connect 8 0 5 0;
#X connect 9 0 5 0;
#X connect 10 0 18 0;
#X connect 11 0 12 0;
#X connect 12 0 16 1;
#X connect 13 0 14 0;
#X connect 14 0 17 1;
#X connect 15 0 22 0;
#X connect 16 0 25 0;
#X connect 17 0 26 0;
#X connect 18 0 15 1;
#X connect 19 0 16 0;
#X connect 20 0 17 0;
#X connect 21 0 15 0;
#X connect 22 0 3 0;
#X connect 23 0 3 1;
#X connect 24 0 4 0;
#X connect 25 0 22 1;
#X connect 25 0 23 0;
#X connect 26 0 25 1;
#X connect 26 1 23 1;
#X restore 91 221 pd is.duo.valid;
#X obj 46 198 t l l, f 8;
#X obj 46 245 spigot 0;
#N canvas 0 22 450 300 compute.mat 1;
#X obj 17 15 inlet;
#X obj 17 64 unpack f f, f 12;
#X obj 17 108 array get \$0-positions;
#X obj 86 128 array get \$0-positions;
#X obj 17 86 * 2;
#X obj 86 86 * 2;
#N canvas 0 22 450 300 mat.inv 0;
#X obj 25 193 *;
#X obj 56 193 *;
#X obj 87 193 *;
#X obj 118 193 *;
#X obj 25 215 pack f f f f, f 16;
#N canvas 0 22 314 241 det.A 0;
#X obj 30 77 *;
#X obj 69 77 *;
#X obj 30 101 -, f 7;
#X msg 30 123 1 \$1;
#X obj 30 145 /;
#X obj 30 34 unpack f f f f;
#X obj 30 13 inlet;
#X obj 30 167 outlet;
#X text 83 105 det(A) = 1/(A11xA22-A12*A21);
#X connect 0 0 2 0;
#X connect 1 0 2 1;
#X connect 2 0 3 0;
#X connect 3 0 4 0;
#X connect 4 0 7 0;
#X connect 5 0 0 0;
#X connect 5 1 1 0;
#X connect 5 2 1 1;
#X connect 5 3 0 1;
#X connect 6 0 5 0;
#X restore 52 118 pd det.A;
#X obj 25 34 t l l;
#X obj 25 56 unpack f f f f, f 16;
#X obj 87 93 * -1;
#X obj 56 93 * -1;
#X obj 25 9 inlet;
#X obj 25 237 outlet;
#X obj 168 153 abs;
#X obj 168 200 print vbap 3d matrix inversion failed;
#X obj 168 176 moses 1e-07;
#X connect 0 0 4 0;
#X connect 1 0 4 1;
#X connect 2 0 4 2;
#X connect 3 0 4 3;
#X connect 4 0 11 0;
#X connect 5 0 3 1;
#X connect 5 0 0 1;
#X connect 5 0 1 1;
#X connect 5 0 2 1;
#X connect 5 0 12 0;
#X connect 6 0 7 0;
#X connect 6 1 5 0;
#X connect 7 0 0 0;
#X connect 7 1 9 0;
#X connect 7 2 8 0;
#X connect 7 3 3 0;
#X connect 8 0 2 0;
#X connect 9 0 1 0;
#X connect 10 0 6 0;
#X connect 12 0 14 0;
#X connect 14 0 13 0;
#X restore 17 172 pd mat.inv;
#X obj 17 150 list append, f 12;
#X obj 17 194 outlet;
#X obj 17 37 t l l;
#X obj 150 51 loadbang;
#X msg 150 73 2;
#X connect 0 0 9 0;
#X connect 1 0 4 0;
#X connect 1 1 5 0;
#X connect 2 0 7 0;
#X connect 3 0 7 1;
#X connect 4 0 2 0;
#X connect 5 0 3 0;
#X connect 6 0 8 0;
#X connect 7 0 6 0;
#X connect 9 0 1 0;
#X connect 10 0 11 0;
#X connect 11 0 2 1;
#X connect 11 0 3 1;
#X restore 46 288 pd compute.mat;
#X obj 46 267 t l l, f 11;
#N canvas 0 22 450 300 to.list 0;
#X obj 118 54 list;
#X obj 25 75 list;
#X obj 25 9 inlet;
#X obj 64 9 inlet;
#X obj 109 9 inlet;
#X obj 109 31 bang;
#X obj 25 97 outlet;
#X obj 46 54 list prepend;
#X connect 0 0 7 1;
#X connect 1 0 6 0;
#X connect 2 0 1 0;
#X connect 3 0 7 0;
#X connect 4 0 5 0;
#X connect 5 0 7 1;
#X connect 7 0 0 0;
#X connect 7 0 1 1;
#X restore 89 373 pd to.list;
#N canvas 0 22 450 300 to.list 0;
#X obj 125 54 list;
#X obj 25 75 list;
#X obj 25 9 inlet;
#X obj 64 9 inlet;
#X obj 115 9 inlet;
#X obj 115 31 bang;
#X obj 25 97 outlet;
#X obj 46 54 list prepend;
#X connect 0 0 7 1;
#X connect 1 0 6 0;
#X connect 2 0 1 0;
#X connect 3 0 7 0;
#X connect 4 0 5 0;
#X connect 5 0 7 1;
#X connect 7 0 0 0;
#X connect 7 0 1 1;
#X restore 20 373 pd to.list;
#X obj 20 535 outlet;
#X obj 20 44 t b b l l b, f 18;
#X obj 20 341 t b b, f 12;
#X msg 46 310 \$4 \$3 \$2 \$1;
#X msg 164 402 nls \$1;
#X obj 164 376 r \$0-nangles;
#X obj 89 428 list prepend indices;
#X obj 89 450 list trim;
#X obj 20 500 list trim;
#X obj 20 478 list prepend matrices;
#X connect 0 0 17 0;
#X connect 1 0 2 0;
#X connect 2 0 4 0;
#X connect 2 1 7 0;
#X connect 5 0 10 0;
#X connect 9 0 11 1;
#X connect 10 0 11 0;
#X connect 10 1 9 0;
#X connect 11 0 13 0;
#X connect 12 0 19 0;
#X connect 13 0 12 0;
#X connect 13 1 14 1;
#X connect 14 0 22 0;
#X connect 15 0 25 0;
#X connect 17 0 18 0;
#X connect 17 1 5 0;
#X connect 17 2 8 0;
#X connect 17 3 1 0;
#X connect 17 4 14 2;
#X connect 17 4 15 2;
#X connect 18 0 15 0;
#X connect 18 1 14 0;
#X connect 19 0 15 1;
#X connect 20 0 16 0;
#X connect 21 0 20 0;
#X connect 22 0 23 0;
#X connect 23 0 16 0;
#X connect 24 0 16 0;
#X connect 25 0 24 0;
