#N canvas 327 410 299 263 10;
#X obj 63 151 +;
#X obj 16 221 outlet;
#X obj 94 151 -;
#X obj 81 107 * 0.25;
#X obj 124 151 +;
#X obj 155 151 -;
#X obj 142 107 * 0.5;
#X obj 185 151 +;
#X obj 216 151 -;
#X obj 111 7 inlet spread;
#X obj 16 8 inlet angle;
#X connect 0 0 1 0;
#X connect 2 0 1 0;
#X connect 3 0 0 1;
#X connect 3 0 2 1;
#X connect 4 0 1 0;
#X connect 5 0 1 0;
#X connect 6 0 4 1;
#X connect 6 0 5 1;
#X connect 7 0 1 0;
#X connect 8 0 1 0;
#X connect 9 0 8 1;
#X connect 9 0 7 1;
#X connect 9 0 6 0;
#X connect 9 0 3 0;
#X connect 10 0 1 0;
#X connect 10 0 0 0;
#X connect 10 0 2 0;
#X connect 10 0 4 0;
#X connect 10 0 5 0;
#X connect 10 0 7 0;
#X connect 10 0 8 0;
