#N canvas 327 410 268 257 10;
#X obj 21 7 inlet gains;
#X obj 48 51 unpack f f;
#X obj 78 141 +;
#X obj 105 75 outlet;
#X obj 48 181 outlet;
#X obj 109 141 -;
#X obj 93 97 * 0.25;
#X obj 139 141 +;
#X obj 170 141 -;
#X obj 154 97 * 0.5;
#X obj 200 141 +;
#X obj 231 141 -;
#X obj 21 29 t b l;
#X obj 21 211 outlet;
#X connect 0 0 12 0;
#X connect 1 0 4 0;
#X connect 1 0 2 0;
#X connect 1 0 5 0;
#X connect 1 0 7 0;
#X connect 1 0 8 0;
#X connect 1 0 10 0;
#X connect 1 0 11 0;
#X connect 1 1 3 0;
#X connect 1 1 6 0;
#X connect 1 1 9 0;
#X connect 1 1 11 1;
#X connect 1 1 10 1;
#X connect 2 0 4 0;
#X connect 5 0 4 0;
#X connect 6 0 2 1;
#X connect 6 0 5 1;
#X connect 7 0 4 0;
#X connect 8 0 4 0;
#X connect 9 0 7 1;
#X connect 9 0 8 1;
#X connect 10 0 4 0;
#X connect 11 0 4 0;
#X connect 12 0 13 0;
#X connect 12 1 1 0;
