#N canvas 148 386 704 379 10;
#X obj 38 34 env~;
#X msg 240 195 color \$1 \$1;
#X msg 83 195 color \$1 \$1;
#X obj 83 106 >= 83.3333;
#X obj 83 170 * 14;
#X obj 38 76 outlet;
#X obj 240 170 * 26;
#X obj 160 170 * 15;
#X obj 320 170 * 1;
#X msg 12 260 color \$1 \$1;
#X obj 12 208 f, f 5;
#X obj 12 177 f 1;
#X obj 12 235 * 13;
#X obj 12 111 >= 100;
#X obj 12 155 sel 1 0, f 10;
#X obj 40 177 f 0;
#X obj 240 106 >= 33.3333;
#X obj 160 106 >= 58.3333;
#X msg 320 195 color \$1;
#X obj 38 13 inlet~;
#X obj 320 221 s \$1;
#X obj 240 221 s \$1;
#X msg 160 195 color \$1 \$1;
#X obj 160 221 s \$1;
#X obj 83 221 s \$1;
#X obj 12 286 s \$1;
#X obj 68 56 t f f f f f;
#X obj 320 106 >= 0;
#X obj 83 128 sel 1;
#X obj 83 150 f 1;
#X obj 160 128 sel 1;
#X obj 160 150 f 1;
#X obj 240 128 sel 1;
#X obj 240 150 f 1;
#X obj 320 128 sel 1;
#X obj 320 150 f 1;
#X connect 0 0 5 0;
#X connect 0 0 26 0;
#X connect 1 0 21 0;
#X connect 2 0 24 0;
#X connect 3 0 28 0;
#X connect 4 0 2 0;
#X connect 6 0 1 0;
#X connect 7 0 22 0;
#X connect 8 0 18 0;
#X connect 9 0 25 0;
#X connect 10 0 12 0;
#X connect 11 0 10 0;
#X connect 12 0 9 0;
#X connect 13 0 14 0;
#X connect 14 0 11 0;
#X connect 14 1 15 0;
#X connect 15 0 10 1;
#X connect 16 0 32 0;
#X connect 17 0 30 0;
#X connect 18 0 20 0;
#X connect 19 0 0 0;
#X connect 22 0 23 0;
#X connect 26 0 13 0;
#X connect 26 1 3 0;
#X connect 26 2 17 0;
#X connect 26 3 16 0;
#X connect 26 4 27 0;
#X connect 27 0 34 0;
#X connect 28 0 29 0;
#X connect 29 0 4 0;
#X connect 30 0 31 0;
#X connect 31 0 7 0;
#X connect 32 0 33 0;
#X connect 33 0 6 0;
#X connect 34 0 35 0;
#X connect 35 0 8 0;
