#N canvas 438 272 838 407 10;
#X obj 127 72 env~;
#X obj 127 35 inlet~;
#X obj 102 104 cnv 4 12 4 empty \$0-over empty 20 12 0 14 -262144 -262144
0;
#X obj 102 110 cnv 4 12 4 empty \$0-hot3 empty 20 12 0 14 -262144 -262144
0;
#X obj 102 116 cnv 4 12 4 empty \$0-hot2 empty 20 12 0 14 -262144 -262144
0;
#X obj 102 122 cnv 4 12 4 empty \$0-hot1 empty 20 12 0 14 -262144 -262144
0;
#X obj 102 146 cnv 4 12 4 empty \$0-tepid3 empty 20 12 0 14 -262144
-262144 0;
#X obj 102 152 cnv 4 12 4 empty \$0-tepid2 empty 20 12 0 14 -262144
-262144 0;
#X obj 102 158 cnv 4 12 4 empty \$0-tepid1 empty 20 12 0 14 -262144
-262144 0;
#X obj 102 128 cnv 4 12 4 empty \$0-warm3 empty 20 12 0 14 -262144
-262144 0;
#X obj 102 134 cnv 4 12 4 empty \$0-warm2 empty 20 12 0 14 -262144
-262144 0;
#X obj 102 140 cnv 4 12 4 empty \$0-warm1 empty 20 12 0 14 -262144
-262144 0;
#X obj 102 164 cnv 4 12 4 empty \$0-cold3 empty 20 12 0 14 -262144
-262144 0;
#X obj 147 166 change;
#X obj 147 239 s \$0-cold1;
#X obj 227 166 change;
#X msg 227 213 color \$1 \$1;
#X obj 227 239 s \$0-cold2;
#X obj 308 166 change;
#X msg 308 213 color \$1 \$1;
#X obj 308 239 s \$0-cold3;
#X obj 147 286 change;
#X msg 147 333 color \$1 \$1;
#X obj 227 286 change;
#X msg 227 333 color \$1 \$1;
#X obj 308 286 change;
#X msg 308 333 color \$1 \$1;
#X obj 387 166 change;
#X msg 387 213 color \$1 \$1;
#X obj 467 166 change;
#X msg 467 213 color \$1 \$1;
#X obj 548 166 change;
#X msg 548 213 color \$1 \$1;
#X obj 387 286 change;
#X msg 387 333 color \$1 \$1;
#X obj 467 286 change;
#X msg 467 333 color \$1 \$1;
#X obj 548 286 change;
#X msg 548 333 color \$1 \$1;
#X obj 147 359 s \$0-warm1;
#X obj 227 359 s \$0-warm2;
#X obj 308 359 s \$0-warm3;
#X obj 387 239 s \$0-tepid1;
#X obj 467 239 s \$0-tepid2;
#X obj 548 239 s \$0-tepid3;
#X obj 387 359 s \$0-hot1;
#X obj 467 359 s \$0-hot2;
#X obj 548 359 s \$0-hot3;
#X obj 387 308 * 14;
#X obj 467 308 * 14;
#X obj 548 308 * 14;
#X obj 227 308 * 15;
#X obj 308 308 * 15;
#X obj 127 104 outlet;
#X obj 387 188 * 26;
#X obj 467 188 * 26;
#X obj 548 188 * 26;
#X obj 147 308 * 15;
#X obj 308 188 * 1;
#X obj 227 188 * 1;
#X obj 147 188 * 1;
#X obj 649 166 change;
#X msg 649 293 color \$1 \$1;
#X obj 649 319 s \$0-over;
#X obj 649 241 f, f 5;
#X obj 649 210 f 1;
#X obj 649 268 * 13;
#X obj 649 144 >= 100;
#X obj 649 188 sel 1 0, f 10;
#X obj 709 210 delay 500;
#X obj 677 210 f 0;
#N canvas 0 22 450 300 (subpatch) 0;
#X coords 0 -1 1 1 12 4 2 100 100;
#X restore 102 104 pd;
#N canvas 0 22 450 300 (subpatch) 0;
#X coords 0 -1 1 1 12 4 2 100 100;
#X restore 102 110 pd;
#N canvas 0 22 450 300 (subpatch) 0;
#X coords 0 -1 1 1 12 4 2 100 100;
#X restore 102 116 pd;
#N canvas 0 22 450 300 (subpatch) 0;
#X coords 0 -1 1 1 12 4 2 100 100;
#X restore 102 122 pd;
#N canvas 0 22 450 300 (subpatch) 0;
#X coords 0 -1 1 1 12 4 2 100 100;
#X restore 102 128 pd;
#N canvas 0 22 450 300 (subpatch) 0;
#X coords 0 -1 1 1 12 4 2 100 100;
#X restore 102 134 pd;
#N canvas 0 22 450 300 (subpatch) 0;
#X coords 0 -1 1 1 12 4 2 100 100;
#X restore 102 140 pd;
#N canvas 0 22 450 300 (subpatch) 0;
#X coords 0 -1 1 1 12 4 2 100 100;
#X restore 102 146 pd;
#N canvas 0 22 450 300 (subpatch) 0;
#X coords 0 -1 1 1 12 4 2 100 100;
#X restore 102 152 pd;
#N canvas 0 22 450 300 (subpatch) 0;
#X coords 0 -1 1 1 12 4 2 100 100;
#X restore 102 158 pd;
#N canvas 0 22 450 300 (subpatch) 0;
#X coords 0 -1 1 1 12 4 2 100 100;
#X restore 102 164 pd;
#X msg 147 213 color \$1;
#X obj 147 144 >= 62.2222;
#X obj 227 144 >= 65.5556;
#X obj 308 144 >= 68.8889;
#X obj 387 144 >= 72.2222;
#X obj 467 144 >= 75.5556;
#X obj 548 144 >= 78.8889;
#X obj 147 264 >= 82.2222;
#X obj 227 264 >= 85.5556;
#X obj 308 264 >= 88.8889;
#X obj 387 264 >= 92.2222;
#X obj 467 264 >= 95.5556;
#X obj 548 264 >= 98.8889;
#X obj 102 170 cnv 4 12 4 empty \$0-cold2 empty 20 12 0 14 -262144
-262144 0;
#X obj 102 176 cnv 4 12 4 empty \$0-cold1 empty 20 12 0 14 -262144
-262144 0;
#N canvas 0 22 450 300 (subpatch) 0;
#X coords 0 -1 1 1 12 4 2 100 100;
#X restore 102 170 pd;
#N canvas 0 22 450 300 (subpatch) 0;
#X coords 0 -1 1 1 12 4 2 100 100;
#X restore 102 176 pd;
#X connect 0 0 53 0;
#X connect 0 0 67 0;
#X connect 0 0 84 0;
#X connect 0 0 85 0;
#X connect 0 0 86 0;
#X connect 0 0 87 0;
#X connect 0 0 88 0;
#X connect 0 0 89 0;
#X connect 0 0 90 0;
#X connect 0 0 91 0;
#X connect 0 0 92 0;
#X connect 0 0 93 0;
#X connect 0 0 94 0;
#X connect 0 0 83 0;
#X connect 1 0 0 0;
#X connect 13 0 60 0;
#X connect 15 0 59 0;
#X connect 16 0 17 0;
#X connect 18 0 58 0;
#X connect 19 0 20 0;
#X connect 21 0 57 0;
#X connect 22 0 39 0;
#X connect 23 0 51 0;
#X connect 24 0 40 0;
#X connect 25 0 52 0;
#X connect 26 0 41 0;
#X connect 27 0 54 0;
#X connect 28 0 42 0;
#X connect 29 0 55 0;
#X connect 30 0 43 0;
#X connect 31 0 56 0;
#X connect 32 0 44 0;
#X connect 33 0 48 0;
#X connect 34 0 45 0;
#X connect 35 0 49 0;
#X connect 36 0 46 0;
#X connect 37 0 50 0;
#X connect 38 0 47 0;
#X connect 48 0 34 0;
#X connect 49 0 36 0;
#X connect 50 0 38 0;
#X connect 51 0 24 0;
#X connect 52 0 26 0;
#X connect 54 0 28 0;
#X connect 55 0 30 0;
#X connect 56 0 32 0;
#X connect 57 0 22 0;
#X connect 58 0 19 0;
#X connect 59 0 16 0;
#X connect 60 0 82 0;
#X connect 61 0 68 0;
#X connect 62 0 63 0;
#X connect 64 0 66 0;
#X connect 65 0 64 0;
#X connect 66 0 62 0;
#X connect 67 0 61 0;
#X connect 68 0 65 0;
#X connect 68 1 69 0;
#X connect 68 1 70 0;
#X connect 69 0 64 0;
#X connect 70 0 64 1;
#X connect 82 0 14 0;
#X connect 83 0 13 0;
#X connect 84 0 15 0;
#X connect 85 0 18 0;
#X connect 86 0 27 0;
#X connect 87 0 29 0;
#X connect 88 0 31 0;
#X connect 89 0 21 0;
#X connect 90 0 23 0;
#X connect 91 0 25 0;
#X connect 92 0 33 0;
#X connect 93 0 35 0;
#X connect 94 0 37 0;
#X coords 0 -1 1 1 16 84 2 100 100;
