#N canvas 442 128 601 468 10;
#X obj 21 7 inlet gains;
#X obj 21 29 t b l;
#X obj 21 241 outlet;
#X obj 48 211 outlet;
#N canvas 0 22 536 504 elev 0;
#X obj 48 51 unpack f f f, f 15;
#X obj 164 266 +;
#X obj 195 266 -;
#X obj 179 222 * 0.25;
#X obj 225 266 +;
#X obj 256 266 -;
#X obj 240 222 * 0.5;
#X obj 286 266 +;
#X obj 32 334 pack f f;
#X obj 316 266 -;
#X obj 81 233 t f b;
#X obj 81 212 t f b;
#X obj 81 192 t f b;
#X obj 81 171 t f b;
#X obj 81 150 t f b;
#X obj 81 129 t f b;
#X obj 48 24 inlet;
#X obj 32 356 outlet;
#X connect 0 0 10 0;
#X connect 0 0 11 0;
#X connect 0 0 12 0;
#X connect 0 0 13 0;
#X connect 0 0 14 0;
#X connect 0 0 15 0;
#X connect 0 1 1 0;
#X connect 0 1 2 0;
#X connect 0 1 4 0;
#X connect 0 1 5 0;
#X connect 0 1 7 0;
#X connect 0 1 9 0;
#X connect 0 2 3 0;
#X connect 0 2 6 0;
#X connect 0 2 9 1;
#X connect 0 2 7 1;
#X connect 1 0 8 1;
#X connect 2 0 8 1;
#X connect 3 0 1 1;
#X connect 3 0 2 1;
#X connect 4 0 8 1;
#X connect 5 0 8 1;
#X connect 6 0 4 1;
#X connect 6 0 5 1;
#X connect 7 0 8 1;
#X connect 8 0 17 0;
#X connect 9 0 8 1;
#X connect 10 0 8 0;
#X connect 10 1 1 0;
#X connect 11 0 8 0;
#X connect 11 1 2 0;
#X connect 12 0 8 0;
#X connect 12 1 4 0;
#X connect 13 0 8 0;
#X connect 13 1 5 0;
#X connect 14 0 8 0;
#X connect 14 1 7 0;
#X connect 15 0 8 0;
#X connect 15 1 9 0;
#X connect 16 0 0 0;
#X restore 32 171 pd elev;
#X obj 49 85 list split 3;
#X obj 83 108 float;
#X obj 83 131 outlet;
#N canvas 0 22 331 305 azim 0;
#X obj 48 51 unpack f f f, f 15;
#X obj 24 176 +;
#X obj 55 176 -;
#X obj 39 132 * 0.25;
#X obj 85 176 +;
#X obj 116 176 -;
#X obj 100 132 * 0.5;
#X obj 146 176 +;
#X obj 32 244 pack f f;
#X obj 176 176 -;
#X obj 48 24 inlet;
#X obj 32 266 outlet;
#X connect 0 0 1 0;
#X connect 0 0 2 0;
#X connect 0 0 4 0;
#X connect 0 0 5 0;
#X connect 0 0 7 0;
#X connect 0 0 9 0;
#X connect 0 1 8 1;
#X connect 0 2 3 0;
#X connect 0 2 6 0;
#X connect 0 2 9 1;
#X connect 0 2 7 1;
#X connect 1 0 8 0;
#X connect 2 0 8 0;
#X connect 3 0 1 1;
#X connect 3 0 2 1;
#X connect 4 0 8 0;
#X connect 5 0 8 0;
#X connect 6 0 4 1;
#X connect 6 0 5 1;
#X connect 7 0 8 0;
#X connect 8 0 11 0;
#X connect 9 0 8 0;
#X connect 10 0 0 0;
#X restore 82 171 pd azim;
#X connect 0 0 1 0;
#X connect 1 0 2 0;
#X connect 1 1 4 0;
#X connect 1 1 3 0;
#X connect 1 1 5 0;
#X connect 1 1 8 0;
#X connect 4 0 3 0;
#X connect 5 1 6 0;
#X connect 6 0 7 0;
#X connect 8 0 3 0;
