#N canvas 307 184 536 388 10;
#X obj 21 7 inlet gains;
#X obj 273 79 outlet;
#X obj 21 29 t b l;
#X obj 21 301 outlet;
#X obj 48 51 unpack f f f, f 38;
#X obj 48 271 outlet;
#X obj 48 248 pack f f;
#X obj 162 133 virtual;
#X text 141 184 Here need to compute the coordinates of the 16 virtual
sources depending on the spread;
#X connect 0 0 2 0;
#X connect 2 0 3 0;
#X connect 2 1 4 0;
#X connect 4 2 1 0;
#X connect 4 2 7 2;
#X connect 6 0 5 0;
