#N canvas 543 354 424 325 10;
#X obj 190 15 inlet;
#X obj 29 15 inlet;
#X obj 92 15 inlet;
#X obj 190 153 * \$1;
#X obj 253 153 * \$2;
#X obj 190 37 t f f, f 11;
#X obj 190 177 cos;
#X obj 277 15 loadbang;
#X obj 277 37 t b b, f 11;
#X obj 277 59 f \$1;
#X obj 277 81 / 180;
#X obj 277 103 * 3.14159;
#X obj 340 81 / 180;
#X obj 340 103 * 3.14159;
#X obj 340 59 f \$2;
#X obj 253 175 sin;
#X obj 283 175 cos;
#X obj 221 177 sin;
#X obj 190 209 *;
#X obj 221 209 *;
#X obj 34 251;
#X obj 29 38 / 180;
#X obj 29 60 * 3.14159;
#X obj 92 38 / 180;
#X obj 92 60 * 3.14159;
#X obj 29 82 cos;
#X obj 55 82 sin;
#X obj 92 82 cos;
#X obj 118 82 sin;
#X connect 0 0 5 0;
#X connect 1 0 21 0;
#X connect 2 0 23 0;
#X connect 3 0 6 0;
#X connect 3 0 17 0;
#X connect 4 0 15 0;
#X connect 4 0 16 0;
#X connect 5 0 3 0;
#X connect 5 1 4 0;
#X connect 6 0 18 0;
#X connect 7 0 8 0;
#X connect 8 0 9 0;
#X connect 8 1 14 0;
#X connect 9 0 10 0;
#X connect 10 0 11 0;
#X connect 11 0 3 1;
#X connect 12 0 13 0;
#X connect 13 0 4 1;
#X connect 14 0 12 0;
#X connect 15 0 18 1;
#X connect 15 0 19 1;
#X connect 17 0 19 0;
#X connect 21 0 22 0;
#X connect 22 0 25 0;
#X connect 22 0 26 0;
#X connect 23 0 24 0;
#X connect 24 0 27 0;
#X connect 24 0 28 0;
