#N canvas 334 282 188 199 10;
#X obj 8 8 inlet;
#X obj 8 154 outlet;
#X obj 8 130 list, f 5;
#X obj 8 103 t b l;
#X obj 8 80 route list bang;
#X obj 8 32 route text array, f 25;
#N canvas 0 22 117 140 get.array 0;
#X obj 16 11 inlet;
#X obj 16 54 t b s, f 10;
#X obj 16 33 symbol;
#X obj 16 75 array get, f 10;
#X obj 16 97 outlet;
#X connect 0 0 2 0;
#X connect 1 0 3 0;
#X connect 1 1 3 2;
#X connect 2 0 1 0;
#X connect 3 0 4 0;
#X restore 81 53 pd get.array;
#N canvas 0 22 129 207 get.text 0;
#X obj 8 101 text search \$1, f 15;
#X obj 8 123 text get \$1, f 12;
#X obj 8 145 list split 1, f 13;
#X obj 8 53 t b s, f 15;
#X obj 8 31 unpack s s;
#X obj 8 75 symbol, f 10;
#X obj 8 11 inlet;
#X obj 8 167 outlet;
#X connect 0 0 1 0;
#X connect 1 0 2 0;
#X connect 2 0 7 0;
#X connect 3 0 5 0;
#X connect 3 1 0 1;
#X connect 3 1 1 3;
#X connect 4 0 3 0;
#X connect 4 1 5 1;
#X connect 5 0 0 0;
#X connect 6 0 4 0;
#X restore 8 53 pd get.text;
#N canvas 0 22 450 300 get.args 0;
#X obj 14 8 loadbang;
#N canvas 0 22 450 300 has.sym.arg 0;
#X obj 21 17 inlet;
#X obj 21 39 symbol \$1;
#X msg 21 61 \$1;
#X obj 21 82 route \$1;
#X obj 21 126 outlet;
#X msg 21 104 1;
#X msg 66 104 0;
#X connect 0 0 1 0;
#X connect 1 0 2 0;
#X connect 2 0 3 0;
#X connect 3 0 5 0;
#X connect 3 1 6 0;
#X connect 5 0 4 0;
#X connect 6 0 4 0;
#X restore 95 50 pd has.sym.arg;
#X obj 14 110 pack s s s;
#X obj 14 50 symbol \$1;
#X obj 42 70 symbol \$2;
#X obj 71 90 symbol \$3;
#X obj 14 29 t b b b b, f 14;
#X obj 14 132 spigot 0, f 14;
#X obj 14 154 outlet;
#X connect 0 0 6 0;
#X connect 1 0 7 1;
#X connect 2 0 7 0;
#X connect 3 0 2 0;
#X connect 4 0 2 1;
#X connect 5 0 2 2;
#X connect 6 0 3 0;
#X connect 6 1 4 0;
#X connect 6 2 5 0;
#X connect 6 3 1 0;
#X connect 7 0 8 0;
#X restore 47 8 pd get.args;
#X connect 0 0 5 0;
#X connect 2 0 1 0;
#X connect 3 0 2 0;
#X connect 3 1 2 1;
#X connect 4 0 3 0;
#X connect 4 1 2 0;
#X connect 5 0 7 0;
#X connect 5 1 6 0;
#X connect 5 2 4 0;
#X connect 6 0 4 0;
#X connect 7 0 4 0;
#X connect 8 0 5 0;
