#N canvas 0 22 125 178 10;
#X obj 21 17 inlet;
#X obj 21 39 symbol \$1;
#X msg 21 61 \$1;
#X obj 21 82 route \$1;
#X obj 21 126 outlet;
#X msg 21 104 1;
#X msg 66 104 0;
#X connect 0 0 1 0;
#X connect 1 0 2 0;
#X connect 2 0 3 0;
#X connect 3 0 5 0;
#X connect 3 1 6 0;
#X connect 5 0 4 0;
#X connect 6 0 4 0;
