#N canvas 540 216 157 300 10;
#X obj 20 12 inlet;
#X obj 20 247 outlet;
#X obj 20 34 unpack f f;
#X obj 77 57 t f f f;
#X obj 20 57 t f f f;
#X obj 77 79 *, f 4;
#X obj 20 79 *, f 4;
#X obj 20 101 +, f 10;
#X obj 20 123 sqrt;
#X obj 20 159 t b f b f, f 11;
#X obj 20 201 /, f 4;
#X obj 65 201 /, f 4;
#X obj 20 223 pack f f;
#X obj 20 181 f;
#X connect 0 0 2 0;
#X connect 2 0 4 0;
#X connect 2 1 3 0;
#X connect 3 0 5 0;
#X connect 3 1 5 1;
#X connect 3 2 11 0;
#X connect 4 0 6 0;
#X connect 4 1 6 1;
#X connect 4 2 13 1;
#X connect 5 0 7 1;
#X connect 6 0 7 0;
#X connect 7 0 8 0;
#X connect 8 0 9 0;
#X connect 9 0 13 0;
#X connect 9 1 10 1;
#X connect 9 2 11 0;
#X connect 9 3 11 1;
#X connect 10 0 12 0;
#X connect 11 0 12 1;
#X connect 12 0 1 0;
#X connect 13 0 10 0;
