#N canvas 540 216 241 284 10;
#X obj 20 12 inlet;
#X obj 110 12 inlet;
#X obj 20 98 *;
#X obj 47 98 *;
#X obj 20 120 +, f 5;
#X obj 77 98 *;
#X obj 104 98 *;
#X obj 77 120 +, f 5;
#X obj 20 34 unpack f f;
#X obj 110 34 unpack f f f f;
#X obj 20 142 pack f f;
#X obj 20 164 outlet;
#X obj 20 56 t f f;
#X connect 0 0 8 0;
#X connect 1 0 9 0;
#X connect 2 0 4 0;
#X connect 3 0 4 1;
#X connect 4 0 10 0;
#X connect 5 0 7 0;
#X connect 6 0 7 1;
#X connect 7 0 10 1;
#X connect 8 0 12 0;
#X connect 8 1 3 0;
#X connect 8 1 6 0;
#X connect 9 0 2 1;
#X connect 9 1 3 1;
#X connect 9 2 5 1;
#X connect 9 3 6 1;
#X connect 10 0 11 0;
#X connect 12 0 2 0;
#X connect 12 1 5 0;
