#N canvas 780 374 343 257 10;
#X obj 20 32 unpack f f;
#X obj 20 76 t b f;
#X obj 84 53 unpack f f;
#X obj 20 140 outlet;
#X obj 77 76 array set \$1, f 22;
#X obj 47 97 array set \$1, f 13;
#X obj 20 118 array get \$1;
#X obj 20 9 inlet;
#X obj 84 9 inlet;
#X connect 0 0 1 0;
#X connect 0 1 4 0;
#X connect 1 0 6 0;
#X connect 1 1 5 0;
#X connect 2 0 5 1;
#X connect 2 1 4 1;
#X connect 6 0 3 0;
#X connect 7 0 0 0;
#X connect 8 0 2 0;
