#N canvas 0 22 255 261 10;
#X obj 21 12 inlet;
#X obj 111 12 inlet;
#X obj 21 34 unpack f f f, f 13;
#X obj 111 34 unpack f f f, f 13;
#X obj 21 66 -;
#X obj 60 66 -;
#X obj 99 66 -;
#X obj 21 88 t f f;
#X obj 21 110 *, f 5;
#X obj 60 88 t f f;
#X obj 60 110 *, f 5;
#X obj 99 88 t f f;
#X obj 99 110 *, f 5;
#X obj 60 132 +, f 7;
#X obj 21 154 +, f 7;
#X obj 21 176 sqrt;
#X obj 21 198 outlet;
#X connect 0 0 2 0;
#X connect 1 0 3 0;
#X connect 2 0 4 0;
#X connect 2 1 5 0;
#X connect 2 2 6 0;
#X connect 3 0 4 1;
#X connect 3 1 5 1;
#X connect 3 2 6 1;
#X connect 4 0 7 0;
#X connect 5 0 9 0;
#X connect 6 0 11 0;
#X connect 7 0 8 0;
#X connect 7 1 8 1;
#X connect 8 0 14 0;
#X connect 9 0 10 0;
#X connect 9 1 10 1;
#X connect 10 0 13 0;
#X connect 11 0 12 0;
#X connect 11 1 12 1;
#X connect 12 0 13 1;
#X connect 13 0 14 1;
#X connect 14 0 15 0;
#X connect 15 0 16 0;
