#N canvas 540 216 253 356 10;
#X obj 20 12 inlet;
#X obj 20 255 outlet;
#X obj 78 79 *, f 5;
#X obj 20 79 *, f 5;
#X obj 20 101 +, f 10;
#X obj 20 143 sqrt;
#X obj 20 209 /, f 5;
#X obj 78 209 /, f 5;
#X obj 20 34 unpack f f f, f 20;
#X obj 20 231 pack f f f, f 20;
#X obj 137 209 /, f 5;
#X obj 137 79 *, f 5;
#X obj 20 189 f, f 5;
#X obj 20 167 t b f b f b f, f 25;
#X obj 20 123 +, f 20;
#X obj 78 189 f, f 5;
#X obj 137 189 f, f 5;
#X obj 78 57 t f f;
#X obj 137 57 t f f;
#X obj 20 57 t f f;
#X connect 0 0 8 0;
#X connect 2 0 4 1;
#X connect 3 0 4 0;
#X connect 4 0 14 0;
#X connect 5 0 13 0;
#X connect 6 0 9 0;
#X connect 7 0 9 1;
#X connect 8 0 19 0;
#X connect 8 1 17 0;
#X connect 8 2 18 0;
#X connect 9 0 1 0;
#X connect 10 0 9 2;
#X connect 11 0 14 1;
#X connect 12 0 6 0;
#X connect 13 0 12 0;
#X connect 13 1 6 1;
#X connect 13 2 15 0;
#X connect 13 3 7 1;
#X connect 13 4 16 0;
#X connect 13 5 10 1;
#X connect 14 0 5 0;
#X connect 15 0 7 0;
#X connect 16 0 10 0;
#X connect 17 0 2 0;
#X connect 17 1 2 1;
#X connect 17 1 15 1;
#X connect 18 0 11 0;
#X connect 18 1 11 1;
#X connect 18 1 16 1;
#X connect 19 0 3 0;
#X connect 19 1 3 1;
#X connect 19 1 12 1;
