#N canvas 540 216 241 306 10;
#X obj 20 12 inlet;
#X obj 20 277 outlet;
#X obj 77 57 t f f f;
#X obj 20 57 t f f f;
#X obj 77 79 *, f 4;
#X obj 20 79 *, f 4;
#X obj 20 101 +, f 10;
#X obj 20 153 sqrt;
#X obj 20 231 /, f 4;
#X obj 62 231 /, f 4;
#X obj 20 34 unpack f f f;
#X obj 20 253 pack f f f;
#X obj 102 231 /, f 4;
#X obj 137 57 t f f f;
#X obj 137 79 *, f 4;
#X obj 20 211 f;
#X obj 20 189 t b f b f b f;
#X obj 20 123 +, f 20;
#X connect 0 0 10 0;
#X connect 2 0 4 0;
#X connect 2 1 4 1;
#X connect 2 2 9 0;
#X connect 3 0 5 0;
#X connect 3 1 5 1;
#X connect 3 2 15 1;
#X connect 4 0 6 1;
#X connect 5 0 6 0;
#X connect 6 0 17 0;
#X connect 7 0 16 0;
#X connect 8 0 11 0;
#X connect 9 0 11 1;
#X connect 10 0 3 0;
#X connect 10 1 2 0;
#X connect 10 2 13 0;
#X connect 11 0 1 0;
#X connect 12 0 11 2;
#X connect 13 0 14 0;
#X connect 13 1 14 1;
#X connect 14 0 12 0;
#X connect 14 0 17 1;
#X connect 15 0 8 0;
#X connect 16 0 15 0;
#X connect 16 1 8 1;
#X connect 16 2 9 0;
#X connect 16 3 9 1;
#X connect 16 4 12 0;
#X connect 16 5 12 1;
#X connect 17 0 7 0;
