#N canvas 271 33 409 788 10;
#X obj 24 101 f;
#X obj 24 135 until;
#X obj 77 157 + 1;
#X obj 24 157 f, f 7;
#X obj 63 135 f 0;
#X obj 24 8 inlet;
#X obj 24 314 until;
#X obj 76 336 + 1;
#X obj 24 336 f, f 7;
#X obj 64 314 + 1;
#X obj 24 179 t f f f, f 14;
#X obj 24 272 f;
#X obj 24 201 t b f;
#X obj 24 294 -, f 5;
#X obj 24 534 until;
#X obj 76 556 + 1;
#X obj 24 556 f, f 7;
#X obj 64 534 + 1;
#X obj 24 379 t f f f, f 14;
#X obj 24 472 f;
#X obj 24 401 t b f;
#X obj 24 514 -, f 5;
#X obj 24 609 pack f f f, f 28;
#X msg 24 640 \$3 \$2 \$1;
#X obj 115 720 + 1;
#X obj 87 720 f;
#X obj 24 662 t l b, f 11;
#X obj 24 741 outlet;
#X obj 87 742 outlet;
#X text 153 8 For i : 0 -> nloudspeakers;
#X text 163 28 For j : i+1 -> nloudspeakers;
#X text 173 48 For k : j+1 -> nloudspeakers;
#X obj 63 8 inlet;
#X obj 24 30 t b b;
#X obj 102 675 r \$0-init;
#X obj 102 697 f 0;
#X obj 51 54 s \$0-init;
#X obj 63 30 s \$0-maxval;
#X obj 39 78 r \$0-maxval;
#X obj 39 227 r \$0-maxval;
#X obj 39 249 - 1;
#X obj 39 426 r \$0-maxval;
#X obj 39 448 - 1;
#X obj 63 114 r \$0-init;
#X connect 0 0 1 0;
#X connect 1 0 3 0;
#X connect 2 0 3 1;
#X connect 3 0 2 0;
#X connect 3 0 10 0;
#X connect 4 0 3 1;
#X connect 5 0 33 0;
#X connect 6 0 8 0;
#X connect 7 0 8 1;
#X connect 8 0 7 0;
#X connect 8 0 18 0;
#X connect 9 0 8 1;
#X connect 10 0 12 0;
#X connect 10 1 9 0;
#X connect 10 2 22 2;
#X connect 11 0 13 0;
#X connect 12 0 11 0;
#X connect 12 1 13 1;
#X connect 13 0 6 0;
#X connect 14 0 16 0;
#X connect 15 0 16 1;
#X connect 16 0 15 0;
#X connect 16 0 22 0;
#X connect 17 0 16 1;
#X connect 18 0 20 0;
#X connect 18 1 17 0;
#X connect 18 2 22 1;
#X connect 19 0 21 0;
#X connect 20 0 19 0;
#X connect 20 1 21 1;
#X connect 21 0 14 0;
#X connect 22 0 23 0;
#X connect 23 0 26 0;
#X connect 24 0 25 1;
#X connect 25 0 24 0;
#X connect 25 0 28 0;
#X connect 26 0 27 0;
#X connect 26 1 25 0;
#X connect 32 0 37 0;
#X connect 33 0 0 0;
#X connect 33 1 36 0;
#X connect 34 0 35 0;
#X connect 35 0 25 1;
#X connect 38 0 0 1;
#X connect 39 0 40 0;
#X connect 40 0 11 1;
#X connect 41 0 42 0;
#X connect 42 0 19 1;
#X connect 43 0 4 0;
