#N canvas 540 216 362 230 10;
#X obj 20 12 inlet;
#X obj 110 12 inlet;
#X obj 20 98 *;
#X obj 47 98 *;
#X obj 20 120 +, f 5;
#X obj 77 98 *;
#X obj 20 204 outlet;
#X obj 20 34 unpack f f f;
#X obj 110 34 unpack f f f f f f f f f;
#X obj 20 142 +, f 7;
#X obj 110 98 *;
#X obj 137 98 *;
#X obj 110 120 +, f 5;
#X obj 167 98 *;
#X obj 110 142 +, f 7;
#X obj 200 98 *;
#X obj 227 98 *;
#X obj 200 120 +, f 5;
#X obj 257 98 *;
#X obj 200 142 +, f 7;
#X obj 20 56 t f f f;
#X obj 20 182 pack f f f;
#X connect 0 0 7 0;
#X connect 1 0 8 0;
#X connect 2 0 4 0;
#X connect 3 0 4 1;
#X connect 4 0 9 0;
#X connect 5 0 9 1;
#X connect 7 0 20 0;
#X connect 7 1 3 0;
#X connect 7 1 11 0;
#X connect 7 1 16 0;
#X connect 7 2 5 0;
#X connect 7 2 13 0;
#X connect 7 2 18 0;
#X connect 8 0 2 1;
#X connect 8 1 3 1;
#X connect 8 2 5 1;
#X connect 8 3 10 1;
#X connect 8 4 11 1;
#X connect 8 5 13 1;
#X connect 8 6 15 1;
#X connect 8 7 16 1;
#X connect 8 8 18 1;
#X connect 9 0 21 0;
#X connect 10 0 12 0;
#X connect 11 0 12 1;
#X connect 12 0 14 0;
#X connect 13 0 14 1;
#X connect 14 0 21 1;
#X connect 15 0 17 0;
#X connect 16 0 17 1;
#X connect 17 0 19 0;
#X connect 18 0 19 1;
#X connect 19 0 21 2;
#X connect 20 0 2 0;
#X connect 20 1 10 0;
#X connect 20 2 15 0;
#X connect 21 0 6 0;
