#N canvas 540 216 378 336 10;
#X obj 20 12 inlet;
#X obj 110 12 inlet;
#X obj 20 178 *;
#X obj 47 178 *;
#X obj 20 200 +, f 5;
#X obj 71 178 *;
#X obj 20 270 outlet;
#X obj 20 34 unpack f f f, f 9;
#X obj 110 38 unpack f f f f f f f f f, f 36;
#X obj 20 222 +, f 9;
#X obj 99 178 *;
#X obj 126 178 *;
#X obj 99 200 +, f 5;
#X obj 150 178 *;
#X obj 99 222 +, f 9;
#X obj 179 178 *;
#X obj 206 178 *;
#X obj 179 200 +, f 5;
#X obj 230 178 *;
#X obj 179 222 +, f 9;
#X obj 20 133 t f f f, f 27;
#X obj 20 248 pack f f f, f 27;
#X obj 47 103 t f f f, f 27;
#X obj 71 77 t f f f, f 27;
#X connect 0 0 7 0;
#X connect 1 0 8 0;
#X connect 2 0 4 0;
#X connect 3 0 4 1;
#X connect 4 0 9 0;
#X connect 5 0 9 1;
#X connect 7 0 20 0;
#X connect 7 1 22 0;
#X connect 7 2 23 0;
#X connect 8 0 2 1;
#X connect 8 1 3 1;
#X connect 8 2 5 1;
#X connect 8 3 10 1;
#X connect 8 4 11 1;
#X connect 8 5 13 1;
#X connect 8 6 15 1;
#X connect 8 7 16 1;
#X connect 8 8 18 1;
#X connect 9 0 21 0;
#X connect 10 0 12 0;
#X connect 11 0 12 1;
#X connect 12 0 14 0;
#X connect 13 0 14 1;
#X connect 14 0 21 1;
#X connect 15 0 17 0;
#X connect 16 0 17 1;
#X connect 17 0 19 0;
#X connect 18 0 19 1;
#X connect 19 0 21 2;
#X connect 20 0 2 0;
#X connect 20 1 10 0;
#X connect 20 2 15 0;
#X connect 21 0 6 0;
#X connect 22 0 3 0;
#X connect 22 1 11 0;
#X connect 22 2 16 0;
#X connect 23 0 5 0;
#X connect 23 1 13 0;
#X connect 23 2 18 0;
