#N canvas 149 255 806 391 10;
#X obj 108 143 mat.inv;
#X obj 361 137 mtx_inverse;
#X obj 361 94 list prepend matrix 3 3;
#X obj 361 116 list trim;
#X msg 108 24 1 2 3 4 5 6 7 8 10;
#X obj 361 159 list split 3;
#X obj 108 165 list prepend set;
#X obj 108 187 list trim;
#X msg 108 249 -0.666667 -1.33333 1 -0.666667 3.66667 -2 1 -2 1, f
21;
#X obj 361 179 list prepend set;
#X obj 361 201 list trim;
#X msg 361 223 -0.666667 -1.33333 1 -0.666667 3.66667 -2 1 -2 1, f
21;
#X obj 165 85 list;
#X msg 168 44 1 0 0 0 1 0 0 0 1;
#X msg 188 64 0 1 2 1 0 1 2 1 0;
#X obj 531 104 list prepend matrix 3 3;
#X obj 531 126 list trim;
#X obj 531 169 list split 3;
#X obj 531 189 list prepend set;
#X obj 531 211 list trim;
#X msg 531 233 1 4 7 2 5 8 3 6 9, f 21;
#X msg 561 58 1 2 3 4 5 6 7 8 9;
#X obj 531 147 mtx_transpose;
#X connect 0 0 6 0;
#X connect 1 0 5 0;
#X connect 2 0 3 0;
#X connect 3 0 1 0;
#X connect 4 0 12 0;
#X connect 5 1 9 0;
#X connect 6 0 7 0;
#X connect 7 0 8 0;
#X connect 9 0 10 0;
#X connect 10 0 11 0;
#X connect 12 0 0 0;
#X connect 12 0 2 0;
#X connect 13 0 12 0;
#X connect 14 0 12 0;
#X connect 15 0 16 0;
#X connect 16 0 22 0;
#X connect 17 1 18 0;
#X connect 18 0 19 0;
#X connect 19 0 20 0;
#X connect 21 0 15 0;
#X connect 22 0 17 0;
