#N canvas 384 367 648 386 10;
#X obj 50 223 *;
#X obj 108 223 *;
#X obj 167 223 *;
#X obj 226 223 *;
#X obj 29 12 inlet;
#X obj 29 302 outlet;
#X text 202 5 Computes the matrix inversion of a 3x3 matrix., f 18
;
#N canvas 308 212 441 401 det.A 0;
#X obj 30 77 *;
#X msg 30 188 1 \$1;
#X obj 30 210 /;
#X obj 30 13 inlet;
#X obj 30 232 outlet;
#X obj 30 34 unpack f f f f f f f f f, f 28;
#X obj 30 99 *;
#X obj 57 77 *;
#X obj 57 99 *;
#X obj 84 77 *;
#X obj 84 99 *;
#X obj 57 121 +, f 5;
#X obj 30 143 +, f 5;
#X obj 165 76 *;
#X obj 165 98 *;
#X obj 138 76 *;
#X obj 138 98 *;
#X obj 138 120 +, f 5;
#X obj 111 76 *;
#X obj 111 98 *;
#X obj 111 142 +, f 5;
#X obj 30 56 t f f, f 14;
#X obj 30 165 -, f 14;
#X connect 0 0 6 0;
#X connect 1 0 2 0;
#X connect 2 0 4 0;
#X connect 3 0 5 0;
#X connect 5 0 21 0;
#X connect 5 1 7 0;
#X connect 5 1 15 0;
#X connect 5 2 9 0;
#X connect 5 2 13 0;
#X connect 5 3 9 1;
#X connect 5 3 15 1;
#X connect 5 4 0 1;
#X connect 5 4 13 1;
#X connect 5 5 7 1;
#X connect 5 5 18 1;
#X connect 5 6 8 1;
#X connect 5 6 14 1;
#X connect 5 7 10 1;
#X connect 5 7 19 1;
#X connect 5 8 6 1;
#X connect 5 8 16 1;
#X connect 6 0 12 0;
#X connect 7 0 8 0;
#X connect 8 0 11 0;
#X connect 9 0 10 0;
#X connect 10 0 11 1;
#X connect 11 0 12 1;
#X connect 12 0 22 0;
#X connect 13 0 14 0;
#X connect 14 0 17 1;
#X connect 15 0 16 0;
#X connect 16 0 17 0;
#X connect 17 0 20 1;
#X connect 18 0 19 0;
#X connect 19 0 20 0;
#X connect 20 0 22 1;
#X connect 21 0 0 0;
#X connect 21 1 18 0;
#X connect 22 0 1 0;
#X restore 302 76 pd det.A;
#X obj 50 96 unpack f f f f f f f f f, f 78;
#X obj 50 245 pack f f f f f f f f f, f 79;
#X obj 29 53 t b l l, f 46;
#X obj 29 276 list;
#X obj 50 156 *;
#X obj 80 156 *;
#X obj 50 178 -;
#X obj 138 156 *;
#X obj 108 156 *;
#X obj 108 178 * -1;
#X obj 108 200 +;
#X obj 167 156 *;
#X obj 197 156 *;
#X obj 167 178 -;
#X obj 256 156 *;
#X obj 226 156 *;
#X obj 226 178 * -1;
#X obj 226 200 +;
#X obj 285 156 *;
#X obj 315 156 *;
#X obj 285 178 -;
#X obj 285 223 *;
#X obj 374 156 *;
#X obj 344 156 *;
#X obj 344 178 * -1;
#X obj 344 200 +;
#X obj 344 222 *;
#X obj 403 156 *;
#X obj 433 156 *;
#X obj 403 178 -;
#X obj 403 222 *;
#X obj 492 156 *;
#X obj 462 156 *;
#X obj 462 178 * -1;
#X obj 462 200 +;
#X obj 462 222 *;
#X obj 521 156 *;
#X obj 551 156 *;
#X obj 521 178 -;
#X obj 521 222 *;
#X connect 0 0 9 0;
#X connect 1 0 9 1;
#X connect 2 0 9 2;
#X connect 3 0 9 3;
#X connect 4 0 10 0;
#X connect 7 0 0 1;
#X connect 7 0 1 1;
#X connect 7 0 2 1;
#X connect 7 0 3 1;
#X connect 7 0 29 1;
#X connect 7 0 34 1;
#X connect 7 0 38 1;
#X connect 7 0 43 1;
#X connect 7 0 47 1;
#X connect 8 0 26 0;
#X connect 8 0 31 0;
#X connect 8 0 40 0;
#X connect 8 0 44 0;
#X connect 8 1 16 0;
#X connect 8 1 19 0;
#X connect 8 1 39 0;
#X connect 8 1 45 0;
#X connect 8 2 15 0;
#X connect 8 2 20 0;
#X connect 8 2 27 0;
#X connect 8 2 30 0;
#X connect 8 3 23 0;
#X connect 8 3 30 1;
#X connect 8 3 35 0;
#X connect 8 3 45 1;
#X connect 8 4 12 0;
#X connect 8 4 20 1;
#X connect 8 4 36 0;
#X connect 8 4 44 1;
#X connect 8 5 13 0;
#X connect 8 5 19 1;
#X connect 8 5 22 0;
#X connect 8 5 31 1;
#X connect 8 6 22 1;
#X connect 8 6 27 1;
#X connect 8 6 36 1;
#X connect 8 6 39 1;
#X connect 8 7 13 1;
#X connect 8 7 15 1;
#X connect 8 7 35 1;
#X connect 8 7 40 1;
#X connect 8 8 12 1;
#X connect 8 8 16 1;
#X connect 8 8 23 1;
#X connect 8 8 26 1;
#X connect 9 0 11 1;
#X connect 10 0 11 0;
#X connect 10 1 8 0;
#X connect 10 2 7 0;
#X connect 11 0 5 0;
#X connect 12 0 14 0;
#X connect 13 0 14 1;
#X connect 14 0 0 0;
#X connect 15 0 18 1;
#X connect 16 0 17 0;
#X connect 17 0 18 0;
#X connect 18 0 1 0;
#X connect 19 0 21 0;
#X connect 20 0 21 1;
#X connect 21 0 2 0;
#X connect 22 0 25 1;
#X connect 23 0 24 0;
#X connect 24 0 25 0;
#X connect 25 0 3 0;
#X connect 26 0 28 0;
#X connect 27 0 28 1;
#X connect 28 0 29 0;
#X connect 29 0 9 4;
#X connect 30 0 33 1;
#X connect 31 0 32 0;
#X connect 32 0 33 0;
#X connect 33 0 34 0;
#X connect 34 0 9 5;
#X connect 35 0 37 0;
#X connect 36 0 37 1;
#X connect 37 0 38 0;
#X connect 38 0 9 6;
#X connect 39 0 42 1;
#X connect 40 0 41 0;
#X connect 41 0 42 0;
#X connect 42 0 43 0;
#X connect 43 0 9 7;
#X connect 44 0 46 0;
#X connect 45 0 46 1;
#X connect 46 0 47 0;
#X connect 47 0 9 8;
