#N canvas 282 104 715 598 10;
#X obj 11 339 list;
#X obj 77 249 t l l, f 6;
#X obj 32 315 spigot, f 8;
#X obj 50 108 t f f;
#X obj 96 318 spigot;
#X obj 75 339 f, f 4;
#N canvas 0 22 372 306 mat.vec.mul 0;
#X obj 116 12 inlet;
#X obj 20 12 inlet;
#X obj 20 98 *;
#X obj 47 98 *;
#X obj 20 120 +, f 5;
#X obj 20 194 outlet;
#X obj 163 12 inlet;
#X obj 220 12 inlet;
#X obj 20 172 pack f f f, f 19;
#X obj 20 34 unpack f f f f f f f f f;
#X obj 20 142 +, f 10;
#X obj 77 98 *;
#X obj 110 98 *;
#X obj 137 98 *;
#X obj 110 120 +, f 5;
#X obj 110 142 +, f 10;
#X obj 167 98 *;
#X obj 200 98 *;
#X obj 227 98 *;
#X obj 200 120 +, f 5;
#X obj 200 142 +, f 10;
#X obj 257 98 *;
#X connect 0 0 2 1;
#X connect 0 0 12 1;
#X connect 0 0 17 1;
#X connect 1 0 9 0;
#X connect 2 0 4 0;
#X connect 3 0 4 1;
#X connect 4 0 10 0;
#X connect 6 0 3 1;
#X connect 6 0 13 1;
#X connect 6 0 18 1;
#X connect 7 0 11 1;
#X connect 7 0 16 1;
#X connect 7 0 21 1;
#X connect 8 0 5 0;
#X connect 9 0 2 0;
#X connect 9 1 3 0;
#X connect 9 2 11 0;
#X connect 9 3 12 0;
#X connect 9 4 13 0;
#X connect 9 5 16 0;
#X connect 9 6 17 0;
#X connect 9 7 18 0;
#X connect 9 8 21 0;
#X connect 10 0 8 0;
#X connect 11 0 10 1;
#X connect 12 0 14 0;
#X connect 13 0 14 1;
#X connect 14 0 15 0;
#X connect 15 0 8 1;
#X connect 16 0 15 1;
#X connect 17 0 19 0;
#X connect 18 0 19 1;
#X connect 19 0 20 0;
#X connect 20 0 8 2;
#X connect 21 0 20 1;
#X restore 77 227 pd mat.vec.mul;
#X obj 132 116 loadbang;
#N canvas 0 22 193 267 loop 0;
#X obj 8 60 until;
#X obj 8 82 f, f 7;
#X obj 47 60 f 0;
#X obj 59 82 + 1;
#X obj 8 32 t b b, f 7;
#X obj 8 8 inlet;
#X obj 47 158 outlet;
#X obj 8 181 outlet;
#X obj 47 111 r \$0-nmatrices;
#X obj 8 134 sel 256;
#X connect 0 0 1 0;
#X connect 1 0 3 0;
#X connect 1 0 9 0;
#X connect 2 0 1 1;
#X connect 3 0 1 1;
#X connect 4 0 0 0;
#X connect 4 1 2 0;
#X connect 5 0 4 0;
#X connect 8 0 9 1;
#X connect 9 0 7 0;
#X connect 9 0 0 1;
#X connect 9 1 6 0;
#X restore 11 84 pd loop;
#N canvas 0 22 508 262 to.p 0;
#X obj 21 228 outlet;
#X obj 21 46 inlet;
#X obj 66 228 outlet;
#X obj 21 98 / 180;
#X obj 21 120 * 3.14159;
#X obj 21 142 t f f, f 8;
#X obj 96 98 / 180, f 6;
#X obj 96 120 * 3.14159;
#X obj 96 142 t f f, f 8;
#X obj 21 206 *;
#X obj 66 206 *;
#X obj 21 74 unpack f f, f 13;
#X obj 96 164 cos;
#X obj 141 164 sin;
#X obj 21 186 * -1;
#X obj 21 164 sin;
#X obj 66 164 cos;
#X obj 141 228 outlet;
#X connect 1 0 11 0;
#X connect 3 0 4 0;
#X connect 4 0 5 0;
#X connect 5 0 15 0;
#X connect 5 1 16 0;
#X connect 6 0 7 0;
#X connect 7 0 8 0;
#X connect 8 0 12 0;
#X connect 8 1 13 0;
#X connect 9 0 0 0;
#X connect 10 0 2 0;
#X connect 11 0 3 0;
#X connect 11 1 6 0;
#X connect 12 0 9 1;
#X connect 12 0 10 1;
#X connect 13 0 17 0;
#X connect 14 0 9 0;
#X connect 15 0 14 0;
#X connect 16 0 10 0;
#X restore 117 204 pd to.p;
#X obj 11 530 outlet;
#N canvas 0 22 450 336 pass 0;
#X obj 52 257 >;
#X obj 19 280 spigot;
#X obj 19 235 t f f, f 6;
#X obj 19 14 inlet;
#X obj 52 312 outlet;
#X obj 19 36 t l l, f 6;
#X obj 19 163 spigot;
#N canvas 0 22 450 300 g.factor 0;
#X obj 9 7 inlet;
#X obj 9 169 outlet;
#X obj 67 79 *, f 5;
#X obj 9 79 *, f 5;
#X obj 9 101 +, f 10;
#X obj 9 143 sqrt;
#X obj 9 34 unpack f f f, f 20;
#X obj 126 79 *, f 5;
#X obj 9 123 +, f 20;
#X obj 67 57 t f f;
#X obj 126 57 t f f;
#X obj 9 57 t f f;
#X connect 0 0 6 0;
#X connect 2 0 4 1;
#X connect 3 0 4 0;
#X connect 4 0 8 0;
#X connect 5 0 1 0;
#X connect 6 0 11 0;
#X connect 6 1 9 0;
#X connect 6 2 10 0;
#X connect 7 0 8 1;
#X connect 8 0 5 0;
#X connect 9 0 2 0;
#X connect 9 1 2 1;
#X connect 10 0 7 0;
#X connect 10 1 7 1;
#X connect 11 0 3 0;
#X connect 11 1 3 1;
#X restore 19 184 pd g.factor;
#X obj 102 154 sel 0;
#X obj 102 176 f 0;
#X obj 52 102 *, f 6;
#X obj 67 233 f 0;
#X obj 67 208 r \$0-clear;
#X obj 52 80 >= 0;
#X obj 86 80 >= 0;
#X obj 52 58 unpack f f f;
#X obj 121 80 >= 0;
#X obj 52 124 *, f 12;
#X connect 0 0 1 1;
#X connect 0 0 4 0;
#X connect 1 0 0 1;
#X connect 2 0 1 0;
#X connect 2 1 0 0;
#X connect 3 0 5 0;
#X connect 5 0 6 0;
#X connect 5 1 15 0;
#X connect 6 0 7 0;
#X connect 7 0 2 0;
#X connect 8 0 9 0;
#X connect 9 0 4 0;
#X connect 10 0 17 0;
#X connect 11 0 0 1;
#X connect 12 0 11 0;
#X connect 13 0 10 0;
#X connect 14 0 10 1;
#X connect 15 0 13 0;
#X connect 15 1 14 0;
#X connect 15 2 16 0;
#X connect 16 0 17 1;
#X connect 17 0 6 1;
#X connect 17 0 8 0;
#X restore 110 270 pd pass;
#X obj 11 7 inlet angle;
#N canvas 0 23 450 300 scale 0;
#X obj 20 12 inlet;
#X obj 20 235 outlet;
#X obj 78 79 *, f 5;
#X obj 20 79 *, f 5;
#X obj 20 101 +, f 10;
#X obj 20 143 sqrt;
#X obj 20 209 /, f 5;
#X obj 78 209 /, f 5;
#X obj 20 34 unpack f f f, f 20;
#X obj 137 209 /, f 5;
#X obj 137 79 *, f 5;
#X obj 20 189 f, f 5;
#X obj 20 167 t b f b f b f, f 25;
#X obj 20 123 +, f 20;
#X obj 78 189 f, f 5;
#X obj 137 189 f, f 5;
#X obj 78 57 t f f;
#X obj 137 57 t f f;
#X obj 20 57 t f f;
#X obj 78 235 outlet;
#X obj 137 235 outlet;
#X connect 0 0 8 0;
#X connect 2 0 4 1;
#X connect 3 0 4 0;
#X connect 4 0 13 0;
#X connect 5 0 12 0;
#X connect 6 0 1 0;
#X connect 7 0 19 0;
#X connect 8 0 18 0;
#X connect 8 1 16 0;
#X connect 8 2 17 0;
#X connect 9 0 20 0;
#X connect 10 0 13 1;
#X connect 11 0 6 0;
#X connect 12 0 11 0;
#X connect 12 1 6 1;
#X connect 12 2 14 0;
#X connect 12 3 7 1;
#X connect 12 4 15 0;
#X connect 12 5 9 1;
#X connect 13 0 5 0;
#X connect 14 0 7 0;
#X connect 15 0 9 0;
#X connect 16 0 2 0;
#X connect 16 1 2 1;
#X connect 16 1 14 1;
#X connect 17 0 10 0;
#X connect 17 1 10 1;
#X connect 17 1 15 1;
#X connect 18 0 3 0;
#X connect 18 1 3 1;
#X connect 18 1 11 1;
#X restore 11 392 pd scale;
#X obj 11 467 t b f;
#X obj 393 11 inlet;
#X obj 133 348 loadbang;
#X obj 533 34 array define \$0-indices;
#X obj 75 392 array get \$0-indices;
#X obj 533 54 array define \$0-outputs;
#X obj 56 466 array set \$0-outputs, f 26;
#X obj 38 488 array set \$0-outputs;
#X obj 11 509 array get \$0-outputs;
#X obj 533 14 array define \$0-matrix;
#X obj 77 161 array get \$0-matrix;
#X obj 393 31 t l l;
#X obj 420 53 list length;
#X obj 393 147 array set \$0-indices;
#X obj 253 11 inlet;
#X obj 253 31 t l l;
#X obj 280 53 list length;
#X obj 280 76 array size \$0-matrix;
#X obj 253 97 array set \$0-matrix;
#X obj 463 105 array size \$0-outputs;
#X text 283 374 Optim the scale;
#X obj 11 106 t b b;
#X obj 168 55 s \$0-clear;
#N canvas 0 22 133 101 clear.out 0;
#X msg 16 34 const 0;
#X obj 16 56 s \$0-outputs;
#X obj 16 12 r \$0-clear;
#X connect 0 0 1 0;
#X connect 2 0 0 0;
#X restore 533 75 pd clear.out;
#X obj 463 11 inlet;
#X obj 280 141 s \$0-nmatrices;
#X obj 420 126 array size \$0-indices;
#X msg 133 370 3;
#X obj 75 361 * 3;
#X obj 75 414 unpack f f f;
#X obj 76 443 array set \$0-outputs, f 26;
#X obj 11 31 t b l b, f 36;
#X obj 77 137 * 9;
#X obj 280 119 / 9;
#X msg 132 138 9;
#X msg 286 227 \$1 \$4 \$7 \$2 \$5 \$8 \$3 \$6 \$9;
#X msg 224 171 \$9 \$8 \$7 \$6 \$5 \$4 \$3 \$2 \$1;
#X obj 226 249 print mat;
#X obj 181 308 print pt;
#X obj 182 279 pack f f f;
#X obj 323 317 print index;
#X obj 378 238 loadbang;
#X obj 320 282 array get \$0-indices;
#X msg 378 260 3;
#X obj 298 261 * 3;
#X obj 201 368 print pass;
#X msg 274 191 \$1 \$2 \$3 \$4 \$5 \$6 \$7 \$8 \$9;
#X msg 469 185 \$9 \$6 \$3 \$8 \$5 \$2 \$7 \$4 \$1;
#X msg 77 181 \$1 \$4 \$7 \$2 \$5 \$8 \$3 \$6 \$9;
#X connect 0 0 13 0;
#X connect 1 0 2 0;
#X connect 1 1 11 0;
#X connect 2 0 0 1;
#X connect 3 0 4 0;
#X connect 3 1 46 0;
#X connect 4 0 5 1;
#X connect 5 0 42 0;
#X connect 6 0 1 0;
#X connect 7 0 48 0;
#X connect 8 0 35 0;
#X connect 8 1 3 0;
#X connect 9 0 6 1;
#X connect 9 1 6 2;
#X connect 9 2 6 3;
#X connect 11 0 4 1;
#X connect 11 0 2 1;
#X connect 12 0 45 0;
#X connect 13 0 14 0;
#X connect 13 1 20 0;
#X connect 13 2 44 0;
#X connect 14 0 22 0;
#X connect 14 1 21 0;
#X connect 15 0 25 0;
#X connect 16 0 41 0;
#X connect 18 0 43 0;
#X connect 22 0 10 0;
#X connect 24 0 62 0;
#X connect 25 0 27 0;
#X connect 25 1 26 0;
#X connect 26 0 40 0;
#X connect 28 0 29 0;
#X connect 29 0 32 0;
#X connect 29 1 30 0;
#X connect 30 0 31 0;
#X connect 30 0 47 0;
#X connect 35 0 0 0;
#X connect 35 1 5 0;
#X connect 38 0 33 0;
#X connect 41 0 18 1;
#X connect 42 0 18 0;
#X connect 43 0 21 1;
#X connect 43 1 20 1;
#X connect 43 2 44 1;
#X connect 45 0 8 0;
#X connect 45 1 9 0;
#X connect 45 2 36 0;
#X connect 46 0 24 0;
#X connect 47 0 39 0;
#X connect 48 0 24 1;
#X connect 53 0 52 0;
#X connect 55 0 57 0;
#X connect 56 0 54 0;
#X connect 57 0 56 1;
#X connect 58 0 56 0;
#X connect 62 0 6 0;
