#N canvas 780 374 391 254 10;
#X obj 20 12 inlet;
#X obj 20 58 / 180;
#X obj 20 80 * 3.14159;
#X obj 20 102 t f f, f 8;
#X text 208 27 Converts degrees to radians and computes the cartesian
coordinates assuming that a unit radius of one., f 18;
#X obj 95 58 / 180, f 6;
#X obj 95 80 * 3.14159;
#X obj 95 102 t f f, f 8;
#X obj 20 210 outlet;
#X obj 20 166 *;
#X obj 65 166 *;
#X obj 20 188 pack f f f, f 16;
#X obj 20 34 unpack f f, f 13;
#X obj 95 124 cos;
#X obj 140 124 sin;
#X obj 20 146 * -1;
#X obj 20 124 sin;
#X obj 65 124 cos;
#X connect 0 0 12 0;
#X connect 1 0 2 0;
#X connect 2 0 3 0;
#X connect 3 0 16 0;
#X connect 3 1 17 0;
#X connect 5 0 6 0;
#X connect 6 0 7 0;
#X connect 7 0 13 0;
#X connect 7 1 14 0;
#X connect 9 0 11 0;
#X connect 10 0 11 1;
#X connect 11 0 8 0;
#X connect 12 0 1 0;
#X connect 12 1 5 0;
#X connect 13 0 9 1;
#X connect 13 0 10 1;
#X connect 14 0 11 2;
#X connect 15 0 9 0;
#X connect 16 0 15 0;
#X connect 17 0 10 0;
