#N canvas 429 144 363 457 10;
#X obj 20 22 inlet;
#X obj 98 65 list length;
#X obj 98 87 t f f;
#X obj 157 23 array define \$0-angles;
#X obj 98 129 s \$0-nangles;
#X obj 157 43 array define \$0-positions;
#N canvas 0 22 195 122 resize.arrays 0;
#X obj 18 35 array size \$0-angles;
#X obj 8 75 array size \$0-positions;
#X obj 8 11 inlet;
#X obj 8 56 * 3;
#X connect 2 0 0 0;
#X connect 2 0 3 0;
#X connect 3 0 1 0;
#X restore 125 108 pd resize.arrays;
#N canvas 0 22 450 405 fill.arrays 0;
#X obj 12 10 inlet;
#X obj 39 53 array set \$0-angles;
#X obj 12 32 t b l;
#X obj 12 150 until;
#X obj 64 172 + 1;
#X obj 12 172 f, f 7;
#X obj 12 128 t f b, f 7;
#X obj 51 150 f 0;
#X obj 12 107 f;
#X obj 27 85 r \$0-nangles;
#X obj 12 283 array set \$0-positions;
#X obj 12 214 array get \$0-angles;
#X obj 109 139 loadbang;
#X obj 12 194 t f f;
#N canvas 0 22 450 300 pol.to.car 0;
#X obj 34 28 inlet;
#X obj 34 231 outlet;
#X obj 34 78 / 180;
#X obj 34 100 * 3.14159;
#X obj 34 122 t f f, f 8;
#X obj 109 78 / 180, f 6;
#X obj 109 100 * 3.14159;
#X obj 109 122 t f f, f 8;
#X obj 34 186 *;
#X obj 79 186 *;
#X obj 34 208 pack f f f, f 16;
#X obj 34 54 unpack f f, f 13;
#X obj 109 144 cos;
#X obj 154 144 sin;
#X obj 34 166 * -1;
#X obj 34 144 sin;
#X obj 79 144 cos;
#X connect 0 0 11 0;
#X connect 2 0 3 0;
#X connect 3 0 4 0;
#X connect 4 0 15 0;
#X connect 4 1 16 0;
#X connect 5 0 6 0;
#X connect 6 0 7 0;
#X connect 7 0 12 0;
#X connect 7 1 13 0;
#X connect 8 0 10 0;
#X connect 9 0 10 1;
#X connect 10 0 1 0;
#X connect 11 0 2 0;
#X connect 11 1 5 0;
#X connect 12 0 8 1;
#X connect 12 0 9 1;
#X connect 13 0 10 2;
#X connect 14 0 8 0;
#X connect 15 0 14 0;
#X connect 16 0 9 0;
#X restore 12 238 pd pol.to.car;
#X obj 76 262 * 3;
#X msg 109 161 2;
#X connect 0 0 2 0;
#X connect 2 0 8 0;
#X connect 2 1 1 0;
#X connect 3 0 5 0;
#X connect 4 0 5 1;
#X connect 5 0 4 0;
#X connect 5 0 13 0;
#X connect 6 0 3 0;
#X connect 6 1 7 0;
#X connect 7 0 5 1;
#X connect 8 0 6 0;
#X connect 9 0 8 1;
#X connect 11 0 14 0;
#X connect 12 0 16 0;
#X connect 13 0 11 0;
#X connect 13 1 15 0;
#X connect 14 0 10 0;
#X connect 15 0 10 1;
#X connect 16 0 11 1;
#X restore 72 151 pd fill.arrays;
#N canvas 191 121 464 645 is.duo.valid 0;
#X obj 57 17 inlet;
#N canvas 0 22 259 357 get.other.indices 0;
#X obj 6 98 until;
#X obj 58 120 + 1;
#X obj 6 120 f, f 7;
#X obj 45 98 f 0;
#N canvas 0 22 225 258 filter 0;
#X obj 27 63 sel;
#X obj 42 85 sel;
#X obj 27 15 inlet;
#X obj 64 15 inlet;
#X obj 72 133 outlet;
#X obj 57 107 sel;
#X obj 64 37 unpack f f f;
#X connect 0 1 1 0;
#X connect 1 1 5 0;
#X connect 2 0 0 0;
#X connect 3 0 6 0;
#X connect 5 1 4 0;
#X connect 6 0 0 1;
#X connect 6 1 1 1;
#X connect 6 2 5 1;
#X restore 21 200 pd filter;
#X obj 6 10 inlet;
#X obj 6 33 t b l, f 9;
#X obj 21 222 outlet;
#X obj 33 54 inlet;
#X obj 6 172 sel;
#X obj 21 148 r \$0-nangles;
#X obj 6 242 outlet;
#X obj 6 76 t b b, f 10;
#X connect 0 0 2 0;
#X connect 1 0 2 1;
#X connect 2 0 1 0;
#X connect 2 0 9 0;
#X connect 3 0 2 1;
#X connect 4 0 7 0;
#X connect 5 0 6 0;
#X connect 6 0 12 0;
#X connect 6 1 4 1;
#X connect 8 0 0 1;
#X connect 9 0 0 1;
#X connect 9 0 11 0;
#X connect 9 1 4 0;
#X connect 10 0 9 1;
#X connect 12 0 0 0;
#X connect 12 1 3 0;
#X restore 57 170 pd get.other.indices;
#X obj 238 5 loadbang;
#N canvas 0 22 182 227 distance 0;
#X obj 12 17 inlet;
#X obj 12 39 unpack f f;
#X obj 12 61 -;
#X obj 69 61 -;
#X obj 82 17 inlet;
#X obj 82 39 unpack f f;
#X obj 12 83 t f f;
#X obj 12 105 *, f 5;
#X obj 69 83 t f f;
#X obj 69 105 *, f 5;
#X obj 12 127 +, f 10;
#X obj 12 149 sqrt;
#X obj 12 171 outlet;
#X connect 0 0 1 0;
#X connect 1 0 2 0;
#X connect 1 1 3 0;
#X connect 2 0 6 0;
#X connect 3 0 8 0;
#X connect 4 0 5 0;
#X connect 5 0 2 1;
#X connect 5 1 3 1;
#X connect 6 0 7 0;
#X connect 6 1 7 1;
#X connect 7 0 10 0;
#X connect 8 0 9 0;
#X connect 8 1 9 1;
#X connect 9 0 10 1;
#X connect 10 0 11 0;
#X connect 11 0 12 0;
#X restore 114 297 pd distance;
#N canvas 0 22 182 227 distance 0;
#X obj 12 17 inlet;
#X obj 12 39 unpack f f;
#X obj 12 61 -;
#X obj 69 61 -;
#X obj 82 17 inlet;
#X obj 82 39 unpack f f;
#X obj 12 83 t f f;
#X obj 12 105 *, f 5;
#X obj 69 83 t f f;
#X obj 69 105 *, f 5;
#X obj 12 127 +, f 10;
#X obj 12 149 sqrt;
#X obj 12 171 outlet;
#X connect 0 0 1 0;
#X connect 1 0 2 0;
#X connect 1 1 3 0;
#X connect 2 0 6 0;
#X connect 3 0 8 0;
#X connect 4 0 5 0;
#X connect 5 0 2 1;
#X connect 5 1 3 1;
#X connect 6 0 7 0;
#X connect 6 1 7 1;
#X connect 7 0 10 0;
#X connect 8 0 9 0;
#X connect 8 1 9 1;
#X connect 9 0 10 1;
#X connect 10 0 11 0;
#X connect 11 0 12 0;
#X restore 213 287 pd distance;
#X obj 120 102 array get \$0-positions;
#X obj 184 122 array get \$0-positions;
#X obj 114 243 array get \$0-positions;
#X obj 114 222 * 2;
#X obj 114 265 t l l;
#N canvas 0 22 182 227 distance 0;
#X obj 12 17 inlet;
#X obj 12 39 unpack f f;
#X obj 12 61 -;
#X obj 69 61 -;
#X obj 82 17 inlet;
#X obj 82 39 unpack f f;
#X obj 12 83 t f f;
#X obj 12 105 *, f 5;
#X obj 69 83 t f f;
#X obj 69 105 *, f 5;
#X obj 12 127 +, f 10;
#X obj 12 149 sqrt;
#X obj 12 171 outlet;
#X connect 0 0 1 0;
#X connect 1 0 2 0;
#X connect 1 1 3 0;
#X connect 2 0 6 0;
#X connect 3 0 8 0;
#X connect 4 0 5 0;
#X connect 5 0 2 1;
#X connect 5 1 3 1;
#X connect 6 0 7 0;
#X connect 6 1 7 1;
#X connect 7 0 10 0;
#X connect 8 0 9 0;
#X connect 8 1 9 1;
#X connect 9 0 10 1;
#X connect 10 0 11 0;
#X connect 11 0 12 0;
#X restore 141 317 pd distance;
#X obj 114 344 max, f 5;
#X obj 114 366 >, f 17;
#X obj 57 38 t l l, f 11;
#X obj 114 455 outlet;
#X obj 114 388 sel 0;
#X obj 114 410 t b b;
#X obj 114 432 f 0;
#X obj 57 432 f 1;
#X obj 120 58 unpack f f f, f 22;
#X msg 238 27 3;
#X obj 249 145 array get \$0-positions;
#X obj 120 80 * 3;
#X obj 184 80 * 3;
#X obj 249 80 * 3;
#X connect 0 0 13 0;
#X connect 1 0 18 0;
#X connect 1 1 8 0;
#X connect 2 0 20 0;
#X connect 3 0 11 0;
#X connect 4 0 12 1;
#X connect 5 0 3 1;
#X connect 5 0 4 0;
#X connect 6 0 10 1;
#X connect 6 0 4 1;
#X connect 7 0 9 0;
#X connect 8 0 7 0;
#X connect 9 0 3 0;
#X connect 9 1 10 0;
#X connect 10 0 11 1;
#X connect 11 0 12 0;
#X connect 12 0 15 0;
#X connect 13 0 1 0;
#X connect 13 1 19 0;
#X connect 15 0 16 0;
#X connect 16 0 17 0;
#X connect 16 1 1 1;
#X connect 17 0 14 0;
#X connect 18 0 14 0;
#X connect 19 0 22 0;
#X connect 19 1 23 0;
#X connect 19 2 24 0;
#X connect 20 0 5 1;
#X connect 20 0 6 1;
#X connect 20 0 21 1;
#X connect 22 0 5 0;
#X connect 23 0 6 0;
#X connect 24 0 21 0;
#X restore 91 221 pd is.duo.valid;
#X obj 46 198 t l l, f 8;
#X obj 46 245 spigot 0;
#N canvas 0 22 450 300 compute.mat 0;
#X obj 17 15 inlet;
#X obj 17 80 array get \$0-positions;
#X obj 86 100 array get \$0-positions;
#N canvas 0 22 651 355 mat.inv 0;
#X obj 50 223 *;
#X obj 108 223 *;
#X obj 167 223 *;
#X obj 226 223 *;
#X obj 29 12 inlet;
#X obj 29 302 outlet;
#X text 202 5 Computes the matrix inversion of a 3x3 matrix., f 18
;
#N canvas 308 212 441 401 det.A 0;
#X obj 30 77 *;
#X msg 30 188 1 \$1;
#X obj 30 210 /;
#X obj 30 13 inlet;
#X obj 30 232 outlet;
#X obj 30 34 unpack f f f f f f f f f, f 28;
#X obj 30 99 *;
#X obj 57 77 *;
#X obj 57 99 *;
#X obj 84 77 *;
#X obj 84 99 *;
#X obj 57 121 +, f 5;
#X obj 30 143 +, f 5;
#X obj 165 76 *;
#X obj 165 98 *;
#X obj 138 76 *;
#X obj 138 98 *;
#X obj 138 120 +, f 5;
#X obj 111 76 *;
#X obj 111 98 *;
#X obj 111 142 +, f 5;
#X obj 30 56 t f f, f 14;
#X obj 30 165 -, f 14;
#X connect 0 0 6 0;
#X connect 1 0 2 0;
#X connect 2 0 4 0;
#X connect 3 0 5 0;
#X connect 5 0 21 0;
#X connect 5 1 7 0;
#X connect 5 1 15 0;
#X connect 5 2 9 0;
#X connect 5 2 13 0;
#X connect 5 3 9 1;
#X connect 5 3 15 1;
#X connect 5 4 0 1;
#X connect 5 4 13 1;
#X connect 5 5 7 1;
#X connect 5 5 18 1;
#X connect 5 6 8 1;
#X connect 5 6 14 1;
#X connect 5 7 10 1;
#X connect 5 7 19 1;
#X connect 5 8 6 1;
#X connect 5 8 16 1;
#X connect 6 0 12 0;
#X connect 7 0 8 0;
#X connect 8 0 11 0;
#X connect 9 0 10 0;
#X connect 10 0 11 1;
#X connect 11 0 12 1;
#X connect 12 0 22 0;
#X connect 13 0 14 0;
#X connect 14 0 17 1;
#X connect 15 0 16 0;
#X connect 16 0 17 0;
#X connect 17 0 20 1;
#X connect 18 0 19 0;
#X connect 19 0 20 0;
#X connect 20 0 22 1;
#X connect 21 0 0 0;
#X connect 21 1 18 0;
#X connect 22 0 1 0;
#X restore 302 76 pd det.A;
#X obj 50 96 unpack f f f f f f f f f, f 78;
#X obj 50 245 pack f f f f f f f f f, f 79;
#X obj 29 53 t b l l, f 46;
#X obj 29 276 list;
#X obj 50 156 *;
#X obj 80 156 *;
#X obj 50 178 -;
#X obj 138 156 *;
#X obj 108 156 *;
#X obj 108 178 * -1;
#X obj 108 200 +;
#X obj 167 156 *;
#X obj 197 156 *;
#X obj 167 178 -;
#X obj 256 156 *;
#X obj 226 156 *;
#X obj 226 178 * -1;
#X obj 226 200 +;
#X obj 285 156 *;
#X obj 315 156 *;
#X obj 285 178 -;
#X obj 285 223 *;
#X obj 374 156 *;
#X obj 344 156 *;
#X obj 344 178 * -1;
#X obj 344 200 +;
#X obj 344 222 *;
#X obj 403 156 *;
#X obj 433 156 *;
#X obj 403 178 -;
#X obj 403 222 *;
#X obj 492 156 *;
#X obj 462 156 *;
#X obj 462 178 * -1;
#X obj 462 200 +;
#X obj 462 222 *;
#X obj 521 157 *;
#X obj 551 156 *;
#X obj 521 178 -;
#X obj 521 222 *;
#X obj 29 75 t b b;
#X connect 0 0 9 0;
#X connect 1 0 9 1;
#X connect 2 0 9 2;
#X connect 3 0 9 3;
#X connect 4 0 10 0;
#X connect 7 0 0 1;
#X connect 7 0 1 1;
#X connect 7 0 2 1;
#X connect 7 0 3 1;
#X connect 7 0 29 1;
#X connect 7 0 34 1;
#X connect 7 0 38 1;
#X connect 7 0 43 1;
#X connect 7 0 47 1;
#X connect 8 0 26 0;
#X connect 8 0 31 0;
#X connect 8 0 40 0;
#X connect 8 0 44 0;
#X connect 8 1 16 0;
#X connect 8 1 19 0;
#X connect 8 1 39 0;
#X connect 8 1 45 0;
#X connect 8 2 15 0;
#X connect 8 2 20 0;
#X connect 8 2 27 0;
#X connect 8 2 30 0;
#X connect 8 3 23 0;
#X connect 8 3 30 1;
#X connect 8 3 35 0;
#X connect 8 3 45 1;
#X connect 8 4 12 0;
#X connect 8 4 20 1;
#X connect 8 4 36 0;
#X connect 8 4 44 1;
#X connect 8 5 13 0;
#X connect 8 5 19 1;
#X connect 8 5 22 0;
#X connect 8 5 31 1;
#X connect 8 6 22 1;
#X connect 8 6 27 1;
#X connect 8 6 36 1;
#X connect 8 6 39 1;
#X connect 8 7 13 1;
#X connect 8 7 15 1;
#X connect 8 7 35 1;
#X connect 8 7 40 1;
#X connect 8 8 12 1;
#X connect 8 8 16 1;
#X connect 8 8 23 1;
#X connect 8 8 26 1;
#X connect 9 0 11 1;
#X connect 10 0 48 0;
#X connect 10 1 8 0;
#X connect 10 2 7 0;
#X connect 11 0 5 0;
#X connect 12 0 14 0;
#X connect 13 0 14 1;
#X connect 14 0 0 0;
#X connect 15 0 18 1;
#X connect 16 0 17 0;
#X connect 17 0 18 0;
#X connect 18 0 1 0;
#X connect 19 0 21 0;
#X connect 20 0 21 1;
#X connect 21 0 2 0;
#X connect 22 0 25 1;
#X connect 23 0 24 0;
#X connect 24 0 25 0;
#X connect 25 0 3 0;
#X connect 26 0 28 0;
#X connect 27 0 28 1;
#X connect 28 0 29 0;
#X connect 29 0 9 4;
#X connect 30 0 33 1;
#X connect 31 0 32 0;
#X connect 32 0 33 0;
#X connect 33 0 34 0;
#X connect 34 0 9 5;
#X connect 35 0 37 0;
#X connect 36 0 37 1;
#X connect 37 0 38 0;
#X connect 38 0 9 6;
#X connect 39 0 42 1;
#X connect 40 0 41 0;
#X connect 41 0 42 0;
#X connect 42 0 43 0;
#X connect 43 0 9 7;
#X connect 44 0 46 0;
#X connect 45 0 46 1;
#X connect 46 0 47 0;
#X connect 47 0 9 8;
#X connect 48 0 11 0;
#X connect 48 1 9 0;
#X restore 17 214 pd mat.inv;
#X obj 17 172 list append, f 12;
#X obj 17 236 outlet;
#X obj 17 58 * 3;
#X obj 86 58 * 3;
#X obj 17 36 unpack f f f, f 24;
#X obj 158 120 array get \$0-positions;
#X obj 158 58 * 3;
#X obj 86 142 list append, f 12;
#X connect 0 0 8 0;
#X connect 1 0 4 0;
#X connect 2 0 11 0;
#X connect 3 0 5 0;
#X connect 4 0 3 0;
#X connect 6 0 1 0;
#X connect 7 0 2 0;
#X connect 8 0 6 0;
#X connect 8 1 7 0;
#X connect 8 2 10 0;
#X connect 9 0 11 1;
#X connect 10 0 9 0;
#X connect 11 0 4 1;
#X restore 46 288 pd compute.mat;
#X obj 46 267 t l l, f 11;
#N canvas 0 22 450 300 to.list 0;
#X obj 118 54 list;
#X obj 25 75 list;
#X obj 25 9 inlet;
#X obj 64 9 inlet;
#X obj 109 9 inlet;
#X obj 109 31 bang;
#X obj 25 97 outlet;
#X obj 46 54 list prepend;
#X connect 0 0 7 1;
#X connect 1 0 6 0;
#X connect 2 0 1 0;
#X connect 3 0 7 0;
#X connect 4 0 5 0;
#X connect 5 0 7 1;
#X connect 7 0 0 0;
#X connect 7 0 1 1;
#X restore 89 373 pd to.list;
#N canvas 0 22 450 300 to.list 0;
#X obj 125 54 list;
#X obj 25 75 list;
#X obj 25 9 inlet;
#X obj 64 9 inlet;
#X obj 115 9 inlet;
#X obj 115 31 bang;
#X obj 25 97 outlet;
#X obj 46 54 list prepend;
#X connect 0 0 7 1;
#X connect 1 0 6 0;
#X connect 2 0 1 0;
#X connect 3 0 7 0;
#X connect 4 0 5 0;
#X connect 5 0 7 1;
#X connect 7 0 0 0;
#X connect 7 0 1 1;
#X restore 20 373 pd to.list;
#X obj 20 395 outlet;
#X obj 89 395 outlet;
#X obj 20 44 t b b l l b, f 18;
#X obj 20 341 t b b, f 12;
#X obj 169 395 outlet;
#N canvas 0 22 354 583 get.all.triplets 0;
#X obj 13 91 until;
#X obj 65 113 + 1;
#X obj 13 113 f, f 7;
#X obj 13 69 t f b, f 7;
#X obj 52 91 f 0;
#X obj 13 48 f;
#X obj 13 266 until;
#X obj 65 288 + 1;
#X obj 13 288 f, f 7;
#X obj 28 26 r \$0-nangles;
#X obj 13 177 t f f, f 7;
#X obj 64 177 r \$0-nangles;
#X obj 13 199 pack f f, f 9;
#X obj 13 155 + 1;
#X msg 13 221 \$2 \$1;
#X obj 13 243 -;
#X obj 13 135 t f f, f 10;
#X obj 13 4 inlet;
#X obj 13 533 outlet;
#X obj 13 310 t f f;
#X obj 13 490 pack f f f;
#X msg 13 512 \$3 \$2 \$1;
#X obj 13 443 until;
#X obj 65 465 + 1;
#X obj 13 465 f, f 7;
#X obj 13 354 t f f, f 7;
#X obj 64 354 r \$0-nangles;
#X obj 13 376 pack f f, f 9;
#X obj 13 332 + 1;
#X msg 13 398 \$2 \$1;
#X obj 13 420 -;
#X connect 0 0 2 0;
#X connect 1 0 2 1;
#X connect 2 0 1 0;
#X connect 2 0 16 0;
#X connect 3 0 0 0;
#X connect 3 1 4 0;
#X connect 4 0 2 1;
#X connect 5 0 3 0;
#X connect 6 0 8 0;
#X connect 7 0 8 1;
#X connect 8 0 7 0;
#X connect 8 0 19 0;
#X connect 9 0 5 1;
#X connect 10 0 12 0;
#X connect 10 1 8 1;
#X connect 11 0 12 1;
#X connect 12 0 14 0;
#X connect 13 0 10 0;
#X connect 14 0 15 0;
#X connect 15 0 6 0;
#X connect 16 0 13 0;
#X connect 16 1 20 2;
#X connect 17 0 5 0;
#X connect 19 0 28 0;
#X connect 19 1 20 1;
#X connect 20 0 21 0;
#X connect 21 0 18 0;
#X connect 22 0 24 0;
#X connect 23 0 24 1;
#X connect 24 0 23 0;
#X connect 24 0 20 0;
#X connect 25 0 27 0;
#X connect 25 1 24 1;
#X connect 26 0 27 1;
#X connect 27 0 29 0;
#X connect 28 0 25 0;
#X connect 29 0 30 0;
#X connect 30 0 22 0;
#X restore 46 176 pd get.all.triplets;
#X msg 46 310 \$6 \$5 \$4 \$3 \$2 \$1;
#X connect 0 0 17 0;
#X connect 1 0 2 0;
#X connect 2 0 4 0;
#X connect 2 0 19 0;
#X connect 2 1 6 0;
#X connect 8 0 10 1;
#X connect 9 0 10 0;
#X connect 9 1 8 0;
#X connect 10 0 12 0;
#X connect 11 0 21 0;
#X connect 12 0 11 0;
#X connect 12 1 13 1;
#X connect 13 0 16 0;
#X connect 14 0 15 0;
#X connect 17 0 18 0;
#X connect 17 1 20 0;
#X connect 17 2 7 0;
#X connect 17 3 1 0;
#X connect 17 4 13 2;
#X connect 17 4 14 2;
#X connect 18 0 14 0;
#X connect 18 1 13 0;
#X connect 20 0 9 0;
#X connect 21 0 14 1;
