#N canvas 322 47 698 640 10;
#X msg 260 467 \; pd dsp 1;
#X msg 192 468 \; pd dsp 0;
#N canvas 0 22 450 300 init 0;
#X obj 14 19 loadbang;
#X msg 14 41 0;
#X obj 14 63 s \$0-angle;
#X connect 0 0 1 0;
#X connect 1 0 2 0;
#X restore 237 8 pd init;
#N canvas 0 22 450 300 header 0;
#X text 80 12 by Pierre Guillot - 2016;
#X obj 11 11 cnv 15 65 18 empty empty vbap 2 8 0 14 -262144 -66577
0;
#X coords 0 -1 1 1 222 20 2 10 10;
#X restore 9 7 pd header;
#X text 10 34 An abstraction that computes the gains of a set of loudspeakers
for the spatialization of a virtual source using V. Pulkki's Vector
Base Amplitude Panning technique., f 57;
#X text 10 104 The argument is the name of the text object that contains
a line starting with "angles" and the angles in degrees of the loudspeakers.
The angles should be in ascending order. If you change the angles of
the text object \, you can bang the right inlet to re-compute the matrices.
You can also change the text object by sending the name of the new
text object as a symbol in the right inlet., f 105;
#X obj 156 441 text define -k \$0-angles;
#A set stereo 45 -45 \; octo 0 45 90 135 180 225 270 315 \; five 0
30 110 250 330 \; cube 45 35.3 135 35.3 225 35.3 315 35.3 45 -35.3
135 -35.3 225 -35.3 315 -35.3 \; tri 45 0 0 35.3 -45 0 \; last 45 0
0 35.3 -45 0 45 35.3 135 35.3 225 35.3 315 35.3 45 -35.3 135 -35.3
225 -35.3 315 -35.3 \;;
#N canvas 0 22 415 475 example.3d.triangle 0;
#X obj 43 230 noise~;
#X text 151 38 Angle of the virtual source in degrees, f 21;
#X text 202 347 Gains of the loudspkeakers, f 13;
#N canvas 0 22 250 192 vector.gain.tri~ 0;
#X obj 26 15 inlet~;
#X obj 54 107 *~;
#X obj 69 15 inlet;
#X msg 69 59 \$1 20;
#X obj 69 81 line~;
#X obj 54 129 outlet~;
#X obj 103 107 *~;
#X msg 118 59 \$1 20;
#X obj 118 81 line~;
#X obj 103 129 outlet~;
#X obj 69 37 unpack f f f, f 17;
#X obj 153 107 *~;
#X msg 168 59 \$1 20;
#X obj 168 81 line~;
#X obj 153 129 outlet~;
#X connect 0 0 1 0;
#X connect 0 0 6 0;
#X connect 0 0 11 0;
#X connect 1 0 5 0;
#X connect 2 0 10 0;
#X connect 3 0 4 0;
#X connect 4 0 1 1;
#X connect 6 0 9 0;
#X connect 7 0 8 0;
#X connect 8 0 6 1;
#X connect 10 0 3 0;
#X connect 10 1 7 0;
#X connect 10 2 12 0;
#X connect 11 0 14 0;
#X connect 12 0 13 0;
#X connect 13 0 11 1;
#X restore 43 282 pd vector.gain.tri~;
#X obj 154 78 nbx 5 14 -45 45 0 0 empty \$0-angle empty 0 -8 0 10 -262144
-1 -1 0 256;
#X obj 154 237 pack f f, f 12;
#X obj 196 98 nbx 5 14 0 35.3 0 0 empty \$0-angle empty 0 -8 0 10 -262144
-1 -1 0 256;
#X obj 196 117 t b f;
#X obj 154 147 f;
#X obj 202 282 list prepend set;
#X obj 202 304 list trim;
#X msg 202 326 0.707107 -2.22045e-16 0.707107;
#X obj 154 212 *, f 5;
#X obj 319 229 bng 15 250 50 0 empty empty empty 17 7 0 10 -262144
-1 -1;
#X obj 181 147 / 35.3;
#X msg 181 169 1 \$1;
#X obj 181 191 -;
#X obj 43 343 misc/vu.meter~;
#X obj 98 313 misc/vu.meter~;
#X obj 154 343 misc/vu.meter~;
#X obj 154 260 p.vbap 3d text tri \$0-angles;
#X connect 0 0 3 0;
#X connect 3 0 17 0;
#X connect 3 1 18 0;
#X connect 3 2 19 0;
#X connect 4 0 8 0;
#X connect 5 0 20 0;
#X connect 6 0 7 0;
#X connect 7 0 8 0;
#X connect 7 1 5 1;
#X connect 7 1 14 0;
#X connect 8 0 12 0;
#X connect 9 0 10 0;
#X connect 10 0 11 0;
#X connect 12 0 5 0;
#X connect 13 0 20 1;
#X connect 14 0 15 0;
#X connect 15 0 16 0;
#X connect 16 0 12 1;
#X connect 20 0 3 1;
#X connect 20 0 9 0;
#X restore 13 501 pd example.3d.triangle;
#N canvas 0 22 450 300 example.2d.stereo 0;
#X obj 154 63 nbx 5 14 -45 45 0 0 empty \$0-angle empty 0 -8 0 10 -262144
-1 -1 0 256;
#X obj 184 104 list prepend set;
#X obj 184 126 list trim;
#X obj 25 82 noise~;
#N canvas 0 22 250 192 vector.gain.stereo~ 0;
#X obj 26 15 inlet~;
#X obj 54 107 *~;
#X obj 69 15 inlet;
#X msg 69 59 \$1 20;
#X obj 69 81 line~;
#X obj 54 129 outlet~;
#X obj 103 107 *~;
#X msg 118 59 \$1 20;
#X obj 118 81 line~;
#X obj 103 129 outlet~;
#X obj 69 37 unpack f f, f 11;
#X connect 0 0 1 0;
#X connect 0 0 6 0;
#X connect 1 0 5 0;
#X connect 2 0 10 0;
#X connect 3 0 4 0;
#X connect 4 0 1 1;
#X connect 6 0 9 0;
#X connect 7 0 8 0;
#X connect 8 0 6 1;
#X connect 10 0 3 0;
#X connect 10 1 7 0;
#X restore 25 104 pd vector.gain.stereo~;
#X text 151 30 Angle of the virtual source in degrees, f 21;
#X text 184 169 Gains of the loudspkeakers, f 13;
#X msg 184 148 0.707107 0.707107;
#X obj 329 58 bng 15 250 50 0 empty empty empty 17 7 0 10 -262144 -1
-1;
#X obj 25 135 misc/vu.meter~;
#X obj 154 135 misc/vu.meter~;
#X obj 154 82 p.vbap 2d text stereo \$0-angles;
#X connect 0 0 11 0;
#X connect 1 0 2 0;
#X connect 2 0 7 0;
#X connect 3 0 4 0;
#X connect 4 0 9 0;
#X connect 4 1 10 0;
#X connect 8 0 11 1;
#X connect 11 0 1 0;
#X connect 11 0 4 1;
#X restore 13 441 pd example.2d.stereo;
#N canvas 0 22 450 300 example.2d.octo 0;
#N canvas 0 22 496 180 vector.gain.octo~ 0;
#X obj 26 15 inlet~;
#X obj 54 107 *~;
#X obj 69 15 inlet;
#X obj 69 37 unpack f f f f f f f f, f 58;
#X msg 69 59 \$1 20;
#X obj 69 81 line~;
#X obj 54 129 outlet~;
#X obj 103 107 *~;
#X msg 118 59 \$1 20;
#X obj 118 81 line~;
#X obj 103 129 outlet~;
#X obj 152 107 *~;
#X msg 167 59 \$1 20;
#X obj 167 81 line~;
#X obj 152 129 outlet~;
#X obj 201 107 *~;
#X msg 216 59 \$1 20;
#X obj 216 81 line~;
#X obj 201 129 outlet~;
#X obj 251 107 *~;
#X msg 266 59 \$1 20;
#X obj 266 81 line~;
#X obj 251 129 outlet~;
#X obj 300 107 *~;
#X msg 315 59 \$1 20;
#X obj 315 81 line~;
#X obj 300 129 outlet~;
#X obj 349 107 *~;
#X msg 364 59 \$1 20;
#X obj 364 81 line~;
#X obj 349 129 outlet~;
#X obj 398 107 *~;
#X msg 413 59 \$1 20;
#X obj 413 81 line~;
#X obj 398 129 outlet~;
#X connect 0 0 1 0;
#X connect 0 0 7 0;
#X connect 0 0 11 0;
#X connect 0 0 15 0;
#X connect 0 0 19 0;
#X connect 0 0 23 0;
#X connect 0 0 27 0;
#X connect 0 0 31 0;
#X connect 1 0 6 0;
#X connect 2 0 3 0;
#X connect 3 0 4 0;
#X connect 3 1 8 0;
#X connect 3 2 12 0;
#X connect 3 3 16 0;
#X connect 3 4 20 0;
#X connect 3 5 24 0;
#X connect 3 6 28 0;
#X connect 3 7 32 0;
#X connect 4 0 5 0;
#X connect 5 0 1 1;
#X connect 7 0 10 0;
#X connect 8 0 9 0;
#X connect 9 0 7 1;
#X connect 11 0 14 0;
#X connect 12 0 13 0;
#X connect 13 0 11 1;
#X connect 15 0 18 0;
#X connect 16 0 17 0;
#X connect 17 0 15 1;
#X connect 19 0 22 0;
#X connect 20 0 21 0;
#X connect 21 0 19 1;
#X connect 23 0 26 0;
#X connect 24 0 25 0;
#X connect 25 0 23 1;
#X connect 27 0 30 0;
#X connect 28 0 29 0;
#X connect 29 0 27 1;
#X connect 31 0 34 0;
#X connect 32 0 33 0;
#X connect 33 0 31 1;
#X restore 43 108 pd vector.gain.octo~;
#X obj 43 85 noise~;
#X text 158 24 Angle of the virtual source in degrees, f 21;
#X text 179 172 Gains of the loudspkeakers, f 13;
#N canvas 252 23 618 319 loudspks.display~ 0;
#X obj 238 96 inlet~;
#X obj 157 107 cnv 10 10 10 empty \$0-ls-octo-1 empty 20 12 0 14 -166441
-262144 0;
#X obj 248 145 inlet~;
#X obj 127 127 cnv 10 10 10 empty \$0-ls-octo-2 empty 20 12 0 14 -166441
-262144 0;
#X obj 107 157 cnv 10 10 10 empty \$0-ls-octo-3 empty 20 12 0 14 -166441
-262144 0;
#X obj 157 207 cnv 10 10 10 empty \$0-ls-octo-5 empty 20 12 0 14 -166441
-262144 0;
#X obj 127 187 cnv 10 10 10 empty \$0-ls-octo-4 empty 20 12 0 14 -166441
-262144 0;
#X obj 187 127 cnv 10 10 10 empty \$0-ls-octo-8 empty 20 12 0 14 -166441
-262144 0;
#X obj 207 157 cnv 10 10 10 empty \$0-ls-octo-7 empty 20 12 0 14 -166441
-262144 0;
#X obj 187 187 cnv 10 10 10 empty \$0-ls-octo-6 empty 20 12 0 14 -166441
-262144 0;
#X obj 268 196 inlet~;
#X obj 278 245 inlet~;
#X obj 408 96 inlet~;
#X obj 418 145 inlet~;
#X obj 438 196 inlet~;
#X obj 448 245 inlet~;
#X obj 238 122 misc/color.ls~ \$0-ls-octo-1;
#X obj 248 171 misc/color.ls~ \$0-ls-octo-2;
#X obj 268 222 misc/color.ls~ \$0-ls-octo-3;
#X obj 278 271 misc/color.ls~ \$0-ls-octo-4;
#X obj 408 122 misc/color.ls~ \$0-ls-octo-5;
#X obj 418 171 misc/color.ls~ \$0-ls-octo-6;
#X obj 438 222 misc/color.ls~ \$0-ls-octo-7;
#X obj 448 271 misc/color.ls~ \$0-ls-octo-8;
#X connect 0 0 16 0;
#X connect 2 0 17 0;
#X connect 10 0 18 0;
#X connect 11 0 19 0;
#X connect 12 0 20 0;
#X connect 13 0 21 0;
#X connect 14 0 22 0;
#X connect 15 0 23 0;
#X coords 0 -1 1 1 124 124 2 100 100;
#X restore 43 133 pd loudspks.display~;
#X obj 181 59 nbx 5 14 -1e+37 1e+37 0 0 empty empty empty 0 -8 0 10
-262144 -1 -1 0 256;
#X obj 181 102 list prepend set;
#X obj 181 124 list trim;
#X msg 181 146 0 0.990933 0.134361 0 0 0 0 0;
#X obj 352 57 bng 15 250 50 0 empty empty empty 17 7 0 10 -262144 -1
-1;
#X obj 181 80 p.vbap 2d text octo \$0-angles;
#X connect 0 0 4 0;
#X connect 0 1 4 1;
#X connect 0 2 4 2;
#X connect 0 3 4 3;
#X connect 0 4 4 4;
#X connect 0 5 4 5;
#X connect 0 6 4 6;
#X connect 0 7 4 7;
#X connect 1 0 0 0;
#X connect 5 0 10 0;
#X connect 6 0 7 0;
#X connect 7 0 8 0;
#X connect 9 0 10 1;
#X connect 10 0 6 0;
#X connect 10 0 0 1;
#X restore 13 461 pd example.2d.octo;
#N canvas 371 127 450 300 example.2d.five 0;
#X obj 43 85 noise~;
#X text 158 24 Angle of the virtual source in degrees, f 21;
#X text 179 172 Gains of the loudspkeakers, f 13;
#N canvas 252 23 618 319 loudspks.display~ 0;
#X obj 238 96 inlet~;
#X obj 157 113 cnv 10 10 10 empty \$0-ls-five-1 empty 20 12 0 14 -166441
-262144 0;
#X obj 248 145 inlet~;
#X obj 117 133 cnv 10 10 10 empty \$0-ls-five-2 empty 20 12 0 14 -166441
-262144 0;
#X obj 127 203 cnv 10 10 10 empty \$0-ls-five-3 empty 20 12 0 14 -166441
-262144 0;
#X obj 197 133 cnv 10 10 10 empty \$0-ls-five-5 empty 20 12 0 14 -166441
-262144 0;
#X obj 187 203 cnv 10 10 10 empty \$0-ls-five-4 empty 20 12 0 14 -166441
-262144 0;
#X obj 268 196 inlet~;
#X obj 278 245 inlet~;
#X obj 408 96 inlet~;
#X obj 238 122 misc/color.ls~ \$0-ls-five-1;
#X obj 248 171 misc/color.ls~ \$0-ls-five-2;
#X obj 268 222 misc/color.ls~ \$0-ls-five-3;
#X obj 278 271 misc/color.ls~ \$0-ls-five-4;
#X obj 408 122 misc/color.ls~ \$0-ls-five-5;
#X connect 0 0 10 0;
#X connect 2 0 11 0;
#X connect 7 0 12 0;
#X connect 8 0 13 0;
#X connect 9 0 14 0;
#X coords 0 -1 1 1 124 124 2 100 100;
#X restore 43 133 pd loudspks.display~;
#X obj 181 59 nbx 5 14 -1e+37 1e+37 0 0 empty empty empty 0 -8 0 10
-262144 -1 -1 0 256;
#X obj 181 102 list prepend set;
#X obj 181 124 list trim;
#X msg 181 146 0 0 0.832981 0.553302 0;
#X obj 352 57 bng 15 250 50 0 empty empty empty 17 7 0 10 -262144 -1
-1;
#N canvas 0 22 496 180 vector.gain.five~ 0;
#X obj 26 15 inlet~;
#X obj 54 107 *~;
#X obj 69 15 inlet;
#X msg 69 59 \$1 20;
#X obj 69 81 line~;
#X obj 54 129 outlet~;
#X obj 103 107 *~;
#X msg 118 59 \$1 20;
#X obj 118 81 line~;
#X obj 103 129 outlet~;
#X obj 152 107 *~;
#X msg 167 59 \$1 20;
#X obj 167 81 line~;
#X obj 152 129 outlet~;
#X obj 201 107 *~;
#X msg 216 59 \$1 20;
#X obj 216 81 line~;
#X obj 201 129 outlet~;
#X obj 251 107 *~;
#X msg 266 59 \$1 20;
#X obj 266 81 line~;
#X obj 251 129 outlet~;
#X obj 69 37 unpack f f f f f, f 34;
#X connect 0 0 1 0;
#X connect 0 0 6 0;
#X connect 0 0 10 0;
#X connect 0 0 14 0;
#X connect 0 0 18 0;
#X connect 1 0 5 0;
#X connect 2 0 22 0;
#X connect 3 0 4 0;
#X connect 4 0 1 1;
#X connect 6 0 9 0;
#X connect 7 0 8 0;
#X connect 8 0 6 1;
#X connect 10 0 13 0;
#X connect 11 0 12 0;
#X connect 12 0 10 1;
#X connect 14 0 17 0;
#X connect 15 0 16 0;
#X connect 16 0 14 1;
#X connect 18 0 21 0;
#X connect 19 0 20 0;
#X connect 20 0 18 1;
#X connect 22 0 3 0;
#X connect 22 1 7 0;
#X connect 22 2 11 0;
#X connect 22 3 15 0;
#X connect 22 4 19 0;
#X restore 43 108 pd vector.gain.five~;
#X msg 326 31 print;
#X obj 181 80 p.vbap 2d text five \$0-angles;
#X connect 0 0 9 0;
#X connect 4 0 11 0;
#X connect 5 0 6 0;
#X connect 6 0 7 0;
#X connect 8 0 11 1;
#X connect 9 0 3 0;
#X connect 9 1 3 1;
#X connect 9 2 3 2;
#X connect 9 3 3 3;
#X connect 9 4 3 4;
#X connect 10 0 11 1;
#X connect 11 0 5 0;
#X connect 11 0 9 1;
#X restore 13 481 pd example.2d.five;
#N canvas 428 73 810 561 example.3d.cube 1;
#X obj 196 192 list prepend set;
#X obj 196 214 list trim;
#X obj 192 100 nbx 5 14 -1e+37 1e+37 0 0 empty \$0-angle empty 0 -8
0 10 -262144 -1 -1 242 256;
#X obj 196 148 pack f f, f 15;
#X obj 256 99 nbx 5 14 -1e+37 1e+37 0 0 empty \$0-angle empty 0 -8
0 10 -262144 -1 -1 35.3 256;
#X obj 256 118 t b f;
#X obj 196 127 f;
#X obj 248 276 noise~;
#N canvas 252 23 618 319 loudspks.display~ 0;
#X obj 238 96 inlet~;
#X obj 137 121 cnv 10 10 10 empty \$0-ls-8-1 empty 20 12 0 14 -166441
-262144 0;
#X obj 248 145 inlet~;
#X obj 137 161 cnv 10 10 10 empty \$0-ls-8-2 empty 20 12 0 14 -166441
-262144 0;
#X obj 177 161 cnv 10 10 10 empty \$0-ls-8-3 empty 20 12 0 14 -260818
-260818 0;
#X obj 137 241 cnv 10 10 10 empty \$0-ls-8-6 empty 20 12 0 14 -166441
-262144 0;
#X obj 177 121 cnv 10 10 10 empty \$0-ls-8-4 empty 20 12 0 14 -241291
-241291 0;
#X obj 137 201 cnv 10 10 10 empty \$0-ls-8-5 empty 20 12 0 14 -166441
-262144 0;
#X obj 177 201 cnv 10 10 10 empty \$0-ls-8-8 empty 20 12 0 14 -166441
-262144 0;
#X obj 177 241 cnv 10 10 10 empty \$0-ls-8-7 empty 20 12 0 14 -42246
-42246 0;
#X obj 268 196 inlet~;
#X obj 278 245 inlet~;
#X obj 408 96 inlet~;
#X obj 418 145 inlet~;
#X obj 438 196 inlet~;
#X obj 448 245 inlet~;
#X text 137 105 0;
#X text 137 145 1;
#X text 177 145 2;
#X text 177 105 3;
#X text 137 185 4;
#X text 137 225 5;
#X text 177 225 6;
#X text 177 185 7;
#X obj 238 122 misc/color.ls~ \$0-ls-8-1;
#X obj 248 171 misc/color.ls~ \$0-ls-8-2;
#X obj 268 222 misc/color.ls~ \$0-ls-8-3;
#X obj 278 271 misc/color.ls~ \$0-ls-8-4;
#X obj 408 122 misc/color.ls~ \$0-ls-8-5;
#X obj 418 171 misc/color.ls~ \$0-ls-8-6;
#X obj 438 222 misc/color.ls~ \$0-ls-8-7;
#X obj 448 271 misc/color.ls~ \$0-ls-8-8;
#X connect 0 0 24 0;
#X connect 2 0 25 0;
#X connect 10 0 26 0;
#X connect 11 0 27 0;
#X connect 12 0 28 0;
#X connect 13 0 29 0;
#X connect 14 0 30 0;
#X connect 15 0 31 0;
#X coords 0 -1 1 1 124 165 2 100 100;
#X restore 248 324 pd loudspks.display~;
#N canvas 0 22 496 180 vector.gain.cube~ 0;
#X obj 26 15 inlet~;
#X obj 54 107 *~;
#X obj 69 15 inlet;
#X obj 69 37 unpack f f f f f f f f, f 58;
#X msg 69 59 \$1 20;
#X obj 69 81 line~;
#X obj 54 129 outlet~;
#X obj 103 107 *~;
#X msg 118 59 \$1 20;
#X obj 118 81 line~;
#X obj 103 129 outlet~;
#X obj 152 107 *~;
#X msg 167 59 \$1 20;
#X obj 167 81 line~;
#X obj 152 129 outlet~;
#X obj 201 107 *~;
#X msg 216 59 \$1 20;
#X obj 216 81 line~;
#X obj 201 129 outlet~;
#X obj 251 107 *~;
#X msg 266 59 \$1 20;
#X obj 266 81 line~;
#X obj 251 129 outlet~;
#X obj 300 107 *~;
#X msg 315 59 \$1 20;
#X obj 315 81 line~;
#X obj 300 129 outlet~;
#X obj 349 107 *~;
#X msg 364 59 \$1 20;
#X obj 364 81 line~;
#X obj 349 129 outlet~;
#X obj 398 107 *~;
#X msg 413 59 \$1 20;
#X obj 413 81 line~;
#X obj 398 129 outlet~;
#X connect 0 0 1 0;
#X connect 0 0 7 0;
#X connect 0 0 11 0;
#X connect 0 0 15 0;
#X connect 0 0 19 0;
#X connect 0 0 23 0;
#X connect 0 0 27 0;
#X connect 0 0 31 0;
#X connect 1 0 6 0;
#X connect 2 0 3 0;
#X connect 3 0 4 0;
#X connect 3 1 8 0;
#X connect 3 2 12 0;
#X connect 3 3 16 0;
#X connect 3 4 20 0;
#X connect 3 5 24 0;
#X connect 3 6 28 0;
#X connect 3 7 32 0;
#X connect 4 0 5 0;
#X connect 5 0 1 1;
#X connect 7 0 10 0;
#X connect 8 0 9 0;
#X connect 9 0 7 1;
#X connect 11 0 14 0;
#X connect 12 0 13 0;
#X connect 13 0 11 1;
#X connect 15 0 18 0;
#X connect 16 0 17 0;
#X connect 17 0 15 1;
#X connect 19 0 22 0;
#X connect 20 0 21 0;
#X connect 21 0 19 1;
#X connect 23 0 26 0;
#X connect 24 0 25 0;
#X connect 25 0 23 1;
#X connect 27 0 30 0;
#X connect 28 0 29 0;
#X connect 29 0 27 1;
#X connect 31 0 34 0;
#X connect 32 0 33 0;
#X connect 33 0 31 1;
#X restore 248 299 pd vector.gain.cube~;
#X obj 322 133 bng 15 250 50 0 empty empty empty 17 7 0 10 -262144
-1 -1;
#X msg 196 236 0 0 0.976934 0.171658 0 0 0 0.12702;
#X msg 128 38 0;
#X msg 168 38 45;
#X msg 348 109 text last;
#X msg 348 129 text cube;
#X msg 187 59 35.3;
#X msg 207 29 -35.3;
#X msg 198 8 135;
#X msg 417 130 print;
#X obj 196 171 p.vbap 3d text cube \$0-angles;
#X obj 485 163 list prepend define_loudspeakers 3;
#X obj 485 208 vbap 0 0 0, f 11;
#X obj 485 185 list trim;
#N canvas 0 22 137 159 get.text 0;
#X obj 8 95 list split 1, f 13;
#X obj 8 31 unpack s s;
#X obj 8 11 inlet;
#X obj 45 117 outlet;
#X obj 8 51 text search, f 15;
#X obj 8 73 text get, f 12;
#X connect 0 1 3 0;
#X connect 1 0 4 0;
#X connect 1 1 4 1;
#X connect 1 1 5 3;
#X connect 2 0 1 0;
#X connect 4 0 5 0;
#X connect 5 0 0 0;
#X restore 493 133 pd get.text;
#X msg 494 103 cube \$1;
#X obj 497 81 symbol \$0-angles;
#X obj 501 53 bng 15 250 50 0 empty empty empty 17 7 0 10 -262144 -1
-1;
#X obj 619 221 print;
#X obj 577 132 t b f;
#X obj 485 230 route 0 1 2 3 4 5 6 7, f 22;
#X obj 485 252 pack f f f f f f f f f;
#X obj 485 276 list prepend set;
#X obj 485 298 list trim;
#X msg 485 320 0 0 0.925787 0.34845 0 0 0.14663 0 0;
#X obj 666 142 t b f;
#X msg 294 1 90;
#X obj 68 276 noise~;
#N canvas 252 23 618 319 loudspks.display~ 0;
#X obj 238 96 inlet~;
#X obj 137 121 cnv 10 10 10 empty \$0-ls-8c-1 empty 20 12 0 14 -166441
-262144 0;
#X obj 248 145 inlet~;
#X obj 137 161 cnv 10 10 10 empty \$0-ls-8c-2 empty 20 12 0 14 -166441
-262144 0;
#X obj 177 161 cnv 10 10 10 empty \$0-ls-8c-3 empty 20 12 0 14 -260818
-260818 0;
#X obj 137 241 cnv 10 10 10 empty \$0-ls-8c-6 empty 20 12 0 14 -166441
-262144 0;
#X obj 177 121 cnv 10 10 10 empty \$0-ls-8c-4 empty 20 12 0 14 -42246
-42246 0;
#X obj 137 201 cnv 10 10 10 empty \$0-ls-8c-5 empty 20 12 0 14 -166441
-262144 0;
#X obj 177 201 cnv 10 10 10 empty \$0-ls-8c-8 empty 20 12 0 14 -42246
-42246 0;
#X obj 177 241 cnv 10 10 10 empty \$0-ls-8c-7 empty 20 12 0 14 -166441
-262144 0;
#X obj 268 196 inlet~;
#X obj 278 245 inlet~;
#X obj 408 96 inlet~;
#X obj 418 145 inlet~;
#X obj 438 196 inlet~;
#X obj 448 245 inlet~;
#X text 137 105 0;
#X text 137 145 1;
#X text 177 145 2;
#X text 177 105 3;
#X text 137 185 4;
#X text 137 225 5;
#X text 177 225 6;
#X text 177 185 7;
#X obj 238 122 misc/color.ls~ \$0-ls-8c-1;
#X obj 268 222 misc/color.ls~ \$0-ls-8c-3;
#X obj 248 171 misc/color.ls~ \$0-ls-8c-2;
#X obj 278 271 misc/color.ls~ \$0-ls-8c-4;
#X obj 408 122 misc/color.ls~ \$0-ls-8c-5;
#X obj 418 171 misc/color.ls~ \$0-ls-8c-6;
#X obj 438 222 misc/color.ls~ \$0-ls-8c-7;
#X obj 448 271 misc/color.ls~ \$0-ls-8c-8;
#X connect 0 0 24 0;
#X connect 2 0 26 0;
#X connect 10 0 25 0;
#X connect 11 0 27 0;
#X connect 12 0 28 0;
#X connect 13 0 29 0;
#X connect 14 0 30 0;
#X connect 15 0 31 0;
#X coords 0 -1 1 1 124 165 2 100 100;
#X restore 68 324 pd loudspks.display~;
#N canvas 0 22 496 180 vector.gain.cube~ 0;
#X obj 26 15 inlet~;
#X obj 54 107 *~;
#X obj 69 15 inlet;
#X obj 69 37 unpack f f f f f f f f, f 58;
#X msg 69 59 \$1 20;
#X obj 69 81 line~;
#X obj 54 129 outlet~;
#X obj 103 107 *~;
#X msg 118 59 \$1 20;
#X obj 118 81 line~;
#X obj 103 129 outlet~;
#X obj 152 107 *~;
#X msg 167 59 \$1 20;
#X obj 167 81 line~;
#X obj 152 129 outlet~;
#X obj 201 107 *~;
#X msg 216 59 \$1 20;
#X obj 216 81 line~;
#X obj 201 129 outlet~;
#X obj 251 107 *~;
#X msg 266 59 \$1 20;
#X obj 266 81 line~;
#X obj 251 129 outlet~;
#X obj 300 107 *~;
#X msg 315 59 \$1 20;
#X obj 315 81 line~;
#X obj 300 129 outlet~;
#X obj 349 107 *~;
#X msg 364 59 \$1 20;
#X obj 364 81 line~;
#X obj 349 129 outlet~;
#X obj 398 107 *~;
#X msg 413 59 \$1 20;
#X obj 413 81 line~;
#X obj 398 129 outlet~;
#X connect 0 0 1 0;
#X connect 0 0 7 0;
#X connect 0 0 11 0;
#X connect 0 0 15 0;
#X connect 0 0 19 0;
#X connect 0 0 23 0;
#X connect 0 0 27 0;
#X connect 0 0 31 0;
#X connect 1 0 6 0;
#X connect 2 0 3 0;
#X connect 3 0 4 0;
#X connect 3 1 8 0;
#X connect 3 2 12 0;
#X connect 3 3 16 0;
#X connect 3 4 20 0;
#X connect 3 5 24 0;
#X connect 3 6 28 0;
#X connect 3 7 32 0;
#X connect 4 0 5 0;
#X connect 5 0 1 1;
#X connect 7 0 10 0;
#X connect 8 0 9 0;
#X connect 9 0 7 1;
#X connect 11 0 14 0;
#X connect 12 0 13 0;
#X connect 13 0 11 1;
#X connect 15 0 18 0;
#X connect 16 0 17 0;
#X connect 17 0 15 1;
#X connect 19 0 22 0;
#X connect 20 0 21 0;
#X connect 21 0 19 1;
#X connect 23 0 26 0;
#X connect 24 0 25 0;
#X connect 25 0 23 1;
#X connect 27 0 30 0;
#X connect 28 0 29 0;
#X connect 29 0 27 1;
#X connect 31 0 34 0;
#X connect 32 0 33 0;
#X connect 33 0 31 1;
#X restore 68 299 pd vector.gain.cube~;
#X connect 0 0 1 0;
#X connect 1 0 11 0;
#X connect 2 0 6 0;
#X connect 2 0 29 0;
#X connect 3 0 20 0;
#X connect 4 0 5 0;
#X connect 4 0 35 0;
#X connect 5 0 6 0;
#X connect 5 1 3 1;
#X connect 6 0 3 0;
#X connect 7 0 9 0;
#X connect 9 0 8 0;
#X connect 9 1 8 1;
#X connect 9 2 8 2;
#X connect 9 3 8 3;
#X connect 9 4 8 4;
#X connect 9 5 8 5;
#X connect 9 6 8 6;
#X connect 9 7 8 7;
#X connect 10 0 20 1;
#X connect 12 0 2 0;
#X connect 13 0 2 0;
#X connect 14 0 20 1;
#X connect 15 0 20 1;
#X connect 16 0 4 0;
#X connect 17 0 4 0;
#X connect 18 0 2 0;
#X connect 19 0 20 1;
#X connect 20 0 0 0;
#X connect 20 0 39 1;
#X connect 21 0 23 0;
#X connect 22 0 30 0;
#X connect 23 0 22 0;
#X connect 24 0 21 0;
#X connect 24 0 28 0;
#X connect 25 0 24 0;
#X connect 26 0 25 0;
#X connect 27 0 26 0;
#X connect 29 0 22 0;
#X connect 29 1 22 1;
#X connect 30 0 31 0;
#X connect 30 1 31 1;
#X connect 30 2 31 2;
#X connect 30 3 31 3;
#X connect 30 4 31 4;
#X connect 30 5 31 5;
#X connect 30 6 31 6;
#X connect 30 7 31 7;
#X connect 30 8 31 8;
#X connect 31 0 32 0;
#X connect 31 0 9 1;
#X connect 32 0 33 0;
#X connect 33 0 34 0;
#X connect 35 0 22 0;
#X connect 35 1 22 2;
#X connect 36 0 2 0;
#X connect 37 0 39 0;
#X connect 39 0 38 0;
#X connect 39 1 38 1;
#X connect 39 2 38 2;
#X connect 39 3 38 3;
#X connect 39 4 38 4;
#X connect 39 5 38 5;
#X connect 39 6 38 6;
#X connect 39 7 38 7;
#X restore 13 521 pd example.3d.cube;
#X obj 389 508 vbap, f 11;
#X msg 350 420 define_loudspeakers 3 -45 45 -135 135 32 5 94 34 34
11;
#X obj 389 476 list prepend define_loudspeakers 3;
#X connect 14 0 12 0;
