#N canvas 464 99 793 369 10;
#X obj 48 26 inlet;
#X obj 48 340 outlet;
#X obj 48 206 2d/gain.scale;
#X obj 48 183 2d/mat.vec.mul, f 15;
#X obj 428 83 list length;
#X obj 583 22 array define \$0-angles;
#X obj 583 42 array define \$0-matrices;
#X obj 583 164 array size \$0-angles;
#X obj 408 126 array set \$0-angles;
#X obj 593 120 * 4;
#X obj 593 142 array size \$0-matrices;
#X obj 428 105 s \$0-nangles;
#X obj 583 93 r \$0-nangles;
#X obj 389 237 array set \$0-matrices, f 23;
#X obj 458 214 * 4;
#X obj 48 162 2d/pol.to.car;
#X obj 135 162 array get \$0-matrices;
#X obj 583 62 array define \$0-outputs;
#X obj 583 185 array size \$0-outputs;
#X msg 207 67 const 0;
#X obj 207 89 s \$0-outputs;
#X obj 75 290 array set \$0-outputs;
#X obj 177 270 array set \$0-outputs;
#X obj 48 228 unpack f f, f 22;
#X obj 48 250 t b f;
#X obj 48 320 array get \$0-outputs;
#X obj 389 13 inlet;
#N canvas 0 22 156 201 loop.nangles 0;
#X obj 24 79 f;
#X obj 24 123 until;
#X obj 76 145 + 1;
#X obj 24 145 f, f 7;
#X obj 24 101 t f b, f 7;
#X obj 63 123 f 0;
#X obj 39 58 r \$0-nangles;
#X obj 24 8 inlet;
#X obj 24 167 outlet;
#X obj 24 30 bang;
#X connect 0 0 4 0;
#X connect 1 0 3 0;
#X connect 2 0 3 1;
#X connect 3 0 2 0;
#X connect 3 0 8 0;
#X connect 4 0 1 0;
#X connect 4 1 5 0;
#X connect 5 0 3 1;
#X connect 6 0 0 1;
#X connect 7 0 9 0;
#X connect 9 0 0 0;
#X restore 389 148 pd loop.nangles;
#N canvas 0 22 413 226 get.angles 0;
#X obj 24 129 text search \$1, f 23;
#X obj 24 18 loadbang;
#X msg 24 109 symbol angles;
#X obj 24 151 text get \$1, f 23;
#X obj 24 173 list split 1;
#X obj 83 62 bang;
#X obj 132 63 t b s;
#X obj 83 42 route bang symbol;
#X obj 83 18 inlet;
#X obj 58 194 outlet;
#X text 195 43 bang to resend the angles;
#X text 195 63 symbol to change the text name;
#X connect 0 0 3 0;
#X connect 1 0 2 0;
#X connect 2 0 0 0;
#X connect 3 0 4 0;
#X connect 4 1 9 0;
#X connect 5 0 2 0;
#X connect 6 0 2 0;
#X connect 6 1 0 1;
#X connect 6 1 3 3;
#X connect 7 0 5 0;
#X connect 7 1 6 0;
#X connect 8 0 7 0;
#X restore 389 37 pd get.angles;
#X obj 389 59 t b l l;
#N canvas 0 22 468 317 compute.matrices 0;
#X obj 20 122 array get \$0-angles;
#X obj 20 100 pack f 1;
#X obj 155 55 + 1;
#X obj 155 77 %, f 5;
#X obj 155 122 array get \$0-angles;
#X obj 155 100 pack f 1;
#X obj 20 170 list append, f 23;
#X obj 20 146 2d/pol.to.car;
#X obj 155 146 2d/pol.to.car;
#X obj 182 54 r \$0-nangles;
#X obj 20 32 t f f, f 23;
#X obj 20 217 2d/mat.inv;
#X obj 20 10 inlet;
#X text 276 54 For each pair of angles compute the inverse matrix,
f 21;
#X obj 20 239 outlet matrix;
#X msg 20 194 \$4 \$3 \$2 \$1;
#X connect 0 0 7 0;
#X connect 1 0 0 0;
#X connect 2 0 3 0;
#X connect 3 0 5 0;
#X connect 4 0 8 0;
#X connect 5 0 4 0;
#X connect 6 0 15 0;
#X connect 7 0 6 0;
#X connect 8 0 6 1;
#X connect 9 0 3 1;
#X connect 10 0 1 0;
#X connect 10 1 2 0;
#X connect 11 0 14 0;
#X connect 12 0 10 0;
#X connect 15 0 11 0;
#X restore 389 194 pd compute.matrices;
#X obj 389 170 t f f, f 12;
#N canvas 0 22 418 489 get.neighbor.angles 0;
#X obj 37 68 until;
#X obj 76 68 f 0;
#X obj 37 90 f, f 7;
#X obj 86 90 + 1;
#X obj 37 155 array get \$0-angles;
#X obj 37 221 sel 1;
#X obj 37 112 t f f, f 11;
#X obj 64 290 f, f 6;
#X obj 64 424 %, f 9;
#X obj 91 353 r \$0-nangles;
#X obj 91 381 - 1;
#X obj 37 199 >, f 14;
#X obj 37 177 route float bang;
#X obj 37 134 pack f 1;
#X obj 118 109 wrap 360;
#X obj 118 88 / 360;
#X obj 118 131 * 360;
#X obj 64 402 + 1, f 5;
#X obj 100 269 %;
#X obj 37 36 t b b f, f 14;
#X obj 37 11 inlet;
#X text 172 32 Gets the indices of the loudspkeakers whose the angles
that are the nearest from the input angle, f 33;
#X obj 64 312 t f f;
#X obj 64 446 outlet;
#X obj 91 333 outlet;
#X obj 115 247 r \$0-nangles;
#X obj 64 253 bang;
#X connect 0 0 2 0;
#X connect 1 0 2 1;
#X connect 2 0 3 0;
#X connect 2 0 6 0;
#X connect 3 0 2 1;
#X connect 4 0 12 0;
#X connect 5 0 26 0;
#X connect 6 0 13 0;
#X connect 6 1 18 0;
#X connect 7 0 22 0;
#X connect 8 0 23 0;
#X connect 9 0 10 0;
#X connect 9 0 8 1;
#X connect 10 0 17 1;
#X connect 11 0 5 0;
#X connect 12 0 11 0;
#X connect 12 1 26 0;
#X connect 13 0 4 0;
#X connect 14 0 16 0;
#X connect 15 0 14 0;
#X connect 16 0 11 1;
#X connect 17 0 8 0;
#X connect 18 0 7 1;
#X connect 19 0 0 0;
#X connect 19 1 1 0;
#X connect 19 2 15 0;
#X connect 20 0 19 0;
#X connect 22 0 17 0;
#X connect 22 1 24 0;
#X connect 25 0 18 1;
#X connect 26 0 7 0;
#X connect 26 0 0 1;
#X restore 127 113 pd get.neighbor.angles;
#X obj 135 140 * 4;
#X obj 48 46 t f f b, f 27;
#X connect 0 0 34 0;
#X connect 2 0 23 0;
#X connect 3 0 2 0;
#X connect 4 0 11 0;
#X connect 9 0 10 0;
#X connect 12 0 7 0;
#X connect 12 0 9 0;
#X connect 12 0 18 0;
#X connect 14 0 13 1;
#X connect 15 0 3 0;
#X connect 16 0 3 1;
#X connect 19 0 20 0;
#X connect 23 0 24 0;
#X connect 23 1 22 0;
#X connect 24 0 25 0;
#X connect 24 1 21 0;
#X connect 25 0 1 0;
#X connect 26 0 28 0;
#X connect 27 0 31 0;
#X connect 28 0 29 0;
#X connect 29 0 27 0;
#X connect 29 1 8 0;
#X connect 29 2 4 0;
#X connect 30 0 13 0;
#X connect 31 0 30 0;
#X connect 31 1 14 0;
#X connect 32 0 21 1;
#X connect 32 0 33 0;
#X connect 32 1 22 1;
#X connect 33 0 16 0;
#X connect 34 0 15 0;
#X connect 34 1 32 0;
#X connect 34 2 19 0;
