#N canvas -1 378 793 369 10;
#X obj 48 5 inlet;
#X obj 48 370 outlet;
#X obj 440 83 list length;
#X obj 583 22 array define \$0-angles;
#X obj 583 42 array define \$0-matrices;
#X obj 593 299 array size \$0-angles;
#X obj 423 126 array set \$0-angles;
#X obj 603 277 array size \$0-matrices;
#X obj 440 105 s \$0-nangles;
#X obj 583 93 r \$0-nangles;
#X obj 406 201 array set \$0-matrices;
#X obj 135 192 array get \$0-matrices;
#X obj 583 62 array define \$0-outputs;
#X obj 583 340 array size \$0-outputs;
#X msg 207 67 const 0;
#X obj 207 89 s \$0-outputs;
#X obj 75 320 array set \$0-outputs;
#X obj 112 300 array set \$0-outputs;
#X obj 48 280 t b f;
#X obj 48 350 array get \$0-outputs;
#X obj 389 13 inlet;
#N canvas 0 22 413 226 get.angles 0;
#X obj 24 129 text search \$1, f 23;
#X obj 24 18 loadbang;
#X msg 24 109 symbol angles;
#X obj 24 151 text get \$1, f 23;
#X obj 24 173 list split 1;
#X obj 83 62 bang;
#X obj 132 63 t b s;
#X obj 83 42 route bang symbol;
#X obj 83 18 inlet;
#X obj 58 194 outlet;
#X text 195 43 bang to resend the angles;
#X text 195 63 symbol to change the text name;
#X connect 0 0 3 0;
#X connect 1 0 2 0;
#X connect 2 0 0 0;
#X connect 3 0 4 0;
#X connect 4 1 9 0;
#X connect 5 0 2 0;
#X connect 6 0 2 0;
#X connect 6 1 0 1;
#X connect 6 1 3 3;
#X connect 7 0 5 0;
#X connect 7 1 6 0;
#X connect 8 0 7 0;
#X restore 389 37 pd get.angles;
#N canvas 0 22 468 317 compute.matrices 0;
#X obj 20 10 inlet;
#X obj 20 213 outlet matrix;
#X obj 20 32 unpack f f f, f 21;
#N canvas 243 375 450 300 get.coor 0;
#X obj 20 98 array get \$0-angles;
#X obj 20 54 * 2;
#X obj 20 76 pack f 2;
#X obj 20 31 inlet;
#X obj 20 144 outlet;
#X obj 20 122 3d/pol.to.car;
#X connect 0 0 5 0;
#X connect 1 0 2 0;
#X connect 2 0 0 0;
#X connect 3 0 1 0;
#X connect 5 0 4 0;
#X restore 20 57 pd get.coor;
#X text 235 81 For each triplet of angles compute the inverse matrix
, f 21;
#N canvas 243 375 450 300 get.coor 0;
#X obj 20 98 array get \$0-angles;
#X obj 20 54 * 2;
#X obj 20 76 pack f 2;
#X obj 20 31 inlet;
#X obj 20 144 outlet;
#X obj 20 122 3d/pol.to.car;
#X connect 0 0 5 0;
#X connect 1 0 2 0;
#X connect 2 0 0 0;
#X connect 3 0 1 0;
#X connect 5 0 4 0;
#X restore 83 81 pd get.coor;
#N canvas 243 375 450 300 get.coor 0;
#X obj 20 98 array get \$0-angles;
#X obj 20 54 * 2;
#X obj 20 76 pack f 2;
#X obj 20 31 inlet;
#X obj 20 144 outlet;
#X obj 20 122 3d/pol.to.car;
#X connect 0 0 5 0;
#X connect 1 0 2 0;
#X connect 2 0 0 0;
#X connect 3 0 1 0;
#X connect 5 0 4 0;
#X restore 146 101 pd get.coor;
#X text 191 169 Transpose;
#X obj 20 191 3d/mat.inv;
#X msg 20 168 \$9 \$8 \$7 \$6 \$5 \$4 \$3 \$2 \$1;
#X text 91 192 Inverse;
#X obj 83 122 list append;
#X obj 20 142 list append;
#X connect 0 0 2 0;
#X connect 2 0 3 0;
#X connect 2 1 5 0;
#X connect 2 2 6 0;
#X connect 3 0 12 0;
#X connect 5 0 11 0;
#X connect 6 0 11 1;
#X connect 8 0 1 0;
#X connect 9 0 8 0;
#X connect 11 0 12 1;
#X connect 12 0 9 0;
#X restore 406 175 pd compute.matrices;
#N canvas 313 23 647 780 get.neighbor.angles 1;
#X obj 94 51 f, f 7;
#X obj 94 95 until;
#X obj 152 117 + 1;
#X obj 94 117 f, f 8;
#X obj 140 95 f 0;
#X obj 133 8 r \$0-nangles;
#X obj 13 8 inlet;
#X obj 94 224 until;
#X obj 146 246 + 1;
#X obj 94 246 f, f 7;
#X obj 134 224 + 1;
#X obj 94 73 t f b f, f 16;
#X obj 133 30 / 2;
#X obj 94 139 t f f f, f 14;
#X obj 94 182 f;
#X obj 94 161 t b f;
#X obj 94 204 -, f 5;
#X obj 187 139 - 1;
#X obj 94 354 until;
#X obj 146 376 + 1;
#X obj 94 376 f, f 7;
#X obj 134 354 + 1;
#X obj 94 269 t f f f, f 14;
#X obj 94 312 f;
#X obj 94 291 t b f;
#X obj 94 334 -, f 5;
#X obj 94 399 pack f f f, f 14;
#X obj 152 450 + 1;
#X obj 94 450 f, f 8;
#X obj 79 792 outlet;
#X obj 152 794 outlet;
#X obj 94 712 spigot 0;
#X obj 173 712 spigot 0;
#X obj 253 444 unpack f f f, f 25;
#N canvas 243 375 450 300 get.coor 0;
#X obj 20 98 array get \$0-angles;
#X obj 20 54 * 2;
#X obj 20 76 pack f 2;
#X obj 20 31 inlet;
#X obj 20 144 outlet;
#X obj 20 122 3d/pol.to.car;
#X connect 0 0 5 0;
#X connect 1 0 2 0;
#X connect 2 0 0 0;
#X connect 3 0 1 0;
#X connect 5 0 4 0;
#X restore 253 551 pd get.coor;
#N canvas 243 375 450 300 get.coor 0;
#X obj 20 98 array get \$0-angles;
#X obj 20 54 * 2;
#X obj 20 76 pack f 2;
#X obj 20 31 inlet;
#X obj 20 144 outlet;
#X obj 20 122 3d/pol.to.car;
#X connect 0 0 5 0;
#X connect 1 0 2 0;
#X connect 2 0 0 0;
#X connect 3 0 1 0;
#X connect 5 0 4 0;
#X restore 334 525 pd get.coor;
#N canvas 243 375 450 300 get.coor 0;
#X obj 20 98 array get \$0-angles;
#X obj 20 54 * 2;
#X obj 20 76 pack f 2;
#X obj 20 31 inlet;
#X obj 20 144 outlet;
#X obj 20 122 3d/pol.to.car;
#X connect 0 0 5 0;
#X connect 1 0 2 0;
#X connect 2 0 0 0;
#X connect 3 0 1 0;
#X connect 5 0 4 0;
#X restore 400 465 pd get.coor;
#X msg 152 763 \$3 \$2 \$1;
#N canvas 127 510 450 300 distance 0;
#X obj 21 12 inlet;
#X obj 111 12 inlet;
#X obj 21 34 unpack f f f, f 13;
#X obj 111 34 unpack f f f, f 13;
#X obj 21 66 -;
#X obj 60 66 -;
#X obj 99 66 -;
#X obj 21 88 t f f;
#X obj 21 110 *, f 5;
#X obj 60 88 t f f;
#X obj 60 110 *, f 5;
#X obj 99 88 t f f;
#X obj 99 110 *, f 5;
#X obj 60 132 +, f 7;
#X obj 21 154 +, f 7;
#X obj 21 176 sqrt;
#X obj 21 198 outlet;
#X connect 0 0 2 0;
#X connect 1 0 3 0;
#X connect 2 0 4 0;
#X connect 2 1 5 0;
#X connect 2 2 6 0;
#X connect 3 0 4 1;
#X connect 3 1 5 1;
#X connect 3 2 6 1;
#X connect 4 0 7 0;
#X connect 5 0 9 0;
#X connect 6 0 11 0;
#X connect 7 0 8 0;
#X connect 7 1 8 1;
#X connect 8 0 14 0;
#X connect 9 0 10 0;
#X connect 9 1 10 1;
#X connect 10 0 13 0;
#X connect 11 0 12 0;
#X connect 11 1 12 1;
#X connect 12 0 13 1;
#X connect 13 0 14 1;
#X connect 14 0 15 0;
#X connect 15 0 16 0;
#X restore 253 572 pd distance;
#N canvas 127 510 450 300 distance 0;
#X obj 21 12 inlet;
#X obj 111 12 inlet;
#X obj 21 34 unpack f f f, f 13;
#X obj 111 34 unpack f f f, f 13;
#X obj 21 66 -;
#X obj 60 66 -;
#X obj 99 66 -;
#X obj 21 88 t f f;
#X obj 21 110 *, f 5;
#X obj 60 88 t f f;
#X obj 60 110 *, f 5;
#X obj 99 88 t f f;
#X obj 99 110 *, f 5;
#X obj 60 132 +, f 7;
#X obj 21 154 +, f 7;
#X obj 21 176 sqrt;
#X obj 21 198 outlet;
#X connect 0 0 2 0;
#X connect 1 0 3 0;
#X connect 2 0 4 0;
#X connect 2 1 5 0;
#X connect 2 2 6 0;
#X connect 3 0 4 1;
#X connect 3 1 5 1;
#X connect 3 2 6 1;
#X connect 4 0 7 0;
#X connect 5 0 9 0;
#X connect 6 0 11 0;
#X connect 7 0 8 0;
#X connect 7 1 8 1;
#X connect 8 0 14 0;
#X connect 9 0 10 0;
#X connect 9 1 10 1;
#X connect 10 0 13 0;
#X connect 11 0 12 0;
#X connect 11 1 12 1;
#X connect 12 0 13 1;
#X connect 13 0 14 1;
#X connect 14 0 15 0;
#X connect 15 0 16 0;
#X restore 334 546 pd distance;
#N canvas 127 510 450 300 distance 0;
#X obj 21 12 inlet;
#X obj 111 12 inlet;
#X obj 21 34 unpack f f f, f 13;
#X obj 111 34 unpack f f f, f 13;
#X obj 21 66 -;
#X obj 60 66 -;
#X obj 99 66 -;
#X obj 21 88 t f f;
#X obj 21 110 *, f 5;
#X obj 60 88 t f f;
#X obj 60 110 *, f 5;
#X obj 99 88 t f f;
#X obj 99 110 *, f 5;
#X obj 60 132 +, f 7;
#X obj 21 154 +, f 7;
#X obj 21 176 sqrt;
#X obj 21 198 outlet;
#X connect 0 0 2 0;
#X connect 1 0 3 0;
#X connect 2 0 4 0;
#X connect 2 1 5 0;
#X connect 2 2 6 0;
#X connect 3 0 4 1;
#X connect 3 1 5 1;
#X connect 3 2 6 1;
#X connect 4 0 7 0;
#X connect 5 0 9 0;
#X connect 6 0 11 0;
#X connect 7 0 8 0;
#X connect 7 1 8 1;
#X connect 8 0 14 0;
#X connect 9 0 10 0;
#X connect 9 1 10 1;
#X connect 10 0 13 0;
#X connect 11 0 12 0;
#X connect 11 1 12 1;
#X connect 12 0 13 1;
#X connect 13 0 14 1;
#X connect 14 0 15 0;
#X connect 15 0 16 0;
#X restore 400 485 pd distance;
#X obj 334 568 +, f 11;
#X obj 253 593 +, f 10;
#X obj 253 669 <;
#X obj 94 422 t b l l, f 27;
#X obj 13 30 t b b l b, f 41;
#X obj 79 766 f;
#X obj 152 736 list;
#X text 317 357 Later optimize by computing directly the cartesian
coordinates of the loudspeakers, f 22;
#X obj 305 614 f 6;
#X obj 349 635 print;
#X obj 253 615 t f f f;
#X obj 264 695 pack f f 6;
#X obj 279 668 spigot 0;
#X connect 0 0 11 0;
#X connect 1 0 3 0;
#X connect 2 0 3 1;
#X connect 3 0 2 0;
#X connect 3 0 13 0;
#X connect 4 0 3 1;
#X connect 4 0 28 1;
#X connect 5 0 12 0;
#X connect 6 0 45 0;
#X connect 7 0 9 0;
#X connect 8 0 9 1;
#X connect 9 0 8 0;
#X connect 9 0 22 0;
#X connect 10 0 9 1;
#X connect 11 0 1 0;
#X connect 11 1 4 0;
#X connect 11 2 17 0;
#X connect 12 0 0 1;
#X connect 13 0 15 0;
#X connect 13 1 10 0;
#X connect 13 2 26 2;
#X connect 14 0 16 0;
#X connect 15 0 14 0;
#X connect 15 1 16 1;
#X connect 16 0 7 0;
#X connect 17 0 14 1;
#X connect 17 0 23 1;
#X connect 18 0 20 0;
#X connect 19 0 20 1;
#X connect 20 0 19 0;
#X connect 20 0 26 0;
#X connect 21 0 20 1;
#X connect 22 0 24 0;
#X connect 22 1 21 0;
#X connect 22 2 26 1;
#X connect 23 0 25 0;
#X connect 24 0 23 0;
#X connect 24 1 25 1;
#X connect 25 0 18 0;
#X connect 26 0 44 0;
#X connect 27 0 28 1;
#X connect 28 0 27 0;
#X connect 28 0 31 0;
#X connect 31 0 46 1;
#X connect 32 0 47 1;
#X connect 33 0 34 0;
#X connect 33 1 35 0;
#X connect 33 2 36 0;
#X connect 34 0 38 0;
#X connect 35 0 39 0;
#X connect 36 0 40 0;
#X connect 37 0 30 0;
#X connect 38 0 42 0;
#X connect 39 0 41 0;
#X connect 40 0 41 1;
#X connect 41 0 42 1;
#X connect 42 0 51 0;
#X connect 43 0 32 1;
#X connect 43 0 31 1;
#X connect 43 0 52 0;
#X connect 43 0 53 1;
#X connect 44 0 28 0;
#X connect 44 1 32 0;
#X connect 44 2 33 0;
#X connect 45 0 46 0;
#X connect 45 0 47 0;
#X connect 45 1 0 0;
#X connect 45 2 38 1;
#X connect 45 2 39 1;
#X connect 45 2 40 1;
#X connect 45 3 49 0;
#X connect 46 0 29 0;
#X connect 47 0 37 0;
#X connect 49 0 43 1;
#X connect 49 0 52 2;
#X connect 51 0 53 0;
#X connect 51 1 43 0;
#X connect 51 2 52 1;
#X connect 52 0 50 0;
#X connect 53 0 43 1;
#X connect 53 0 52 2;
#X restore 135 113 pd get.neighbor.angles;
#X obj 523 175 * 9;
#N canvas 0 22 717 542 loop.nangles.trip 0;
#X obj 24 51 f, f 7;
#X obj 24 95 until;
#X obj 82 117 + 1;
#X obj 24 117 f, f 8;
#X obj 70 95 f 0;
#X obj 63 8 r \$0-nangles;
#X obj 24 8 inlet;
#X obj 24 30 bang;
#X obj 24 224 until;
#X obj 76 246 + 1;
#X obj 24 246 f, f 7;
#X obj 64 224 + 1;
#X obj 24 73 t f b f, f 16;
#X obj 63 30 / 2;
#X obj 24 139 t f f f, f 14;
#X obj 24 182 f;
#X obj 24 161 t b f;
#X obj 24 204 -, f 5;
#X obj 117 139 - 1;
#X obj 24 354 until;
#X obj 76 376 + 1;
#X obj 24 376 f, f 7;
#X obj 64 354 + 1;
#X obj 24 269 t f f f, f 14;
#X obj 24 312 f;
#X obj 24 291 t b f;
#X obj 24 334 -, f 5;
#X obj 24 399 pack f f f, f 14;
#X msg 24 420 \$3 \$2 \$1;
#X obj 154 470 + 1;
#X obj 96 470 f, f 8;
#X obj 24 442 t l b;
#X obj 24 491 outlet;
#X obj 96 492 outlet;
#X connect 0 0 12 0;
#X connect 1 0 3 0;
#X connect 2 0 3 1;
#X connect 3 0 2 0;
#X connect 3 0 14 0;
#X connect 4 0 3 1;
#X connect 4 0 30 1;
#X connect 5 0 13 0;
#X connect 6 0 7 0;
#X connect 7 0 0 0;
#X connect 8 0 10 0;
#X connect 9 0 10 1;
#X connect 10 0 9 0;
#X connect 10 0 23 0;
#X connect 11 0 10 1;
#X connect 12 0 1 0;
#X connect 12 1 4 0;
#X connect 12 2 18 0;
#X connect 13 0 0 1;
#X connect 14 0 16 0;
#X connect 14 1 11 0;
#X connect 14 2 27 2;
#X connect 15 0 17 0;
#X connect 16 0 15 0;
#X connect 16 1 17 1;
#X connect 17 0 8 0;
#X connect 18 0 15 1;
#X connect 18 0 24 1;
#X connect 19 0 21 0;
#X connect 20 0 21 1;
#X connect 21 0 20 0;
#X connect 21 0 27 0;
#X connect 22 0 21 1;
#X connect 23 0 25 0;
#X connect 23 1 22 0;
#X connect 23 2 27 1;
#X connect 24 0 26 0;
#X connect 25 0 24 0;
#X connect 25 1 26 1;
#X connect 26 0 19 0;
#X connect 27 0 28 0;
#X connect 28 0 31 0;
#X connect 29 0 30 1;
#X connect 30 0 29 0;
#X connect 30 0 33 0;
#X connect 31 0 32 0;
#X connect 31 1 30 0;
#X restore 406 150 pd loop.nangles.trip;
#X obj 583 318 / 2;
#X obj 603 138 t f f f, f 8;
#X obj 629 160 - 1;
#X obj 603 160 - 2;
#X obj 629 182 *, f 4;
#X obj 603 204 *;
#X obj 603 116 / 2;
#X obj 603 226 / 6;
#X obj 603 248 * 9;
#X obj 389 59 t b b l l;
#X obj 135 140 * 9;
#X obj 48 213 3d/mat.vec.mul, f 15;
#X obj 48 258 unpack f f f, f 22;
#X obj 133 234 t f f f, f 13;
#X obj 177 280 array set \$0-outputs;
#X obj 48 236 3d/gain.scale;
#X obj 48 46 t l l b, f 27;
#X obj 48 25 3d/pol.to.car;
#X obj 135 162 pack f 9;
#X obj 303 229 print;
#X obj 253 158 print;
#X connect 0 0 43 0;
#X connect 2 0 8 0;
#X connect 9 0 5 0;
#X connect 9 0 26 0;
#X connect 9 0 32 0;
#X connect 11 0 37 1;
#X connect 14 0 15 0;
#X connect 18 0 19 0;
#X connect 18 1 16 0;
#X connect 19 0 1 0;
#X connect 20 0 21 0;
#X connect 21 0 35 0;
#X connect 22 0 10 0;
#X connect 23 0 36 0;
#X connect 23 0 46 0;
#X connect 23 1 39 0;
#X connect 23 1 45 0;
#X connect 24 0 10 1;
#X connect 25 0 22 0;
#X connect 25 1 24 0;
#X connect 26 0 13 0;
#X connect 27 0 29 0;
#X connect 27 1 28 0;
#X connect 27 2 30 1;
#X connect 28 0 30 0;
#X connect 29 0 31 0;
#X connect 30 0 31 1;
#X connect 31 0 33 0;
#X connect 32 0 27 0;
#X connect 33 0 34 0;
#X connect 34 0 7 0;
#X connect 35 1 25 0;
#X connect 35 2 6 0;
#X connect 35 3 2 0;
#X connect 36 0 44 0;
#X connect 37 0 41 0;
#X connect 38 0 18 0;
#X connect 38 1 17 0;
#X connect 38 2 40 0;
#X connect 39 0 16 1;
#X connect 39 1 17 1;
#X connect 39 2 40 1;
#X connect 41 0 38 0;
#X connect 42 0 37 0;
#X connect 42 1 23 0;
#X connect 42 2 14 0;
#X connect 43 0 42 0;
#X connect 44 0 11 0;
