#N canvas 93 507 529 240 10;
#X obj 48 5 inlet;
#X obj 48 93 outlet;
#X obj 48 70 3d/gain.scale;
#X obj 241 180 3d/mat.inv;
#X text 312 181 Inverse;
#X obj 241 6 loadbang;
#X obj 241 28 t b b b b b b, f 38;
#X obj 241 50 f \$1;
#X obj 286 50 f \$2;
#X obj 331 50 f \$3;
#X obj 376 50 f \$4;
#X obj 421 50 f \$5;
#X obj 466 50 f \$6;
#X obj 241 72 pack f f;
#X obj 331 72 pack f f;
#X obj 421 72 pack f f;
#X obj 331 116 list append, f 15;
#X obj 241 138 list append, f 15;
#X obj 241 202 s \$0-matrices;
#X obj 135 25 r \$0-matrices;
#X obj 421 94 3d/pol.to.car;
#X obj 48 25 3d/pol.to.car;
#X obj 241 94 3d/pol.to.car;
#X obj 331 94 3d/pol.to.car;
#X obj 48 47 3d/mat.vec.mul, f 15;
#X msg 241 160 \$1 \$4 \$7 \$2 \$5 \$8 \$3 \$6 \$9;
#X connect 0 0 21 0;
#X connect 2 0 1 0;
#X connect 3 0 18 0;
#X connect 5 0 6 0;
#X connect 6 0 7 0;
#X connect 6 1 8 0;
#X connect 6 2 9 0;
#X connect 6 3 10 0;
#X connect 6 4 11 0;
#X connect 6 5 12 0;
#X connect 7 0 13 0;
#X connect 8 0 13 1;
#X connect 9 0 14 0;
#X connect 10 0 14 1;
#X connect 11 0 15 0;
#X connect 12 0 15 1;
#X connect 13 0 22 0;
#X connect 14 0 23 0;
#X connect 15 0 20 0;
#X connect 16 0 17 1;
#X connect 17 0 25 0;
#X connect 19 0 24 1;
#X connect 20 0 16 1;
#X connect 21 0 24 0;
#X connect 22 0 17 0;
#X connect 23 0 16 0;
#X connect 24 0 2 0;
#X connect 25 0 3 0;
