#N canvas 327 384 793 369 10;
#X obj 48 26 inlet;
#X obj 48 340 outlet;
#X obj 440 83 list length;
#X obj 583 22 array define \$0-angles;
#X obj 583 42 array define \$0-matrices;
#X obj 593 299 array size \$0-angles;
#X obj 423 126 array set \$0-angles;
#X obj 603 277 array size \$0-matrices;
#X obj 440 105 s \$0-nangles;
#X obj 583 93 r \$0-nangles;
#X obj 406 201 array set \$0-matrices;
#X obj 135 162 array get \$0-matrices;
#X obj 583 62 array define \$0-outputs;
#X obj 583 340 array size \$0-outputs;
#X msg 207 67 const 0;
#X obj 207 89 s \$0-outputs;
#X obj 75 290 array set \$0-outputs;
#X obj 112 270 array set \$0-outputs;
#X obj 48 250 t b f;
#X obj 48 320 array get \$0-outputs;
#X obj 389 13 inlet;
#N canvas 0 22 413 226 get.angles 0;
#X obj 24 129 text search \$1, f 23;
#X obj 24 18 loadbang;
#X msg 24 109 symbol angles;
#X obj 24 151 text get \$1, f 23;
#X obj 24 173 list split 1;
#X obj 83 62 bang;
#X obj 132 63 t b s;
#X obj 83 42 route bang symbol;
#X obj 83 18 inlet;
#X obj 58 194 outlet;
#X text 195 43 bang to resend the angles;
#X text 195 63 symbol to change the text name;
#X connect 0 0 3 0;
#X connect 1 0 2 0;
#X connect 2 0 0 0;
#X connect 3 0 4 0;
#X connect 4 1 9 0;
#X connect 5 0 2 0;
#X connect 6 0 2 0;
#X connect 6 1 0 1;
#X connect 6 1 3 3;
#X connect 7 0 5 0;
#X connect 7 1 6 0;
#X connect 8 0 7 0;
#X restore 389 37 pd get.angles;
#N canvas 0 22 468 317 compute.matrices 0;
#X obj 20 10 inlet;
#X obj 20 213 outlet matrix;
#X obj 20 32 unpack f f f, f 21;
#N canvas 243 375 450 300 get.coor 0;
#X obj 20 98 array get \$0-angles;
#X obj 20 54 * 2;
#X obj 20 76 pack f 2;
#X obj 20 31 inlet;
#X obj 20 144 outlet;
#X obj 20 122 3d/pol.to.car;
#X connect 0 0 5 0;
#X connect 1 0 2 0;
#X connect 2 0 0 0;
#X connect 3 0 1 0;
#X connect 5 0 4 0;
#X restore 20 57 pd get.coor;
#X text 235 81 For each triplet of angles compute the inverse matrix
, f 21;
#N canvas 243 375 450 300 get.coor 0;
#X obj 20 98 array get \$0-angles;
#X obj 20 54 * 2;
#X obj 20 76 pack f 2;
#X obj 20 31 inlet;
#X obj 20 144 outlet;
#X obj 20 122 3d/pol.to.car;
#X connect 0 0 5 0;
#X connect 1 0 2 0;
#X connect 2 0 0 0;
#X connect 3 0 1 0;
#X connect 5 0 4 0;
#X restore 83 81 pd get.coor;
#N canvas 243 375 450 300 get.coor 0;
#X obj 20 98 array get \$0-angles;
#X obj 20 54 * 2;
#X obj 20 76 pack f 2;
#X obj 20 31 inlet;
#X obj 20 144 outlet;
#X obj 20 122 3d/pol.to.car;
#X connect 0 0 5 0;
#X connect 1 0 2 0;
#X connect 2 0 0 0;
#X connect 3 0 1 0;
#X connect 5 0 4 0;
#X restore 146 101 pd get.coor;
#X text 191 169 Transpose;
#X obj 20 191 3d/mat.inv;
#X msg 20 168 \$9 \$8 \$7 \$6 \$5 \$4 \$3 \$2 \$1;
#X text 91 192 Inverse;
#X obj 83 122 list append;
#X obj 20 142 list append;
#X connect 0 0 2 0;
#X connect 2 0 3 0;
#X connect 2 1 5 0;
#X connect 2 2 6 0;
#X connect 3 0 12 0;
#X connect 5 0 11 0;
#X connect 6 0 11 1;
#X connect 8 0 1 0;
#X connect 9 0 8 0;
#X connect 11 0 12 1;
#X connect 12 0 9 0;
#X restore 406 175 pd compute.matrices;
#N canvas 0 22 418 489 get.neighbor.angles 0;
#X obj 37 68 until;
#X obj 76 68 f 0;
#X obj 37 90 f, f 7;
#X obj 86 90 + 1;
#X obj 37 155 array get \$0-angles;
#X obj 37 221 sel 1;
#X obj 37 112 t f f, f 11;
#X obj 64 290 f, f 6;
#X obj 64 424 %, f 9;
#X obj 91 353 r \$0-nangles;
#X obj 91 381 - 1;
#X obj 37 199 >, f 14;
#X obj 37 177 route float bang;
#X obj 37 134 pack f 1;
#X obj 118 109 wrap 360;
#X obj 118 88 / 360;
#X obj 118 131 * 360;
#X obj 64 402 + 1, f 5;
#X obj 100 269 %;
#X obj 37 36 t b b f, f 14;
#X obj 37 11 inlet;
#X text 172 32 Gets the indices of the loudspkeakers whose the angles
that are the nearest from the input angle, f 33;
#X obj 64 312 t f f;
#X obj 64 446 outlet;
#X obj 91 333 outlet;
#X obj 115 247 r \$0-nangles;
#X obj 64 253 bang;
#X connect 0 0 2 0;
#X connect 1 0 2 1;
#X connect 2 0 3 0;
#X connect 2 0 6 0;
#X connect 3 0 2 1;
#X connect 4 0 12 0;
#X connect 5 0 26 0;
#X connect 6 0 13 0;
#X connect 6 1 18 0;
#X connect 7 0 22 0;
#X connect 8 0 23 0;
#X connect 9 0 10 0;
#X connect 9 0 8 1;
#X connect 10 0 17 1;
#X connect 11 0 5 0;
#X connect 12 0 11 0;
#X connect 12 1 26 0;
#X connect 13 0 4 0;
#X connect 14 0 16 0;
#X connect 15 0 14 0;
#X connect 16 0 11 1;
#X connect 17 0 8 0;
#X connect 18 0 7 1;
#X connect 19 0 0 0;
#X connect 19 1 1 0;
#X connect 19 2 15 0;
#X connect 20 0 19 0;
#X connect 22 0 17 0;
#X connect 22 1 24 0;
#X connect 25 0 18 1;
#X connect 26 0 7 0;
#X connect 26 0 0 1;
#X restore 127 113 pd get.neighbor.angles;
#X obj 48 46 t f f b, f 27;
#X obj 523 175 * 9;
#N canvas 0 22 717 542 loop.nangles.trip 0;
#X obj 24 51 f, f 7;
#X obj 24 95 until;
#X obj 82 117 + 1;
#X obj 24 117 f, f 8;
#X obj 70 95 f 0;
#X obj 63 8 r \$0-nangles;
#X obj 24 8 inlet;
#X obj 24 30 bang;
#X obj 24 224 until;
#X obj 76 246 + 1;
#X obj 24 246 f, f 7;
#X obj 64 224 + 1;
#X obj 24 73 t f b f, f 16;
#X obj 63 30 / 2;
#X obj 24 139 t f f f, f 14;
#X obj 24 182 f;
#X obj 24 161 t b f;
#X obj 24 204 -, f 5;
#X obj 117 139 - 1;
#X obj 24 354 until;
#X obj 76 376 + 1;
#X obj 24 376 f, f 7;
#X obj 64 354 + 1;
#X obj 24 269 t f f f, f 14;
#X obj 24 312 f;
#X obj 24 291 t b f;
#X obj 24 334 -, f 5;
#X obj 24 399 pack f f f, f 14;
#X msg 24 420 \$3 \$2 \$1;
#X obj 154 470 + 1;
#X obj 96 470 f, f 8;
#X obj 24 442 t l b;
#X obj 24 491 outlet;
#X obj 96 492 outlet;
#X connect 0 0 12 0;
#X connect 1 0 3 0;
#X connect 2 0 3 1;
#X connect 3 0 2 0;
#X connect 3 0 14 0;
#X connect 4 0 3 1;
#X connect 4 0 30 1;
#X connect 5 0 13 0;
#X connect 6 0 7 0;
#X connect 7 0 0 0;
#X connect 8 0 10 0;
#X connect 9 0 10 1;
#X connect 10 0 9 0;
#X connect 10 0 23 0;
#X connect 11 0 10 1;
#X connect 12 0 1 0;
#X connect 12 1 4 0;
#X connect 12 2 18 0;
#X connect 13 0 0 1;
#X connect 14 0 16 0;
#X connect 14 1 11 0;
#X connect 14 2 27 2;
#X connect 15 0 17 0;
#X connect 16 0 15 0;
#X connect 16 1 17 1;
#X connect 17 0 8 0;
#X connect 18 0 15 1;
#X connect 18 0 24 1;
#X connect 19 0 21 0;
#X connect 20 0 21 1;
#X connect 21 0 20 0;
#X connect 21 0 27 0;
#X connect 22 0 21 1;
#X connect 23 0 25 0;
#X connect 23 1 22 0;
#X connect 23 2 27 1;
#X connect 24 0 26 0;
#X connect 25 0 24 0;
#X connect 25 1 26 1;
#X connect 26 0 19 0;
#X connect 27 0 28 0;
#X connect 28 0 31 0;
#X connect 29 0 30 1;
#X connect 30 0 29 0;
#X connect 30 0 33 0;
#X connect 31 0 32 0;
#X connect 31 1 30 0;
#X restore 406 150 pd loop.nangles.trip;
#X obj 583 318 / 2;
#X obj 603 138 t f f f, f 8;
#X obj 629 160 - 1;
#X obj 603 160 - 2;
#X obj 629 182 *, f 4;
#X obj 603 204 *;
#X obj 603 116 / 2;
#X obj 603 226 / 6;
#X obj 603 248 * 9;
#X obj 389 59 t b b l l;
#X obj 48 162 3d/pol.to.car;
#X obj 135 140 * 9;
#X obj 48 183 3d/mat.vec.mul, f 15;
#X obj 48 228 unpack f f f, f 22;
#X obj 256 140 t f f f;
#X obj 177 250 array set \$0-outputs;
#X obj 48 206 3d/gain.scale;
#X connect 0 0 24 0;
#X connect 2 0 8 0;
#X connect 9 0 5 0;
#X connect 9 0 27 0;
#X connect 9 0 33 0;
#X connect 11 0 39 1;
#X connect 14 0 15 0;
#X connect 18 0 19 0;
#X connect 18 1 16 0;
#X connect 19 0 1 0;
#X connect 20 0 21 0;
#X connect 21 0 36 0;
#X connect 22 0 10 0;
#X connect 23 0 38 0;
#X connect 24 0 37 0;
#X connect 24 1 23 0;
#X connect 24 2 14 0;
#X connect 25 0 10 1;
#X connect 26 0 22 0;
#X connect 26 1 25 0;
#X connect 27 0 13 0;
#X connect 28 0 30 0;
#X connect 28 1 29 0;
#X connect 28 2 31 1;
#X connect 29 0 31 0;
#X connect 30 0 32 0;
#X connect 31 0 32 1;
#X connect 32 0 34 0;
#X connect 33 0 28 0;
#X connect 34 0 35 0;
#X connect 35 0 7 0;
#X connect 36 1 26 0;
#X connect 36 2 6 0;
#X connect 36 3 2 0;
#X connect 37 0 39 0;
#X connect 38 0 11 0;
#X connect 39 0 43 0;
#X connect 40 0 18 0;
#X connect 40 1 17 0;
#X connect 40 2 42 0;
#X connect 41 0 16 1;
#X connect 41 1 17 1;
#X connect 41 2 42 1;
#X connect 43 0 40 0;
