#N canvas 95 197 1048 564 10;
#X obj 504 243 nbx 5 14 -1e+37 1e+37 0 0 empty \$0-angle empty 0 -8
0 10 -262144 -1 -1 -507 256;
#X obj 524 284 list prepend set;
#X obj 524 306 list trim;
#X msg 591 15 \; pd dsp 1;
#X msg 523 16 \; pd dsp 0;
#X obj 138 184 nbx 5 14 -45 45 0 0 empty \$0-angle empty 0 -8 0 10
-262144 -1 -1 45 256;
#X obj 168 225 list prepend set;
#X obj 168 247 list trim;
#X obj 9 203 noise~;
#N canvas 0 22 496 180 vector.gain.octo~ 0;
#X obj 26 15 inlet~;
#X obj 54 107 *~;
#X obj 69 15 inlet;
#X obj 69 37 unpack f f f f f f f f, f 58;
#X msg 69 59 \$1 20;
#X obj 69 81 line~;
#X obj 54 129 outlet~;
#X obj 103 107 *~;
#X msg 118 59 \$1 20;
#X obj 118 81 line~;
#X obj 103 129 outlet~;
#X obj 152 107 *~;
#X msg 167 59 \$1 20;
#X obj 167 81 line~;
#X obj 152 129 outlet~;
#X obj 201 107 *~;
#X msg 216 59 \$1 20;
#X obj 216 81 line~;
#X obj 201 129 outlet~;
#X obj 251 107 *~;
#X msg 266 59 \$1 20;
#X obj 266 81 line~;
#X obj 251 129 outlet~;
#X obj 300 107 *~;
#X msg 315 59 \$1 20;
#X obj 315 81 line~;
#X obj 300 129 outlet~;
#X obj 349 107 *~;
#X msg 364 59 \$1 20;
#X obj 364 81 line~;
#X obj 349 129 outlet~;
#X obj 398 107 *~;
#X msg 413 59 \$1 20;
#X obj 413 81 line~;
#X obj 398 129 outlet~;
#X connect 0 0 1 0;
#X connect 0 0 7 0;
#X connect 0 0 11 0;
#X connect 0 0 15 0;
#X connect 0 0 19 0;
#X connect 0 0 23 0;
#X connect 0 0 27 0;
#X connect 0 0 31 0;
#X connect 1 0 6 0;
#X connect 2 0 3 0;
#X connect 3 0 4 0;
#X connect 3 1 8 0;
#X connect 3 2 12 0;
#X connect 3 3 16 0;
#X connect 3 4 20 0;
#X connect 3 5 24 0;
#X connect 3 6 28 0;
#X connect 3 7 32 0;
#X connect 4 0 5 0;
#X connect 5 0 1 1;
#X connect 7 0 10 0;
#X connect 8 0 9 0;
#X connect 9 0 7 1;
#X connect 11 0 14 0;
#X connect 12 0 13 0;
#X connect 13 0 11 1;
#X connect 15 0 18 0;
#X connect 16 0 17 0;
#X connect 17 0 15 1;
#X connect 19 0 22 0;
#X connect 20 0 21 0;
#X connect 21 0 19 1;
#X connect 23 0 26 0;
#X connect 24 0 25 0;
#X connect 25 0 23 1;
#X connect 27 0 30 0;
#X connect 28 0 29 0;
#X connect 29 0 27 1;
#X connect 31 0 34 0;
#X connect 32 0 33 0;
#X connect 33 0 31 1;
#X restore 387 285 pd vector.gain.octo~;
#N canvas 0 22 450 300 init 0;
#X obj 14 19 loadbang;
#X msg 14 41 0;
#X obj 14 63 s \$0-angle;
#X connect 0 0 1 0;
#X connect 1 0 2 0;
#X restore 237 8 pd init;
#X obj 387 262 noise~;
#X text 502 211 Angle of the virtual source in degrees, f 21;
#X text 523 349 Gains of the loudspkeakers, f 13;
#N canvas 252 23 618 319 loudspks.display~ 0;
#X obj 238 96 inlet~;
#X obj 157 107 cnv 10 10 10 empty \$0-ls-8-1 empty 20 12 0 14 -166441
-262144 0;
#X obj 248 145 inlet~;
#X obj 127 127 cnv 10 10 10 empty \$0-ls-8-2 empty 20 12 0 14 -166441
-262144 0;
#X obj 107 157 cnv 10 10 10 empty \$0-ls-8-3 empty 20 12 0 14 -166441
-262144 0;
#X obj 157 207 cnv 10 10 10 empty \$0-ls-8-5 empty 20 12 0 14 -260818
-260818 0;
#X obj 127 187 cnv 10 10 10 empty \$0-ls-8-4 empty 20 12 0 14 -166441
-262144 0;
#X obj 187 127 cnv 10 10 10 empty \$0-ls-8-8 empty 20 12 0 14 -166441
-262144 0;
#X obj 207 157 cnv 10 10 10 empty \$0-ls-8-7 empty 20 12 0 14 -166441
-262144 0;
#X obj 187 187 cnv 10 10 10 empty \$0-ls-8-6 empty 20 12 0 14 -260818
-260818 0;
#X obj 268 196 inlet~;
#X obj 278 245 inlet~;
#X obj 408 96 inlet~;
#X obj 418 145 inlet~;
#X obj 438 196 inlet~;
#X obj 448 245 inlet~;
#X obj 238 122 misc/color.ls~ \$0-ls-8-1;
#X obj 248 171 misc/color.ls~ \$0-ls-8-2;
#X obj 268 222 misc/color.ls~ \$0-ls-8-3;
#X obj 278 271 misc/color.ls~ \$0-ls-8-4;
#X obj 408 122 misc/color.ls~ \$0-ls-8-5;
#X obj 418 171 misc/color.ls~ \$0-ls-8-6;
#X obj 438 222 misc/color.ls~ \$0-ls-8-7;
#X obj 448 271 misc/color.ls~ \$0-ls-8-8;
#X connect 0 0 16 0;
#X connect 2 0 17 0;
#X connect 10 0 18 0;
#X connect 11 0 19 0;
#X connect 12 0 20 0;
#X connect 13 0 21 0;
#X connect 14 0 22 0;
#X connect 15 0 23 0;
#X coords 0 -1 1 1 124 124 2 100 100;
#X restore 387 310 pd loudspks.display~;
#X text 384 145 Text that contains the angles in degrees, f 21;
#N canvas 0 22 250 192 vector.gain.stereo~ 0;
#X obj 26 15 inlet~;
#X obj 54 107 *~;
#X obj 69 15 inlet;
#X msg 69 59 \$1 20;
#X obj 69 81 line~;
#X obj 54 129 outlet~;
#X obj 103 107 *~;
#X msg 118 59 \$1 20;
#X obj 118 81 line~;
#X obj 103 129 outlet~;
#X obj 69 37 unpack f f, f 11;
#X connect 0 0 1 0;
#X connect 0 0 6 0;
#X connect 1 0 5 0;
#X connect 2 0 10 0;
#X connect 3 0 4 0;
#X connect 4 0 1 1;
#X connect 6 0 9 0;
#X connect 7 0 8 0;
#X connect 8 0 6 1;
#X connect 10 0 3 0;
#X connect 10 1 7 0;
#X restore 9 225 pd vector.gain.stereo~;
#X obj 9 256 misc/vu.meter~;
#X obj 138 256 misc/vu.meter~;
#X text 135 151 Angle of the virtual source in degrees, f 21;
#X text 168 290 Gains of the loudspkeakers, f 13;
#N canvas 0 22 450 300 header 0;
#X text 81 12 by Pierre Guillot - 2016;
#X obj 11 11 cnv 15 65 18 empty empty vbap.2d 2 8 0 14 -262144 -66577
0;
#X coords 0 -1 1 1 222 20 2 10 10;
#X restore 9 7 pd header;
#X text 10 34 An abstraction that computes the gains of a set of loudspeakers
for the spatialization of a virtual source using V. Pulkki's Vector
Base Amplitude Panning technique., f 83;
#X text 10 84 The argument is the name of the text object that contains
a line starting with "angles" and the angles in degrees of the loudspeakers.
The angles should be in ascending order. If you change the angles of
the text object \, you can bang the right inlet to re-compute the matrices.
You can also change the text object by sending the name of the new
text object as a symbol in the right inlet., f 105;
#X msg 168 269 1 0;
#X msg 524 328 0 0 0 0 0.35662 0.93425 0 0;
#X obj 721 260 nbx 5 14 -1e+37 1e+37 0 0 empty empty empty 0 -8 0 10
-262144 -1 -1 -507 256;
#X obj 725 309 list prepend set;
#X obj 725 331 list trim;
#X msg 725 353 0 0 0 0 0.35664 0.934242 0 0;
#X obj 848 245 bng 15 250 50 0 empty empty empty 17 7 0 10 -262144
-1 -1;
#X obj 504 262 vbap.2d text angles \$0-octo;
#X obj 664 41 text define -k \$0-cube;
#A set angles 45 35.3 135 35.3 225 35.3 315 35.3 45 -35.3 135 -35.3
225 -35.3 315 -35.3;
#X obj 664 11 text define -k \$0-angles;
#A set stereo 45 -45 \; octo 0 45 90 135 180 225 270 315 \; cube 45
35.3 135 35.3 225 35.3 315 35.3 45 -35.3 135 -35.3 225 -35.3 315 -35.3
\; tri 45 0 0 35.3 -45 0 \;;
#X obj 313 179 bng 15 250 50 0 empty empty empty 17 7 0 10 -262144
-1 -1;
#X obj 725 287 p.vbap 2d text angles \$0-octo;
#X obj 138 203 p.vbap 2d text stereo \$0-angles;
#X connect 0 0 31 0;
#X connect 1 0 2 0;
#X connect 2 0 25 0;
#X connect 5 0 36 0;
#X connect 6 0 7 0;
#X connect 7 0 24 0;
#X connect 8 0 16 0;
#X connect 9 0 14 0;
#X connect 9 1 14 1;
#X connect 9 2 14 2;
#X connect 9 3 14 3;
#X connect 9 4 14 4;
#X connect 9 5 14 5;
#X connect 9 6 14 6;
#X connect 9 7 14 7;
#X connect 11 0 9 0;
#X connect 16 0 17 0;
#X connect 16 1 18 0;
#X connect 26 0 0 0;
#X connect 26 0 35 0;
#X connect 27 0 28 0;
#X connect 28 0 29 0;
#X connect 30 0 35 1;
#X connect 31 0 1 0;
#X connect 34 0 36 1;
#X connect 35 0 27 0;
#X connect 35 0 9 1;
#X connect 36 0 6 0;
#X connect 36 0 16 1;
