#N canvas 195 85 754 483 10;
#X obj 48 26 inlet;
#X obj 48 250 outlet;
#X obj 48 206 2d/gain.scale;
#X obj 428 80 list length;
#X obj 583 22 array define \$0-angles;
#X obj 583 42 array define \$0-matrices;
#X obj 583 164 array size \$0-angles;
#X obj 408 123 array set \$0-angles;
#X obj 593 120 * 4;
#X obj 593 142 array size \$0-matrices;
#X obj 428 102 s \$0-nangles;
#X obj 583 93 r \$0-nangles;
#X obj 389 234 array set \$0-matrices, f 23;
#X obj 458 211 * 4;
#X obj 48 142 2d/pol.to.car;
#X obj 135 162 array get \$0-matrices;
#X obj 583 62 array define \$0-outputs;
#X obj 583 185 array size \$0-outputs;
#X obj 389 13 inlet;
#N canvas 0 22 156 201 loop.nangles 0;
#X obj 24 79 f;
#X obj 24 123 until;
#X obj 76 145 + 1;
#X obj 24 145 f, f 7;
#X obj 24 101 t f b, f 7;
#X obj 63 123 f 0;
#X obj 39 58 r \$0-nangles;
#X obj 24 8 inlet;
#X obj 24 167 outlet;
#X obj 24 30 bang;
#X connect 0 0 4 0;
#X connect 1 0 3 0;
#X connect 2 0 3 1;
#X connect 3 0 2 0;
#X connect 3 0 8 0;
#X connect 4 0 1 0;
#X connect 4 1 5 0;
#X connect 5 0 3 1;
#X connect 6 0 0 1;
#X connect 7 0 9 0;
#X connect 9 0 0 0;
#X restore 389 145 pd loop.nangles;
#X obj 389 56 t b l l;
#N canvas 0 22 468 317 compute.matrices 0;
#X obj 20 121 array get \$0-angles;
#X obj 20 99 pack f 1;
#X obj 155 55 + 1;
#X obj 155 77 %, f 5;
#X obj 155 122 array get \$0-angles;
#X obj 155 100 pack f 1;
#X obj 20 169 list append, f 23;
#X obj 20 145 2d/pol.to.car;
#X obj 155 146 2d/pol.to.car;
#X obj 182 54 r \$0-nangles;
#X obj 20 32 t f f, f 23;
#X obj 20 216 2d/mat.inv;
#X obj 20 10 inlet;
#X text 276 54 For each pair of angles compute the inverse matrix,
f 21;
#X obj 20 238 outlet matrix;
#X msg 20 191 \$4 \$3 \$2 \$1;
#X connect 0 0 7 0;
#X connect 1 0 0 0;
#X connect 2 0 3 0;
#X connect 3 0 5 0;
#X connect 4 0 8 0;
#X connect 5 0 4 0;
#X connect 6 0 15 0;
#X connect 7 0 6 0;
#X connect 8 0 6 1;
#X connect 9 0 3 1;
#X connect 10 0 1 0;
#X connect 10 1 2 0;
#X connect 11 0 14 0;
#X connect 12 0 10 0;
#X connect 15 0 11 0;
#X restore 389 191 pd compute.matrices;
#X obj 389 167 t f f, f 12;
#N canvas 0 22 418 489 get.neighbor.angles 0;
#X obj 37 68 until;
#X obj 76 68 f 0;
#X obj 37 90 f, f 7;
#X obj 86 90 + 1;
#X obj 37 155 array get \$0-angles;
#X obj 37 221 sel 1;
#X obj 37 112 t f f, f 11;
#X obj 64 290 f, f 6;
#X obj 64 424 %, f 9;
#X obj 91 353 r \$0-nangles;
#X obj 91 381 - 1;
#X obj 37 199 >, f 14;
#X obj 37 177 route float bang;
#X obj 37 134 pack f 1;
#X obj 118 109 wrap 360;
#X obj 118 88 / 360;
#X obj 118 131 * 360;
#X obj 64 402 + 1, f 5;
#X obj 100 269 %;
#X obj 37 36 t b b f, f 14;
#X obj 37 11 inlet;
#X text 172 32 Gets the indices of the loudspkeakers whose the angles
that are the nearest from the input angle, f 33;
#X obj 64 312 t f f;
#X obj 64 446 outlet;
#X obj 91 333 outlet;
#X obj 115 247 r \$0-nangles;
#X obj 64 253 bang;
#X connect 0 0 2 0;
#X connect 1 0 2 1;
#X connect 2 0 3 0;
#X connect 2 0 6 0;
#X connect 3 0 2 1;
#X connect 4 0 12 0;
#X connect 5 0 26 0;
#X connect 6 0 13 0;
#X connect 6 1 18 0;
#X connect 7 0 22 0;
#X connect 8 0 23 0;
#X connect 9 0 10 0;
#X connect 9 0 8 1;
#X connect 10 0 17 1;
#X connect 11 0 5 0;
#X connect 12 0 11 0;
#X connect 12 1 26 0;
#X connect 13 0 4 0;
#X connect 14 0 16 0;
#X connect 15 0 14 0;
#X connect 16 0 11 1;
#X connect 17 0 8 0;
#X connect 18 0 7 1;
#X connect 19 0 0 0;
#X connect 19 1 1 0;
#X connect 19 2 15 0;
#X connect 20 0 19 0;
#X connect 22 0 17 0;
#X connect 22 1 24 0;
#X connect 25 0 18 1;
#X connect 26 0 7 0;
#X connect 26 0 0 1;
#X restore 135 117 pd get.neighbor.angles;
#X obj 135 140 * 4;
#X obj 48 46 t f f b, f 30;
#N canvas 0 22 223 221 get.args 0;
#X obj 14 8 loadbang;
#N canvas 0 22 450 300 has.sym.arg 0;
#X obj 21 17 inlet;
#X obj 21 39 symbol \$1;
#X msg 21 61 \$1;
#X obj 21 82 route \$1;
#X obj 21 126 outlet;
#X msg 21 104 1;
#X msg 66 104 0;
#X connect 0 0 1 0;
#X connect 1 0 2 0;
#X connect 2 0 3 0;
#X connect 3 0 5 0;
#X connect 3 1 6 0;
#X connect 5 0 4 0;
#X connect 6 0 4 0;
#X restore 95 50 pd has.sym.arg;
#X obj 14 112 pack s s s;
#X obj 14 50 symbol \$1;
#X obj 41 71 symbol \$2;
#X obj 68 92 symbol \$3;
#X obj 14 29 t b b b b, f 14;
#X obj 14 154 spigot 0, f 14;
#X obj 14 176 outlet;
#X obj 14 134 list trim;
#X connect 0 0 6 0;
#X connect 1 0 7 1;
#X connect 2 0 9 0;
#X connect 3 0 2 0;
#X connect 4 0 2 1;
#X connect 5 0 2 2;
#X connect 6 0 3 0;
#X connect 6 1 4 0;
#X connect 6 2 5 0;
#X connect 6 3 1 0;
#X connect 7 0 8 0;
#X connect 9 0 7 0;
#X restore 425 13 pd get.args;
#N canvas 309 23 450 300 to.list 0;
#X obj 8 8 inlet;
#X obj 8 154 outlet;
#X obj 8 130 list, f 5;
#X obj 8 80 route list bang;
#X obj 8 32 route text array, f 25;
#N canvas 0 22 117 140 get.array 0;
#X obj 16 11 inlet;
#X obj 16 54 t b s, f 10;
#X obj 16 33 symbol;
#X obj 16 75 array get, f 10;
#X obj 16 97 outlet;
#X connect 0 0 2 0;
#X connect 1 0 3 0;
#X connect 1 1 3 2;
#X connect 2 0 1 0;
#X connect 3 0 4 0;
#X restore 81 53 pd get.array;
#N canvas 0 22 137 159 get.text 0;
#X obj 8 95 list split 1, f 13;
#X obj 8 31 unpack s s;
#X obj 8 11 inlet;
#X obj 45 117 outlet;
#X obj 8 51 text search, f 15;
#X obj 8 73 text get, f 12;
#X connect 0 1 3 0;
#X connect 1 0 4 0;
#X connect 1 1 4 1;
#X connect 1 1 5 3;
#X connect 2 0 1 0;
#X connect 4 0 5 0;
#X connect 5 0 0 0;
#X restore 8 53 pd get.text;
#X obj 8 103 t b a;
#X connect 0 0 4 0;
#X connect 2 0 1 0;
#X connect 3 0 7 0;
#X connect 3 1 2 0;
#X connect 4 0 6 0;
#X connect 4 1 5 0;
#X connect 4 2 3 0;
#X connect 5 0 3 0;
#X connect 6 0 3 0;
#X connect 7 0 2 0;
#X connect 7 1 2 1;
#X restore 389 35 pd to.list;
#X obj 195 201 pack f f;
#X obj 48 229 2d/out.set.get \$0-outputs;
#N canvas 0 22 133 101 clear.out 0;
#X msg 16 34 const 0;
#X obj 16 56 s \$0-outputs;
#X obj 16 12 inlet;
#X connect 0 0 1 0;
#X connect 2 0 0 0;
#X restore 225 67 pd clear.out;
#X obj 48 184 2d/mat.vec.mul, f 15;
#X obj 362 78 t b b;
#X obj 349 265 array get \$0-matrices, f 23;
#X obj 349 287 print;
#X connect 0 0 25 0;
#X connect 2 0 29 0;
#X connect 3 0 10 0;
#X connect 8 0 9 0;
#X connect 11 0 6 0;
#X connect 11 0 8 0;
#X connect 11 0 17 0;
#X connect 13 0 12 1;
#X connect 14 0 31 0;
#X connect 15 0 31 1;
#X connect 18 0 27 0;
#X connect 19 0 22 0;
#X connect 20 0 32 0;
#X connect 20 1 7 0;
#X connect 20 2 3 0;
#X connect 21 0 12 0;
#X connect 22 0 21 0;
#X connect 22 1 13 0;
#X connect 23 0 24 0;
#X connect 23 0 28 0;
#X connect 23 1 28 1;
#X connect 24 0 15 0;
#X connect 25 0 14 0;
#X connect 25 1 23 0;
#X connect 25 2 30 0;
#X connect 26 0 27 0;
#X connect 27 0 20 0;
#X connect 28 0 29 1;
#X connect 29 0 1 0;
#X connect 31 0 2 0;
#X connect 32 0 33 0;
#X connect 32 1 19 0;
#X connect 33 0 34 0;
