#N canvas 387 100 838 644 10;
#X obj 48 26 inlet;
#X obj 48 550 outlet;
#X obj 48 436 2d/gain.scale;
#X obj 48 413 2d/mat.vec.mul, f 15;
#X obj 333 105 text search \$1;
#X obj 333 14 loadbang;
#X msg 333 85 symbol angles;
#X obj 333 127 text get \$1;
#X obj 394 191 list length;
#X obj 333 149 list split 1;
#X obj 367 171 t l l;
#X obj 583 22 array define \$0-angles;
#X obj 583 42 array define \$0-matrices;
#X obj 583 164 array size \$0-angles;
#X obj 367 234 array set \$0-angles;
#X obj 333 280 f;
#X obj 333 171 bang;
#X obj 593 120 * 4;
#X obj 593 142 array size \$0-matrices;
#X obj 333 324 until;
#X obj 385 346 + 1;
#X obj 333 346 f, f 7;
#X obj 333 302 t f b, f 7;
#X obj 372 324 f 0;
#X obj 333 458 array get \$0-angles;
#X obj 333 436 pack f 1;
#X obj 468 391 + 1;
#X obj 468 413 %, f 5;
#X obj 468 458 array get \$0-angles;
#X obj 468 436 pack f 1;
#X obj 333 506 list append, f 23;
#X obj 333 482 2d/pol.to.car;
#X obj 468 482 2d/pol.to.car;
#X obj 394 213 s \$0-nangles;
#X obj 583 93 r \$0-nangles;
#X obj 348 259 r \$0-nangles;
#X obj 495 390 r \$0-nangles;
#X obj 333 551 array set \$0-matrices, f 23;
#X obj 333 368 t f f, f 23;
#X obj 400 528 * 4;
#X obj 333 528 2d/mat.inv;
#X obj 87 68 until;
#X obj 126 68 f 0;
#X obj 87 90 f, f 7;
#X obj 136 90 + 1;
#X obj 87 155 array get \$0-angles;
#X obj 87 221 sel 1;
#X obj 87 112 t f f, f 9;
#X obj 135 252 f;
#X obj 48 392 2d/pol.to.car;
#X obj 135 316 %, f 5;
#X obj 203 185 r \$0-nangles;
#X obj 162 273 - 1;
#X obj 135 338 * 4;
#X obj 135 392 array get \$0-matrices;
#X obj 583 62 array define \$0-outputs;
#X obj 583 185 array size \$0-outputs;
#X obj 48 46 t f b b f b, f 27;
#X msg 207 67 const 0;
#X obj 207 89 s \$0-outputs;
#X obj 48 500 array set \$0-outputs;
#X obj 178 500 array set \$0-outputs;
#X obj 48 458 unpack f f;
#X obj 48 480 t b f;
#X obj 48 530 array get \$0-outputs;
#X obj 87 199 >, f 5;
#X obj 87 177 route float bang;
#X obj 87 134 pack f 1;
#X obj 167 109 wrap 360;
#X obj 167 88 / 360;
#X obj 167 131 * 360;
#X obj 135 294 + 1, f 5;
#X obj 150 211 %;
#X obj 389 13 inlet;
#X obj 389 55 bang;
#X obj 432 54 t b s;
#X obj 389 35 route bang symbol;
#X connect 0 0 57 0;
#X connect 2 0 62 0;
#X connect 3 0 2 0;
#X connect 4 0 7 0;
#X connect 5 0 6 0;
#X connect 6 0 4 0;
#X connect 7 0 9 0;
#X connect 8 0 33 0;
#X connect 9 0 16 0;
#X connect 9 1 10 0;
#X connect 10 0 14 0;
#X connect 10 1 8 0;
#X connect 15 0 22 0;
#X connect 16 0 15 0;
#X connect 17 0 18 0;
#X connect 19 0 21 0;
#X connect 20 0 21 1;
#X connect 21 0 20 0;
#X connect 21 0 38 0;
#X connect 22 0 19 0;
#X connect 22 1 23 0;
#X connect 23 0 21 1;
#X connect 24 0 31 0;
#X connect 25 0 24 0;
#X connect 26 0 27 0;
#X connect 27 0 29 0;
#X connect 28 0 32 0;
#X connect 29 0 28 0;
#X connect 30 0 40 0;
#X connect 31 0 30 0;
#X connect 32 0 30 1;
#X connect 34 0 13 0;
#X connect 34 0 17 0;
#X connect 34 0 56 0;
#X connect 35 0 15 1;
#X connect 36 0 27 1;
#X connect 38 0 25 0;
#X connect 38 1 26 0;
#X connect 38 1 39 0;
#X connect 39 0 37 1;
#X connect 40 0 37 0;
#X connect 41 0 43 0;
#X connect 42 0 43 1;
#X connect 43 0 44 0;
#X connect 43 0 47 0;
#X connect 44 0 43 1;
#X connect 45 0 66 0;
#X connect 46 0 48 0;
#X connect 46 0 41 1;
#X connect 47 0 67 0;
#X connect 47 1 72 0;
#X connect 48 0 61 1;
#X connect 48 0 71 0;
#X connect 49 0 3 0;
#X connect 50 0 53 0;
#X connect 50 0 60 1;
#X connect 51 0 52 0;
#X connect 51 0 50 1;
#X connect 51 0 72 1;
#X connect 52 0 71 1;
#X connect 53 0 54 0;
#X connect 54 0 3 1;
#X connect 57 0 49 0;
#X connect 57 1 41 0;
#X connect 57 2 42 0;
#X connect 57 3 69 0;
#X connect 57 4 58 0;
#X connect 58 0 59 0;
#X connect 62 0 63 0;
#X connect 62 1 61 0;
#X connect 63 0 64 0;
#X connect 63 1 60 0;
#X connect 64 0 1 0;
#X connect 65 0 46 0;
#X connect 66 0 65 0;
#X connect 66 1 48 0;
#X connect 66 1 41 1;
#X connect 67 0 45 0;
#X connect 68 0 70 0;
#X connect 69 0 68 0;
#X connect 70 0 65 1;
#X connect 71 0 50 0;
#X connect 72 0 48 1;
#X connect 73 0 76 0;
#X connect 74 0 6 0;
#X connect 75 0 6 0;
#X connect 75 1 4 1;
#X connect 75 1 7 3;
#X connect 76 0 74 0;
#X connect 76 1 75 0;
